<?xml version="1.0" encoding="utf-8"?>
<!-- Generator: Adobe Illustrator 21.1.0, SVG Export Plug-In . SVG Version: 6.00 Build 0)  -->
<svg version="1.0" id="Layer_1" xmlns="http://www.w3.org/2000/svg" xmlns:xlink="http://www.w3.org/1999/xlink" x="0px" y="0px"
	 viewBox="0 0 150 150" style="enable-background:new 0 0 150 150;" xml:space="preserve">
<style type="text/css">
	.st0{fill:#98EA66;}
	.st1{fill:#DEDEDD;}
	.st2{fill:#65B940;}
	.st3{fill:#353535;}
	.st4{fill:#80B7F9;}
	.st5{fill:#FFFFFF;}
</style>
<g>
	<path class="st0" d="M132.1,101.5c-0.8,0.8-0.8,2.1,0,2.9c0.8,0.8,2.1,0.8,2.9,0s0.8-2.1,0-2.9
		C134.2,100.7,132.9,100.7,132.1,101.5 M136.4,105.9c-1.6,1.6-4.2,1.6-5.9,0c-1.6-1.6-1.6-4.2,0-5.9c1.6-1.6,4.2-1.6,5.9,0
		C138.1,101.7,138.1,104.3,136.4,105.9"/>
	<path class="st0" d="M23.2,29.8c-0.8,0.8-0.8,2.1,0,2.9c0.8,0.8,2.1,0.8,2.9,0c0.8-0.8,0.8-2.1,0-2.9C25.3,29,24,29,23.2,29.8
		 M27.6,34.2c-1.6,1.6-4.2,1.6-5.9,0c-1.6-1.6-1.6-4.2,0-5.9c1.6-1.6,4.2-1.6,5.9,0C29.2,30,29.2,32.6,27.6,34.2"/>
	<polygon class="st1" points="98.3,119.5 88,94.7 77.6,119.5 85.9,117.5 85.9,123.7 90.1,123.7 90.1,117.5 98.3,119.5 	"/>
	<polygon class="st2" points="148,77.1 144.9,74 148,70.9 148,67.8 136.6,67.8 130.4,74 136.6,80.2 148,80.2 148,77.1 	"/>
	<polygon class="st1" points="114.9,111.3 73.9,74.8 75.2,73.2 116.3,109.7 114.9,111.3 	"/>
	<polygon class="st3" points="74.5,73 148,73 148,75.1 74.5,75.1 74.5,73 	"/>
	<path class="st0" d="M123.1,77.1c-1.6,25.6-22.9,45.5-48.5,45.5c-26.9,0-48.6-21.8-48.6-48.6s21.8-48.6,48.6-48.6
		c25.6,0,46.9,19.9,48.5,45.5h8.3c-1.6-30.2-26.6-53.8-56.8-53.8c-31.4,0-56.9,25.5-56.9,56.9s25.5,56.9,56.9,56.9
		c30.2,0,55.2-23.6,56.8-53.8H123.1L123.1,77.1z"/>
	<path class="st4" d="M106.5,77.1c-1.6,16.4-15.4,29-31.9,29c-17.7,0-32.1-14.4-32.1-32.1s14.4-32.1,32.1-32.1
		c16.5,0,30.3,12.5,31.9,29h8.3c-1.6-21-19.1-37.2-40.2-37.2c-22.3,0-40.4,18.1-40.4,40.4s18.1,40.4,40.4,40.4
		c21.1,0,38.6-16.2,40.2-37.2H106.5L106.5,77.1z"/>
	<path class="st0" d="M89.7,77.1c-1.7,8.4-9.9,13.8-18.3,12.1c-8.4-1.7-13.8-9.9-12.1-18.3c1.7-8.4,9.9-13.8,18.3-12.1
		c6.1,1.2,10.9,6,12.1,12.1h8.4c-1.7-13-13.7-22.2-26.7-20.5c-13,1.7-22.2,13.7-20.5,26.7s13.7,22.2,26.7,20.5
		c10.7-1.4,19.1-9.8,20.5-20.5H89.7L89.7,77.1z"/>
	<path class="st4" d="M74.5,77.1v-6.2h6.7c-1.7-3.7-6.1-5.3-9.8-3.6c-3.7,1.7-5.3,6.1-3.6,9.8c1.7,3.7,6.1,5.3,9.8,3.6
		c1.6-0.7,2.8-2,3.6-3.6H74.5L74.5,77.1z"/>
	<polygon class="st3" points="29.3,13.8 32.1,13.8 32.1,25 29.3,25 29.3,13.8 	"/>
	<polygon class="st3" points="25.1,18 36.3,18 36.3,20.8 25.1,20.8 25.1,18 	"/>
	<polygon class="st3" points="125.4,110.5 128.2,110.5 128.2,121.7 125.4,121.7 125.4,110.5 	"/>
	<polygon class="st3" points="121.2,114.7 132.4,114.7 132.4,117.5 121.2,117.5 121.2,114.7 	"/>
	<path class="st0" d="M28.6,122.2c-0.8,0.8-0.8,2.1,0,2.9c0.8,0.8,2.1,0.8,2.9,0c0.8-0.8,0.8-2.1,0-2.9
		C30.7,121.4,29.4,121.4,28.6,122.2 M33,126.6c-1.6,1.6-4.2,1.6-5.9,0c-1.6-1.6-1.6-4.2,0-5.9c1.6-1.6,4.2-1.6,5.9,0
		C34.6,122.4,34.6,125,33,126.6"/>
	<polygon class="st5" points="85.9,107.1 75.6,82.3 65.2,107.1 73.5,105.1 73.5,111.3 77.6,111.3 77.6,105.1 85.9,107.1 	"/>
	<path class="st3" d="M74.5,110.2h2.1v-6.5l7.6,1.9L75.6,85L67,105.6l7.6-1.9V110.2L74.5,110.2z M78.7,112.3h-6.2v-5.9l-9,2.2
		l12.1-29l12.1,29l-9-2.2V112.3L78.7,112.3z"/>
	<polygon class="st3" points="128.3,47.6 136.6,47.6 136.6,49.7 128.3,49.7 128.3,47.6 	"/>
	<path class="st1" d="M56,17.8l-1.5-1.5c-0.4-0.4-0.4-1.1,0-1.5l1.5-1.5l-1.5-1.5l-1.5,1.5c-0.4,0.4-1.1,0.4-1.5,0l-1.5-1.5
		l-1.5,1.5l1.5,1.5c0.4,0.4,0.4,1.1,0,1.5l-1.5,1.5l1.5,1.5l1.5-1.5c0.4-0.4,1.1-0.4,1.5,0l1.5,1.5L56,17.8L56,17.8z"/>
	<polygon class="st1" points="111.4,123.1 113.2,122.1 114.2,123.9 112.4,124.9 111.4,123.1 	"/>
	<polygon class="st1" points="117.6,133.8 119.4,132.8 120.4,134.6 118.7,135.6 117.6,133.8 	"/>
	<polygon class="st1" points="109.1,126.1 110.2,124.3 112,125.4 110.9,127.2 109.1,126.1 	"/>
	<polygon class="st1" points="119.9,132.3 120.9,130.5 122.7,131.6 121.7,133.4 119.9,132.3 	"/>
	<polygon class="st1" points="108.7,127.8 110.8,127.8 110.8,129.9 108.7,129.9 108.7,127.8 	"/>
	<polygon class="st1" points="121.1,127.8 123.2,127.8 123.2,129.9 121.1,129.9 121.1,127.8 	"/>
	<polygon class="st1" points="109.1,131.6 110.9,130.5 112,132.3 110.2,133.4 109.1,131.6 	"/>
	<polygon class="st1" points="119.9,125.4 121.7,124.3 122.7,126.1 120.9,127.2 119.9,125.4 	"/>
	<polygon class="st1" points="111.4,134.6 112.4,132.8 114.2,133.8 113.2,135.6 111.4,134.6 	"/>
	<polygon class="st1" points="117.6,123.9 118.7,122.1 120.4,123.1 119.4,124.9 117.6,123.9 	"/>
	<polygon class="st1" points="114.9,134 117,134 117,136.1 114.9,136.1 114.9,134 	"/>
	<polygon class="st1" points="114.9,121.6 117,121.6 117,123.7 114.9,123.7 114.9,121.6 	"/>
	<g>
		<polygon class="st1" points="49.1,131.6 29.4,131.6 29.4,134.7 54.3,134.7 54.3,101.6 49.1,101.6 49.1,131.6 		"/>
		<polygon class="st5" points="25.5,96.9 24.7,128.2 24.7,131.3 49.5,131.3 49.5,98.2 48.4,96.9 25.5,96.9 		"/>
		<polygon class="st3" points="35.6,106.8 37.7,106.8 37.7,131.6 35.6,131.6 35.6,106.8 		"/>
		<path class="st3" d="M25.3,130.6h22.8V97.5H25.3V130.6L25.3,130.6z M50.1,132.7H23.2V95.4h26.9V132.7L50.1,132.7z"/>
		<polygon class="st3" points="24.3,105.8 49.1,105.8 49.1,107.8 24.3,107.8 24.3,105.8 		"/>
		<polygon class="st3" points="24.3,118.2 49.1,118.2 49.1,120.2 24.3,120.2 24.3,118.2 		"/>
		<polygon class="st3" points="41.8,109.9 43.9,109.9 43.9,116.1 41.8,116.1 41.8,109.9 		"/>
		<polygon class="st3" points="39.8,112 46,112 46,114 39.8,114 39.8,112 		"/>
		<polygon class="st3" points="39.8,124.4 46,124.4 46,126.5 39.8,126.5 39.8,124.4 		"/>
		<polygon class="st3" points="27.5,114.5 31.9,110.1 33.4,111.5 29,115.9 27.5,114.5 		"/>
		<polygon class="st3" points="27.5,111.5 29,110.1 33.4,114.5 31.9,115.9 27.5,111.5 		"/>
		<polygon class="st3" points="27.4,124.4 33.6,124.4 33.6,126.4 27.4,126.4 27.4,124.4 		"/>
		<path class="st3" d="M30.5,124.4c-0.6,0-1-0.5-1-1c0-0.6,0.5-1,1-1c0.1,0,0.3,0,0.4,0.1c0.1,0.1,0.2,0.1,0.3,0.2
			c0.2,0.2,0.3,0.5,0.3,0.7l0,0.2l-0.1,0.2l-0.1,0.2l-0.1,0.2c-0.1,0.1-0.2,0.2-0.3,0.2C30.7,124.3,30.6,124.4,30.5,124.4"/>
		<path class="st3" d="M30.5,128.5c-0.6,0-1-0.5-1-1c0-0.6,0.5-1,1-1c0.1,0,0.3,0,0.4,0.1c0.1,0.1,0.2,0.1,0.3,0.2
			c0.2,0.2,0.3,0.5,0.3,0.7c0,0.3-0.1,0.5-0.3,0.7c-0.1,0.1-0.2,0.2-0.3,0.2C30.7,128.5,30.6,128.5,30.5,128.5"/>
	</g>
	<path class="st3" d="M111.2,130.3H141c1.1,0,2.1-0.9,2.1-2.1c0-1.1-0.9-2.1-2.1-2.1h-30l-4.7,2.1L111.2,130.3L111.2,130.3z
		 M141,132.4h-30.2l-9.6-4.1l9.5-4.1H141c2.3,0,4.1,1.9,4.1,4.1C145.1,130.5,143.3,132.4,141,132.4"/>
	<polygon class="st3" points="136.8,125.1 138.9,125.1 138.9,131.4 136.8,131.4 136.8,125.1 	"/>
	<path class="st4" d="M17.6,103c1.1,0,2.1,0.9,2.1,2.1s-0.9,2.1-2.1,2.1s-2.1-0.9-2.1-2.1S16.5,103,17.6,103"/>
</g>
</svg>
