<?xml version="1.0" encoding="utf-8"?>
<!-- Generator: Adobe Illustrator 21.1.0, SVG Export Plug-In . SVG Version: 6.00 Build 0)  -->
<svg version="1.0" id="Layer_1" xmlns="http://www.w3.org/2000/svg" xmlns:xlink="http://www.w3.org/1999/xlink" x="0px" y="0px"
	 viewBox="0 0 150 150" style="enable-background:new 0 0 150 150;" xml:space="preserve">
<style type="text/css">
	.st0{fill:#DEDEDD;}
	.st1{fill:#65B940;}
	.st2{fill:#353535;}
	.st3{fill:#2B2B2B;}
	.st4{fill:#80B7F9;}
	.st5{fill:#FFFFFF;}
	.st6{fill:#98EA66;}
</style>
<g>
	<path class="st0" d="M73.5,52.9L73.5,52.9L73.5,52.9c-1.4,0-2.8-0.4-4-1.2v5.9h8v-5.9C76.4,52.4,75,52.9,73.5,52.9L73.5,52.9
		L73.5,52.9z"/>
	<path class="st0" d="M108.3,83.4c-1.3,0-2.4-1.1-2.4-2.4s1.1-2.4,2.4-2.4c1.3,0,2.4,1.1,2.4,2.4S109.6,83.4,108.3,83.4L108.3,83.4z
		 M117.4,79.8l1.9-1.8c-0.6-1.4-0.6-1.4-1.1-2.8l-2.6,0.1c-0.7-0.7-1-1-1.7-1.7l0.1-2.6c-1.4-0.6-1.4-0.6-2.8-1.1l-1.8,1.9h-2.4
		l-1.8-1.9c-1.4,0.6-1.4,0.6-2.8,1.1l0.1,2.6l-1.7,1.7l-2.6-0.1c-0.6,1.4-0.6,1.4-1.1,2.8l1.9,1.8v2.4L97.3,84l1.1,2.8l2.6-0.1
		c0.7,0.7,1,1,1.7,1.7l-0.1,2.6c1.4,0.6,1.4,0.6,2.8,1.1l1.8-1.9h2.4l1.8,1.9c1.4-0.6,1.4-0.6,2.8-1.1l-0.1-2.6c0.7-0.7,1-1,1.7-1.7
		l2.6,0.1c0.6-1.4,0.6-1.4,1.1-2.8l-1.9-1.8V79.8L117.4,79.8z"/>
	<path class="st1" d="M114.5,134.5h-83v-5c0-4.4-3.6-8-8-8c-4.4,0-8,3.6-8,8v1c0,4.4,3.6,8,8,8h91V134.5L114.5,134.5z"/>
	<path class="st2" d="M23.5,120.5c2.7,0,5.3,1.2,7,3.3V20.5c0-3.9-3.1-7-7-7s-7,3.1-7,7v103.3C18.2,121.7,20.8,120.5,23.5,120.5
		 M32.5,131.5h-2v-2c0-3.9-3.1-7-7-7s-7,3.1-7,7v2h-2v-111c0-5,4-9,9-9s9,4,9,9V131.5L32.5,131.5z"/>
	<path class="st2" d="M114.5,139.5h-91c-5,0-9-4-9-9v-6h2v6c0,3.9,3.1,7,7,7h91V139.5L114.5,139.5z"/>
	<polygon class="st2" points="114.5,135.5 30.5,135.5 30.5,19.5 90.5,19.5 90.5,21.5 32.5,21.5 32.5,133.5 112.5,133.5 112.5,45.5 
		114.5,45.5 114.5,135.5 	"/>
	<path class="st1" d="M23.5,15.5v103c1.7,0,3.5,0.4,5,1.2V20.5C28.5,17.8,26.3,15.5,23.5,15.5"/>
	<path class="st2" d="M42.5,60.5c-1.1,0-2,0.9-2,2v26c0,1.1,0.9,2,2,2s2-0.9,2-2v-26C44.5,61.4,43.6,60.5,42.5,60.5 M42.5,92.5
		c-2.2,0-4-1.8-4-4v-26c0-2.2,1.8-4,4-4s4,1.8,4,4v26C46.5,90.7,44.7,92.5,42.5,92.5"/>
	<path class="st3" d="M90.6,75.5h-2v-9.9c0-2.2-1.4-4.1-3.5-4.8l-8.5-3v-6h2v4.5l7.2,2.6c2.9,0.9,4.9,3.6,4.9,6.7V75.5L90.6,75.5z"
		/>
	<path class="st3" d="M58.5,75.4h-2v-9.6c0-3,1.9-5.7,4.8-6.6l7.2-2.7v-4.1c-1.9-1.5-3-3.8-3-6.2v-2.6c0-4.4,3.6-8,8-8
		c0.3,0,0.7,0,1,0.1c4.1,0.6,7.1,4.1,7,8.2v2.4c0,4.4-3.6,8-8,8v-2c3.3,0,6-2.7,6-6v-2.4c0.1-3.1-2.2-5.8-5.2-6.2
		c-3.3-0.4-6.3,1.9-6.7,5.2c0,0.2,0,0.5,0,0.8v2.6c0,2,1,3.8,2.6,4.9l0.4,0.3v6.5L62,61.1c-2.1,0.7-3.4,2.6-3.4,4.8V75.4L58.5,75.4z
		"/>
	<polygon class="st3" points="94.5,76.5 52.5,76.5 52.5,30.5 89.9,30.5 89.9,32.5 54.5,32.5 54.5,74.5 92.5,74.5 92.5,43.5 
		94.5,43.5 94.5,76.5 	"/>
	<polygon class="st3" points="52.5,82.5 54.5,82.5 54.5,84.5 52.5,84.5 52.5,82.5 	"/>
	<polygon class="st3" points="56.5,82.5 94.5,82.5 94.5,84.5 56.5,84.5 56.5,82.5 	"/>
	<polygon class="st3" points="52.5,86.5 54.5,86.5 54.5,88.5 52.5,88.5 52.5,86.5 	"/>
	<polygon class="st3" points="56.5,86.5 94.5,86.5 94.5,88.5 56.5,88.5 56.5,86.5 	"/>
	<polygon class="st3" points="52.5,90.5 54.5,90.5 54.5,92.5 52.5,92.5 52.5,90.5 	"/>
	<polygon class="st3" points="56.5,90.5 94.5,90.5 94.5,92.5 56.5,92.5 56.5,90.5 	"/>
	<polygon class="st3" points="52.5,111.5 54.5,111.5 54.5,113.5 52.5,113.5 52.5,111.5 	"/>
	<polygon class="st3" points="56.5,111.5 94.5,111.5 94.5,113.5 56.5,113.5 56.5,111.5 	"/>
	<polygon class="st3" points="52.5,115.5 54.5,115.5 54.5,117.5 52.5,117.5 52.5,115.5 	"/>
	<polygon class="st3" points="56.5,115.5 94.5,115.5 94.5,117.5 56.5,117.5 56.5,115.5 	"/>
	<polygon class="st3" points="52.5,119.5 54.5,119.5 54.5,121.5 52.5,121.5 52.5,119.5 	"/>
	<polygon class="st3" points="56.5,119.5 94.5,119.5 94.5,121.5 56.5,121.5 56.5,119.5 	"/>
	<path class="st2" d="M81.7,103.5h49.8c1.1,0,2-0.9,2-2c0-1.1-0.9-2-2-2h-50l-4.5,2L81.7,103.5L81.7,103.5z M131.5,105.5H81.3
		l-9.3-4l9.1-4h50.4c2.2,0,4,1.8,4,4C135.5,103.7,133.7,105.5,131.5,105.5L131.5,105.5L131.5,105.5z"/>
	<polygon class="st2" points="127.5,98.5 129.5,98.5 129.5,104.5 127.5,104.5 127.5,98.5 	"/>
	<polygon class="st4" points="96.5,36.5 112.5,36.5 112.5,38.2 114.5,36.5 130.5,36.5 130.5,15.5 96.5,15.5 96.5,36.5 	"/>
	<path class="st3" d="M94.9,38.5h15.6v4.1l4.7-4.1h16.9l0.4-0.4V13.9l-0.4-0.4H94.9l-0.4,0.4v24.2L94.9,38.5L94.9,38.5z M110.2,45.5
		h-1.7v-5H94.1l-1.6-1.6V13.1l1.6-1.6H133l1.6,1.6v25.8l-1.6,1.6h-17L110.2,45.5L110.2,45.5z"/>
	<polygon class="st3" points="104.5,22.5 122.5,22.5 122.5,24.5 104.5,24.5 104.5,22.5 	"/>
	<polygon class="st3" points="104.5,26.5 122.5,26.5 122.5,28.5 104.5,28.5 104.5,26.5 	"/>
	<path class="st5" d="M121,121c2.2,0,4,1.8,4,4s-1.8,4-4,4c-2.2,0-4-1.8-4-4S118.8,121,121,121"/>
	<path class="st0" d="M43.7,40.6c-1.1,0-2,0.9-2,2c0,1.1,0.9,2,2,2s2-0.9,2-2C45.7,41.5,44.8,40.6,43.7,40.6 M43.7,46.6
		c-2.2,0-4-1.8-4-4c0-2.2,1.8-4,4-4s4,1.8,4,4C47.7,44.8,45.9,46.6,43.7,46.6"/>
	<path class="st6" d="M126.7,62.5c-1.1,0-2,0.9-2,2c0,1.1,0.9,2,2,2c1.1,0,2-0.9,2-2C128.7,63.4,127.8,62.5,126.7,62.5 M126.7,68.5
		c-2.2,0-4-1.8-4-4c0-2.2,1.8-4,4-4s4,1.8,4,4C130.7,66.7,128.9,68.5,126.7,68.5"/>
	<path class="st4" d="M131,83c1.1,0,2,0.9,2,2c0,1.1-0.9,2-2,2c-1.1,0-2-0.9-2-2C129,83.9,129.9,83,131,83"/>
</g>
</svg>
