<?xml version="1.0" encoding="utf-8"?>
<!-- Generator: Adobe Illustrator 21.1.0, SVG Export Plug-In . SVG Version: 6.00 Build 0)  -->
<svg version="1.0" id="Layer_1" xmlns="http://www.w3.org/2000/svg" xmlns:xlink="http://www.w3.org/1999/xlink" x="0px" y="0px"
	 viewBox="0 0 150 150" style="enable-background:new 0 0 150 150;" xml:space="preserve">
<style type="text/css">
	.st0{fill:#DEDEDD;}
	.st1{fill:#80B7F9;}
	.st2{fill:#98EA66;}
	.st3{fill:#65B940;}
	.st4{fill:#353535;}
</style>
<g>
	<path class="st0" d="M36.5,46.2c13.8,0,15.2-8,0-8c-15.2,0-27.5,12.3-27.5,27.5c0,1.3,0.1,2.7,0.3,4C11.3,56.2,22.9,46.2,36.5,46.2
		"/>
	<path class="st1" d="M93.6,53.1c-1.1,2.6-1.1,2.6-2.1,5.1L86.6,58c-1.2,1.2-1.9,1.9-3.1,3.1l0.2,4.8c-2.6,1.1-2.6,1.1-5.1,2.1
		l-3.2-3.6H71l-3.2,3.6c-2.6-1.1-2.6-1.1-5.1-2.1l0.2-4.8c-1.2-1.2-1.9-1.9-3.1-3.1L55,58.3c-1.1-2.6-1.1-2.6-2.1-5.1l3.6-3.2v-4.4
		l-3.6-3.2c1.1-2.6,1.1-2.6,2.1-5.1l4.8,0.2c1.2-1.2,1.9-1.9,3.1-3.1l-0.2-4.8c2.6-1.1,2.6-1.1,5.1-2.1l3.2,3.6h4.4l3.2-3.6
		c2.6,1.1,2.6,1.1,5.1,2.1l-0.2,4.8c1.2,1.2,1.9,1.9,3.1,3.1l4.8-0.2c1.1,2.6,1.1,2.6,2.1,5.1L90,45.5v4.4L93.6,53.1L93.6,53.1z
		 M107.1,28.5c-2.1-3.7-4.9-7.1-8.1-9.9C91.8,12.4,82.7,9,73.2,9c-9.5,0-18.6,3.4-25.8,9.6c-3.7,3.2-6.7,7.1-9,11.5
		C32.9,41,33.4,54.1,39,65c5.6,10.8,16.5,32.2,16.5,50.3l0.1,2.7h35.2l0.1-2.7c0-17.8,11-39.5,16.5-50.3
		C113.3,53.5,113.5,39.7,107.1,28.5"/>
	<polygon class="st2" points="32.5,106.7 18.2,96.5 18.2,114.9 46.7,114.9 46.7,96.5 32.5,106.7 	"/>
	<polygon class="st3" points="18.2,94 32.5,104.2 46.7,94 18.2,94 	"/>
	<path class="st0" d="M106.6,119.9c-1.3,0-2.4-1.1-2.4-2.4c0-1.3,1.1-2.4,2.4-2.4s2.4,1.1,2.4,2.4
		C109,118.8,107.9,119.9,106.6,119.9L106.6,119.9z M115.8,116.2l2-1.8c-0.6-1.4-0.6-1.4-1.2-2.8l-2.7,0.1c-0.7-0.7-1-1-1.7-1.7
		l0.1-2.7c-1.4-0.6-1.4-0.6-2.8-1.2l-1.8,2h-2.4l-1.8-2c-1.4,0.6-1.4,0.6-2.8,1.2l0.1,2.7c-0.7,0.7-1,1-1.7,1.7l-2.7-0.1
		c-0.6,1.4-0.6,1.4-1.2,2.8l2,1.8v2.4l-2,1.8l1.2,2.8l2.7-0.1c0.7,0.7,1,1,1.7,1.7l-0.1,2.7c1.4,0.6,1.4,0.6,2.8,1.2l1.8-2h2.4
		l1.8,2c1.4-0.6,1.4-0.6,2.8-1.2l-0.1-2.7c0.7-0.7,1-1,1.7-1.7l2.7,0.1c0.6-1.4,0.6-1.4,1.2-2.8l-2-1.8V116.2L115.8,116.2z"/>
	<polygon class="st4" points="53.9,116.9 81.3,116.9 81.3,119 53.9,119 53.9,116.9 	"/>
	<polygon class="st4" points="81.8,139.3 64.6,139.3 60,134.7 60,129.2 62,129.2 62,133.8 65.5,137.3 80.9,137.3 83.4,134.8 
		84.9,136.2 81.8,139.3 	"/>
	<polygon class="st4" points="57.9,121 81.3,121 81.3,123 57.9,123 57.9,121 	"/>
	<polygon class="st4" points="57.9,125.1 81.3,125.1 81.3,127.1 57.9,127.1 57.9,125.1 	"/>
	<polygon class="st4" points="35.5,48.5 37.6,48.5 37.6,61.7 35.5,61.7 35.5,48.5 	"/>
	<polygon class="st4" points="35.8,63.2 37.3,61.8 51.6,76 50.1,77.4 35.8,63.2 	"/>
	<path class="st4" d="M36.5,36.2c-14.6,0-26.5,11.9-26.5,26.5c0,14.6,11.9,26.5,26.5,26.5C51.2,89.1,63,77.3,63,62.6
		C63,48,51.2,36.2,36.5,36.2 M36.5,91.2C20.8,91.2,8,78.4,8,62.6s12.8-28.5,28.5-28.5c15.7,0,28.5,12.8,28.5,28.5
		C65,78.4,52.3,91.1,36.5,91.2"/>
	<path class="st2" d="M36.6,61c0.8,0,1.5,0.7,1.5,1.5c0,0.8-0.7,1.5-1.5,1.5c-0.8,0-1.5-0.7-1.5-1.5C35,61.6,35.7,61,36.6,61"/>
	<polygon class="st4" points="12.2,61.5 16.2,61.5 16.2,63.5 12.2,63.5 12.2,61.5 	"/>
	<polygon class="st4" points="57,61.5 61,61.5 61,63.5 57,63.5 57,61.5 	"/>
	<polygon class="st4" points="35.6,38 37.6,38 37.6,42.1 35.6,42.1 35.6,38 	"/>
	<polygon class="st4" points="35.6,82.8 37.6,82.8 37.6,86.9 35.6,86.9 35.6,82.8 	"/>
	<polygon class="st4" points="14.9,73.8 18.5,71.8 19.5,73.6 15.9,75.6 14.9,73.8 	"/>
	<polygon class="st4" points="53.7,51.4 57.2,49.4 58.3,51.1 54.7,53.2 53.7,51.4 	"/>
	<polygon class="st4" points="23.5,41.8 25.3,40.8 27.3,44.3 25.5,45.4 23.5,41.8 	"/>
	<polygon class="st4" points="45.9,80.6 47.7,79.6 49.7,83.1 47.9,84.1 45.9,80.6 	"/>
	<polygon class="st4" points="23.5,83.1 25.5,79.6 27.3,80.6 25.3,84.2 23.5,83.1 	"/>
	<polygon class="st4" points="45.9,44.3 47.9,40.8 49.7,41.8 47.7,45.3 45.9,44.3 	"/>
	<polygon class="st4" points="14.9,51.2 15.9,49.4 19.5,51.4 18.4,53.2 14.9,51.2 	"/>
	<polygon class="st4" points="53.7,73.5 54.7,71.8 58.3,73.8 57.3,75.6 53.7,73.5 	"/>
	<path class="st4" d="M73.6,44.9c-1.7,0-3.1,1.4-3.1,3.1s1.4,3.1,3.1,3.1c1.7,0,3.1-1.4,3.1-3.1C76.7,46.2,75.3,44.9,73.6,44.9
		 M73.6,53c-2.8,0-5.1-2.3-5.1-5.1s2.3-5.1,5.1-5.1s5.1,2.3,5.1,5.1C78.7,50.7,76.4,53,73.6,53"/>
	<path class="st4" d="M89.5,89.5c-2.4,0.5-4.1,2.6-4.1,5v28.6l0.1-0.1c1.1-1.1,2.5-1.8,4-2V89.5L89.5,89.5z M123.1,135.3H90.5
		c-3.9,0-7.1-3.2-7.1-7.1V94.5c0-3.9,3.2-7.1,7.1-7.1h0h1l0,1V123h-1c-2.8,0-5.1,2.3-5.1,5.1c0,2.8,2.3,5.1,5.1,5.1h32.6
		c2.8,0,5.1-2.3,5.1-5.1c0-2.8-2.3-5.1-5.1-5.1h0h0h-1l0-1V87.4h1c3.9,0,7.1,3.2,7.1,7.1v0l-2,0c0-2.4-1.7-4.5-4.1-5v31.5
		c3.9,0.6,6.6,4.2,6,8.1C129.6,132.7,126.6,135.3,123.1,135.3L123.1,135.3z"/>
	<polygon class="st4" points="128.2,94.5 130.2,94.5 130.2,128.1 128.2,128.1 128.2,94.5 	"/>
	<polygon class="st4" points="90.5,99.6 100.7,99.6 100.7,101.7 90.5,101.7 90.5,99.6 	"/>
	<polygon class="st4" points="112.5,99.6 123.1,99.6 123.1,101.7 112.5,101.7 112.5,99.6 	"/>
	<path class="st4" d="M104.7,97.3l2,4.8l2-4.6V67c0-1.1-0.9-2-2-2c-1.1,0-2,0.9-2,2V97.3L104.7,97.3z M106.7,107.2l-4.1-9.5V67
		c0-2.2,1.8-4.1,4.1-4.1c2.3,0,4.1,1.8,4.1,4.1v0v30.9L106.7,107.2L106.7,107.2z"/>
	<polygon class="st4" points="103.7,69.1 109.8,69.1 109.8,71.1 103.7,71.1 103.7,69.1 	"/>
	<path class="st2" d="M119.2,18.2c-1.1,0-2,0.9-2,2c0,1.1,0.9,2,2,2c1.1,0,2-0.9,2-2C121.2,19.1,120.3,18.2,119.2,18.2 M119.2,24.3
		c-2.2,0-4.1-1.8-4.1-4.1c0-2.2,1.8-4.1,4.1-4.1c2.2,0,4.1,1.8,4.1,4.1C123.3,22.4,121.5,24.3,119.2,24.3"/>
	<path class="st0" d="M34.6,122.1c-1.1,0-2,0.9-2,2c0,1.1,0.9,2,2,2s2-0.9,2-2C36.7,123,35.8,122.1,34.6,122.1 M34.6,128.2
		c-2.2,0-4.1-1.8-4.1-4.1c0-2.2,1.8-4.1,4.1-4.1c2.2,0,4.1,1.8,4.1,4.1C38.7,126.4,36.9,128.2,34.6,128.2"/>
	<path class="st2" d="M126.3,71.1c-1.1,0-2,0.9-2,2c0,1.1,0.9,2,2,2s2-0.9,2-2C128.4,72,127.5,71.1,126.3,71.1 M126.3,77.2
		c-2.2,0-4.1-1.8-4.1-4.1c0-2.2,1.8-4.1,4.1-4.1s4.1,1.8,4.1,4.1C130.4,75.4,128.6,77.2,126.3,77.2"/>
	<path class="st1" d="M13.3,88.4c1.1,0,2,0.9,2,2s-0.9,2-2,2s-2-0.9-2-2S12.2,88.4,13.3,88.4"/>
	<path class="st1" d="M118.3,51.8c1.1,0,2,0.9,2,2s-0.9,2-2,2c-1.1,0-2-0.9-2-2S117.2,51.8,118.3,51.8"/>
</g>
</svg>
