<?xml version="1.0" encoding="utf-8"?>
<!-- Generator: Adobe Illustrator 21.1.0, SVG Export Plug-In . SVG Version: 6.00 Build 0)  -->
<svg version="1.0" id="Layer_1" xmlns="http://www.w3.org/2000/svg" xmlns:xlink="http://www.w3.org/1999/xlink" x="0px" y="0px"
	 viewBox="0 0 150 150" style="enable-background:new 0 0 150 150;" xml:space="preserve">
<style type="text/css">
	.st0{fill:#DEDEDD;}
	.st1{fill:#98EA66;}
	.st2{fill:#353535;}
	.st3{fill:#80B7F9;}
	.st4{fill:#FFFFFF;}
</style>
<g>
	<path class="st0" d="M74.5,38.7c-19.8,0-35.8,16-35.8,35.8s16,35.8,35.8,35.8s35.8-16,35.8-35.8C110.3,54.8,94.3,38.8,74.5,38.7
		 M74.5,116.8c-23.4,0-42.3-18.9-42.3-42.3s18.9-42.3,42.3-42.3c23.4,0,42.3,18.9,42.3,42.3C116.8,97.9,97.8,116.8,74.5,116.8"/>
	<path class="st1" d="M113.5,70.8c-3.1,0-5.6-2.5-5.6-5.6c0-3.1,2.5-5.6,5.6-5.6c3.1,0,5.6,2.5,5.6,5.6
		C119.1,68.3,116.6,70.8,113.5,70.8"/>
	<path class="st1" d="M113.5,60.6c-2.6,0-4.6,2.1-4.6,4.6c0,2.6,2.1,4.6,4.6,4.6s4.6-2.1,4.6-4.6C118.2,62.7,116.1,60.6,113.5,60.6
		 M113.5,71.7c-3.6,0-6.5-2.9-6.5-6.5c0-3.6,2.9-6.5,6.5-6.5c3.6,0,6.5,2.9,6.5,6.5C120,68.8,117.1,71.7,113.5,71.7"/>
	<path class="st2" d="M98.7,98.3l3.6,2.1l1.2-4.7L98.7,98.3L98.7,98.3z M103.6,103.3l-8.7-5l11.4-6.2L103.6,103.3L103.6,103.3z"/>
	<path class="st2" d="M47.8,53.5l-1.4-1.3l2.9-3.1c5.5-5.5,11.5-10.6,17.7-15.2c25.6-18.7,50.3-23.7,61.5-12.5l-1.3,1.3
		C116.7,12.2,93,17.3,68.1,35.4c-6.2,4.6-12.1,9.6-17.5,15L47.8,53.5L47.8,53.5z"/>
	<path class="st2" d="M129.1,25c-0.3-0.5-0.7-1-1.1-1.4l1.4-1.2c0.4,0.5,0.8,1,1.2,1.6L129.1,25L129.1,25z M130.8,28.1
		c-0.2-0.5-0.5-1.1-0.8-1.6l1.6-0.9c0.3,0.6,0.6,1.2,0.8,1.8L130.8,28.1L130.8,28.1z M131.9,31.5c-0.1-0.6-0.3-1.2-0.5-1.7l1.8-0.6
		c0.2,0.6,0.4,1.2,0.5,1.9L131.9,31.5L131.9,31.5z M132.4,35.1c-0.1-0.6-0.1-1.2-0.2-1.8l1.8-0.3c0.1,0.6,0.2,1.3,0.2,1.9
		L132.4,35.1L132.4,35.1z M134.4,38.7l-1.9-0.1c0-0.3,0-0.6,0-1c0-0.3,0-0.6,0-0.9l1.9-0.1c0,0.3,0,0.6,0,0.9
		C134.4,38.1,134.4,38.4,134.4,38.7L134.4,38.7L134.4,38.7z M134.1,42.5l-1.8-0.2c0.1-0.6,0.1-1.2,0.2-1.8l1.9,0.1
		C134.2,41.3,134.2,41.9,134.1,42.5 M133.5,46.3l-1.8-0.4c0.1-0.6,0.2-1.2,0.3-1.8l1.8,0.3C133.7,45,133.6,45.6,133.5,46.3
		L133.5,46.3L133.5,46.3z M132.6,49.9l-1.8-0.5c0.2-0.6,0.3-1.2,0.4-1.8l1.8,0.4C133,48.7,132.8,49.3,132.6,49.9 M131.6,53.6
		l-1.8-0.6c0.2-0.6,0.4-1.2,0.6-1.7l1.8,0.5C131.9,52.4,131.8,53,131.6,53.6 M130.3,57.1l-1.7-0.7c0.2-0.6,0.4-1.2,0.6-1.7l1.8,0.6
		C130.7,55.9,130.5,56.5,130.3,57.1L130.3,57.1z M128.9,60.6l-1.7-0.7c0.2-0.6,0.5-1.1,0.7-1.7l1.7,0.7
		C129.4,59.4,129.1,60,128.9,60.6 M127.3,64l-1.7-0.8c0.3-0.6,0.5-1.1,0.8-1.7l1.7,0.8C127.8,62.9,127.6,63.4,127.3,64 M125.6,67.3
		l-1.6-0.9c0.3-0.5,0.6-1.1,0.8-1.6l1.7,0.8C126.2,66.2,125.9,66.8,125.6,67.3"/>
	<path class="st2" d="M37.7,133.9c-6.7,0-12.4-1.9-16.3-5.8c-6.7-6.7-7.8-18.3-3-32.6c4.7-14,14.7-29.4,28-43.3l1.3,1.3
		c-27,28.2-38,60.4-25.1,73.3c13.4,13.4,47.8,1,76.6-27.7l1.3,1.3C79.3,121.6,55,133.9,37.7,133.9"/>
	<path class="st1" d="M113.5,93.1c-1,0-1.9,0.8-1.9,1.9c0,1,0.8,1.9,1.9,1.9s1.9-0.8,1.9-1.9C115.4,94,114.6,93.1,113.5,93.1
		 M113.5,98.7c-2.1,0-3.7-1.7-3.7-3.7c0-2.1,1.7-3.7,3.7-3.7s3.7,1.7,3.7,3.7C117.3,97,115.6,98.7,113.5,98.7"/>
	<polygon class="st2" points="109.8,29.9 111.7,29.9 111.7,37.3 109.8,37.3 109.8,29.9 	"/>
	<polygon class="st2" points="107,32.7 114.5,32.7 114.5,34.6 107,34.6 107,32.7 	"/>
	<path class="st3" d="M48.5,118.2c-2.1,0-3.7-1.7-3.7-3.7c0-2.1,1.7-3.7,3.7-3.7c2.1,0,3.7,1.7,3.7,3.7
		C52.2,116.6,50.5,118.2,48.5,118.2"/>
	<path class="st1" d="M60.6,29.9c1,0,1.9,0.8,1.9,1.9c0,1-0.8,1.9-1.9,1.9c-1,0-1.9-0.8-1.9-1.9C58.7,30.7,59.5,29.9,60.6,29.9"/>
	<path class="st0" d="M128.4,71.7c1,0,1.9,0.8,1.9,1.9s-0.8,1.9-1.9,1.9c-1,0-1.9-0.8-1.9-1.9S127.4,71.7,128.4,71.7"/>
	<polygon class="st2" points="114.5,116.4 116.3,116.4 116.3,123.8 114.5,123.8 114.5,116.4 	"/>
	<polygon class="st2" points="111.7,119.1 119.1,119.1 119.1,121 111.7,121 111.7,119.1 	"/>
	<polygon class="st2" points="30.8,93.1 32.7,93.1 32.7,100.6 30.8,100.6 30.8,93.1 	"/>
	<polygon class="st2" points="28,95.9 35.5,95.9 35.5,97.8 28,97.8 28,95.9 	"/>
	<path class="st2" d="M95.8,45.9l2.6,4.8l2.1-3.7L95.8,45.9L95.8,45.9z M98.4,54.5l-6.2-11.4l11.2,2.8L98.4,54.5L98.4,54.5z"/>
	<path class="st2" d="M52.4,103l-3.1-2.9c-5.5-5.5-10.6-11.5-15.2-17.7C15.4,56.8,10.4,32.1,21.6,20.9l1.3,1.3
		c-10.5,10.5-5.4,34.2,12.7,59.1c4.6,6.2,9.6,12.1,15,17.5l3,2.8L52.4,103L52.4,103z"/>
	<path class="st2" d="M38.8,16.9c-0.3,0-0.6,0-1,0c-0.3,0-0.6,0-0.9,0l0-1.9c0.3,0,0.6,0,0.9,0c0.3,0,0.6,0,1,0L38.8,16.9L38.8,16.9
		z M42.5,17.2c-0.6-0.1-1.2-0.1-1.8-0.2l0.1-1.9c0.6,0,1.3,0.1,1.9,0.2L42.5,17.2L42.5,17.2z M33.4,17.2l-0.3-1.8
		c0.6-0.1,1.3-0.2,1.9-0.2l0.2,1.9C34.6,17.1,34,17.1,33.4,17.2L33.4,17.2z M46.1,17.8c-0.6-0.1-1.2-0.2-1.8-0.3l0.3-1.8
		c0.6,0.1,1.2,0.2,1.9,0.3L46.1,17.8L46.1,17.8z M30,18l-0.6-1.8c0.6-0.2,1.2-0.4,1.9-0.5l0.4,1.8C31.1,17.7,30.5,17.8,30,18L30,18z
		 M49.6,18.6c-0.6-0.2-1.2-0.3-1.8-0.4l0.4-1.8c0.6,0.1,1.2,0.3,1.8,0.5L49.6,18.6L49.6,18.6z M26.7,19.4l-0.9-1.6
		c0.6-0.3,1.2-0.6,1.8-0.8l0.7,1.7C27.8,18.9,27.2,19.1,26.7,19.4 M53.1,19.6c-0.6-0.2-1.2-0.4-1.7-0.5l0.5-1.8
		c0.6,0.2,1.2,0.4,1.8,0.6L53.1,19.6L53.1,19.6z M56.6,20.9c-0.6-0.2-1.2-0.4-1.7-0.6l0.6-1.8c0.6,0.2,1.2,0.4,1.8,0.7L56.6,20.9
		L56.6,20.9z M23.8,21.4L22.6,20c0.5-0.4,1-0.8,1.6-1.2l1,1.5C24.7,20.6,24.3,21,23.8,21.4 M60,22.3c-0.6-0.2-1.1-0.5-1.7-0.7
		l0.7-1.7c0.6,0.2,1.2,0.5,1.7,0.7L60,22.3L60,22.3z M63.3,23.8c-0.6-0.3-1.1-0.5-1.7-0.8l0.8-1.7c0.6,0.3,1.1,0.5,1.7,0.8
		L63.3,23.8L63.3,23.8z M66.6,25.5c-0.5-0.3-1.1-0.6-1.6-0.8l0.8-1.7c0.6,0.3,1.1,0.6,1.7,0.9L66.6,25.5L66.6,25.5z"/>
	<path class="st2" d="M111.8,134c-5.5-0.1-11-1.1-16.1-3c-14-4.7-29.4-14.7-43.3-28l1.3-1.3c20.2,19.3,42.4,30.5,58.2,30.5
		c6.2,0,11.5-1.7,15.1-5.4c13.4-13.4,1-47.8-27.7-76.6l1.3-1.3c29.4,29.5,41.9,65.1,27.7,79.2C124.3,132,118.7,134,111.8,134"/>
	<path class="st1" d="M30.8,50.4c-2.1,0-3.7-1.7-3.7-3.7c0-2.1,1.7-3.7,3.7-3.7c2.1,0,3.7,1.7,3.7,3.7
		C34.5,48.7,32.9,50.4,30.8,50.4"/>
	<path class="st3" d="M86.7,82.4v-5.7H83l-5.6-5.6v-7.5h12.9V55h-1.4L86,57.8l1.4,1.4L86,60.7l-1.4-1.4h-2.9l-2.9,2.9h-1.4v-8.6h7.2
		v-1.4h-5.7l2.6-2.6c-4.6-1.3-9.5-1.3-14.1,0.1v12.6l-5.7,4.3v5.7h10v20.1h-1.4l-10-10v-8.6h-4.3l-6-5c-2.7,13.6,6,26.8,19.6,29.6
		c9.8,2,19.8-2.1,25.6-10.3h-2.8L86.7,82.4L86.7,82.4z"/>
	<path class="st3" d="M96.1,76.7v9.7c1.2-2.1,2.1-4.3,2.7-6.6L96.1,76.7L96.1,76.7z"/>
	<path class="st1" d="M60.2,73.6v-1.4h1.4v-5.7l5.7-4.3V49.5c-8.9,2.7-15.6,10-17.4,19.1l6,5H60.2L60.2,73.6z"/>
	<polygon class="st1" points="60.2,73.6 60.2,82.2 70.2,92.2 71.6,92.2 71.6,72.2 61.6,72.2 61.6,73.6 60.2,73.6 	"/>
	<polygon class="st4" points="60.2,72.2 61.6,72.2 61.6,73.6 60.2,73.6 60.2,72.2 	"/>
	<path class="st1" d="M98.9,79.7c3.3-13.1-4.4-26.5-17.4-30.2l-2.6,2.6h5.7v1.4h-7.2v8.6h1.4l2.9-2.9h2.9l1.4,1.4l1.4-1.4L86,57.8
		l2.9-2.9h1.4v8.6H77.4v7.5l5.6,5.6h3.8v5.7l5.5,5.5h2.8c0.4-0.5,0.7-1.1,1-1.6v-9.7L98.9,79.7L98.9,79.7z"/>
	<path class="st2" d="M74.5,46.6c-14.9,0-27,12.1-27,27s12.1,27,27,27s27-12.1,27-27C101.4,58.7,89.4,46.7,74.5,46.6 M74.5,102.4
		c-15.9,0-28.8-12.9-28.8-28.8s12.9-28.8,28.8-28.8c15.9,0,28.8,12.9,28.8,28.8C103.3,89.5,90.4,102.4,74.5,102.4"/>
</g>
</svg>
