<?xml version="1.0" encoding="utf-8"?>
<!-- Generator: Adobe Illustrator 21.1.0, SVG Export Plug-In . SVG Version: 6.00 Build 0)  -->
<svg version="1.0" id="Layer_1" xmlns="http://www.w3.org/2000/svg" xmlns:xlink="http://www.w3.org/1999/xlink" x="0px" y="0px"
	 viewBox="0 0 260 230" style="enable-background:new 0 0 260 230;" xml:space="preserve">
<style type="text/css">
	.st0{fill:#65B940;}
	.st1{fill:#DEDEDD;}
	.st2{fill:#FFFFFF;}
	.st3{fill:#48515A;}
	.st4{fill:#475059;}
	.st5{fill:#98EA66;}
	.st6{fill:#80B7F9;}
</style>
<g>
	<g>
		<path class="st0" d="M155.7,72.4c-2.1,0-3.8-1.7-3.8-3.8v-1.9c0-2.1,1.7-3.8,3.8-3.8s3.8,1.7,3.8,3.8v1.9
			C159.5,70.7,157.8,72.4,155.7,72.4 M155.7,64.8c-1,0-1.9,0.9-1.9,1.9v1.9c0,1,0.9,1.9,1.9,1.9s1.9-0.9,1.9-1.9v-1.9
			C157.6,65.6,156.7,64.8,155.7,64.8"/>
		<path class="st0" d="M164.2,72.4c-0.5,0-1-0.4-1-1v-6.7h-1c-0.5,0-1-0.4-1-1c0-0.5,0.4-1,1-1h2.9v8.6
			C165.2,72,164.7,72.4,164.2,72.4"/>
		<path class="st0" d="M169.9,72.4c-0.5,0-1-0.4-1-1v-6.7h-1c-0.5,0-1-0.4-1-1c0-0.5,0.4-1,1-1h2.9v8.6
			C170.9,72,170.4,72.4,169.9,72.4"/>
		<path class="st0" d="M176.6,72.4c-2.1,0-3.8-1.7-3.8-3.8v-1.9c0-2.1,1.7-3.8,3.8-3.8s3.8,1.7,3.8,3.8v1.9
			C180.4,70.7,178.7,72.4,176.6,72.4 M176.6,64.8c-1,0-1.9,0.9-1.9,1.9v1.9c0,1,0.9,1.9,1.9,1.9s1.9-0.9,1.9-1.9v-1.9
			C178.5,65.6,177.6,64.8,176.6,64.8"/>
		<path class="st0" d="M161.4,84.8c-2.1,0-3.8-1.7-3.8-3.8v-1.9c0-2.1,1.7-3.8,3.8-3.8s3.8,1.7,3.8,3.8V81
			C165.2,83.1,163.5,84.8,161.4,84.8 M161.4,77.2c-1,0-1.9,0.9-1.9,1.9V81c0,1,0.9,1.9,1.9,1.9s1.9-0.9,1.9-1.9v-1.9
			C163.3,78,162.4,77.2,161.4,77.2"/>
		<path class="st0" d="M169.9,84.8c-0.5,0-1-0.4-1-1v-6.7h-1c-0.5,0-1-0.4-1-1c0-0.5,0.4-1,1-1h2.9v8.6
			C170.9,84.3,170.4,84.8,169.9,84.8"/>
		<path class="st0" d="M176.6,84.8c-2.1,0-3.8-1.7-3.8-3.8v-1.9c0-2.1,1.7-3.8,3.8-3.8s3.8,1.7,3.8,3.8V81
			C180.4,83.1,178.7,84.8,176.6,84.8 M176.6,77.2c-1,0-1.9,0.9-1.9,1.9V81c0,1,0.9,1.9,1.9,1.9s1.9-0.9,1.9-1.9v-1.9
			C178.5,78,177.6,77.2,176.6,77.2"/>
		<path class="st0" d="M154.7,84.8c-0.5,0-1-0.4-1-1v-6.7h-1c-0.5,0-1-0.4-1-1c0-0.5,0.4-1,1-1h2.9v8.6
			C155.7,84.3,155.2,84.8,154.7,84.8"/>
		<path class="st0" d="M161.4,97.1c-2.1,0-3.8-1.7-3.8-3.8v-1.9c0-2.1,1.7-3.8,3.8-3.8c2.1,0,3.8,1.7,3.8,3.8v1.9
			C165.2,95.4,163.5,97.1,161.4,97.1 M161.4,89.5c-1,0-1.9,0.9-1.9,1.9v1.9c0,1,0.9,1.9,1.9,1.9s1.9-0.9,1.9-1.9v-1.9
			C163.3,90.4,162.4,89.5,161.4,89.5"/>
		<path class="st0" d="M154.7,97.1c-0.5,0-1-0.4-1-1v-6.7h-1c-0.5,0-1-0.4-1-1s0.4-1,1-1h2.9v8.6C155.7,96.7,155.2,97.1,154.7,97.1"
			/>
		<path class="st0" d="M178.5,97.1c-0.5,0-1-0.4-1-1v-6.7h-1c-0.5,0-1-0.4-1-1s0.4-1,1-1h2.9v8.6C179.4,96.7,179,97.1,178.5,97.1"/>
		<path class="st0" d="M170.9,97.1c-2.1,0-3.8-1.7-3.8-3.8v-1.9c0-2.1,1.7-3.8,3.8-3.8s3.8,1.7,3.8,3.8v1.9
			C174.7,95.4,173,97.1,170.9,97.1 M170.9,89.5c-1,0-1.9,0.9-1.9,1.9v1.9c0,1,0.9,1.9,1.9,1.9s1.9-0.9,1.9-1.9v-1.9
			C172.8,90.4,171.9,89.5,170.9,89.5"/>
		<path class="st0" d="M165.2,109.5c-2.1,0-3.8-1.7-3.8-3.8v-1.9c0-2.1,1.7-3.8,3.8-3.8s3.8,1.7,3.8,3.8v1.9
			C169,107.8,167.3,109.5,165.2,109.5 M165.2,101.9c-1,0-1.9,0.9-1.9,1.9v1.9c0,1,0.9,1.9,1.9,1.9s1.9-0.9,1.9-1.9v-1.9
			C167.1,102.7,166.2,101.9,165.2,101.9"/>
		<path class="st0" d="M155.7,109.5c-2.1,0-3.8-1.7-3.8-3.8v-1.9c0-2.1,1.7-3.8,3.8-3.8s3.8,1.7,3.8,3.8v1.9
			C159.5,107.8,157.8,109.5,155.7,109.5 M155.7,101.9c-1,0-1.9,0.9-1.9,1.9v1.9c0,1,0.9,1.9,1.9,1.9s1.9-0.9,1.9-1.9v-1.9
			C157.6,102.7,156.7,101.9,155.7,101.9"/>
		<path class="st0" d="M172.8,109.5c-0.5,0-1-0.4-1-1v-6.7h-1c-0.5,0-1-0.4-1-1s0.4-1,1-1h2.9v8.6
			C173.7,109.1,173.3,109.5,172.8,109.5"/>
		<path class="st0" d="M178.5,109.5c-0.5,0-1-0.4-1-1v-6.7h-1c-0.5,0-1-0.4-1-1s0.4-1,1-1h2.9v8.6
			C179.4,109.1,179,109.5,178.5,109.5"/>
	</g>
	<g>
		<polygon class="st1" points="187.9,120.6 196.7,115.4 180.1,108.3 177.3,110 186,118.8 183,121.8 174.4,113.1 172.6,116.6 
			179.9,134.1 185,123.8 192.6,131.3 192.5,125.2 		"/>
		<polygon class="st2" points="175.9,109.6 184.7,104.3 168.1,97.2 165.2,97 158.2,94 158.1,94.8 160.8,101.9 160.6,105.6 
			167.9,123.1 173,112.7 180.5,120.3 180.5,114.1 		"/>
		<path class="st1" d="M102.1,51.5h88v-12h-88V51.5z M187.1,48.4h-58v-6h58V48.4z"/>
		<polygon class="st1" points="101.8,131.7 101.8,67 86,67 		"/>
		<polygon class="st1" points="190.1,131.7 190.1,67 205.8,67 		"/>
		<g>
			<path class="st1" d="M84.1,134.2v9.2c0,1.1,0.9,2,2,2h120c1.1,0,2-0.9,2-2v-9.1L84.1,134.2z"/>
			<rect x="132.1" y="145.6" class="st1" width="28.1" height="11.8"/>
			<rect x="108.1" y="177.5" class="st1" width="2" height="2"/>
			<rect x="92.1" y="177.5" class="st1" width="2" height="2"/>
			<rect x="100.1" y="177.5" class="st1" width="2" height="2"/>
			<rect x="116.1" y="177.5" class="st1" width="2" height="2"/>
			<rect x="108.1" y="193.5" class="st1" width="2" height="2"/>
			<rect x="96.1" y="185.5" class="st1" width="2" height="2"/>
			<rect x="80.1" y="201.5" class="st1" width="2" height="2"/>
			<rect x="132.1" y="177.5" class="st1" width="2" height="2"/>
			<rect x="88.1" y="201.5" class="st1" width="2" height="2"/>
			<rect x="80.1" y="193.5" class="st1" width="6" height="2"/>
			<rect x="80.1" y="185.5" class="st1" width="2" height="2"/>
			<rect x="80.1" y="177.5" class="st1" width="6" height="2"/>
			<rect x="112.1" y="185.5" class="st1" width="2" height="2"/>
			<rect x="128.1" y="185.5" class="st1" width="2" height="2"/>
			<rect x="124.1" y="193.5" class="st1" width="2" height="2"/>
			<rect x="104.1" y="185.5" class="st1" width="2" height="2"/>
			<rect x="120.1" y="185.5" class="st1" width="2" height="2"/>
			<rect x="116.1" y="193.5" class="st1" width="2" height="2"/>
			<rect x="88.1" y="185.5" class="st1" width="2" height="2"/>
			<rect x="100.1" y="193.5" class="st1" width="2" height="2"/>
			<rect x="144.1" y="185.5" class="st1" width="2" height="2"/>
			<rect x="140.1" y="193.5" class="st1" width="2" height="2"/>
			<rect x="136.1" y="185.5" class="st1" width="2" height="2"/>
			<rect x="132.1" y="193.5" class="st1" width="2" height="2"/>
			<rect x="140.1" y="177.5" class="st1" width="2" height="2"/>
			<rect x="124.1" y="177.5" class="st1" width="2" height="2"/>
			<rect x="156.1" y="177.5" class="st1" width="2" height="2"/>
			<rect x="164.1" y="193.5" class="st1" width="2" height="2"/>
			<rect x="164.1" y="201.5" class="st1" width="2" height="2"/>
			<rect x="152.1" y="185.5" class="st1" width="2" height="2"/>
			<rect x="156.1" y="201.5" class="st1" width="2" height="2"/>
			<rect x="172.1" y="201.5" class="st1" width="2" height="2"/>
			<rect x="96.1" y="201.5" class="st1" width="2" height="2"/>
			<rect x="172.1" y="177.5" class="st1" width="2" height="2"/>
			<rect x="160.1" y="185.5" class="st1" width="2" height="2"/>
			<path class="st1" d="M177.1,172.5h-100c-1.1,0-2,0.9-2,2v32c0,1.1,0.9,2,2,2h100c1.1,0,2-0.9,2-2v-32
				C179.1,173.3,178.2,172.5,177.1,172.5 M162.1,175.5h6v6h-6V175.5z M164.1,189.5h-6v-6h6V189.5z M154.1,175.5h6v6h-6V175.5z
				 M156.1,189.5h-6v-6h6V189.5z M146.1,175.5h6v6h-6V175.5z M90.1,191.5h6v6h-6V191.5z M86.1,183.5h6v6h-6V183.5z M94.1,183.5h6v6
				h-6V183.5z M98.1,191.5h6v6h-6V191.5z M102.1,183.5h6v6h-6V183.5z M106.1,191.5h6v6h-6V191.5z M110.1,183.5h6v6h-6V183.5z
				 M114.1,191.5h6v6h-6V191.5z M118.1,183.5h6v6h-6V183.5z M122.1,191.5h6v6h-6V191.5z M126.1,183.5h6v6h-6V183.5z M130.1,191.5h6
				v6h-6V191.5z M134.1,183.5h6v6h-6V183.5z M138.1,191.5h6v6h-6V191.5z M142.1,183.5h6v6h-6V183.5z M138.1,175.5h6v6h-6V175.5z
				 M130.1,175.5h6v6h-6V175.5z M122.1,175.5h6v6h-6V175.5z M114.1,175.5h6v6h-6V175.5z M106.1,175.5h6v6h-6V175.5z M98.1,175.5h6v6
				h-6V175.5z M90.1,175.5h6v6h-6V175.5z M78.1,175.5h10v6h-10V175.5z M78.1,183.5h6v6h-6V183.5z M78.1,191.5h10v6h-10V191.5z
				 M84.1,205.5h-6v-6h6V205.5z M92.1,205.5h-6v-6h6V205.5z M100.1,205.5h-6v-6h6V205.5z M108.1,205.5h-6v-6h6V205.5z M152.1,205.5
				h-42v-6h42V205.5z M152.1,197.5h-6v-6h6V197.5z M160.1,205.5h-6v-6h6V205.5z M160.1,197.5h-6v-6h6V197.5z M168.1,205.5h-6v-6h6
				V205.5z M168.1,197.5h-6v-6h6V197.5z M176.1,205.5h-6v-6h6V205.5z M176.1,197.5h-6v-6h6V197.5z M176.1,189.5h-10v-6h10V189.5z
				 M176.1,181.5h-6v-6h6V181.5z"/>
			<rect x="164.1" y="177.5" class="st1" width="2" height="2"/>
			<rect x="172.1" y="193.5" class="st1" width="2" height="2"/>
			<rect x="168.1" y="185.5" class="st1" width="6" height="2"/>
			<rect x="156.1" y="193.5" class="st1" width="2" height="2"/>
			<rect x="148.1" y="177.5" class="st1" width="2" height="2"/>
			<rect x="112.1" y="201.5" class="st1" width="38" height="2"/>
			<rect x="148.1" y="193.5" class="st1" width="2" height="2"/>
			<rect x="104.1" y="201.5" class="st1" width="2" height="2"/>
			<rect x="92.1" y="193.5" class="st1" width="2" height="2"/>
			<path class="st3" d="M177.1,209.4h-100c-1.7,0-3-1.3-3-3v-32c0-1.7,1.3-3,3-3h100c1.7,0,3,1.3,3,3v32
				C180.1,208.1,178.8,209.4,177.1,209.4 M77.1,173.4c-0.6,0-1,0.4-1,1v32c0,0.6,0.4,1,1,1h100c0.6,0,1-0.4,1-1v-32c0-0.6-0.4-1-1-1
				H77.1z"/>
			<path class="st4" d="M85.1,77.5h-2v-8.7c0-1.7,1.3-3,3-3h15.2v2H86.1c-0.6,0-1,0.4-1,1V77.5z"/>
			<path class="st4" d="M206.1,146.4h-120c-1.7,0-3-1.3-3-3v-34h2v34c0,0.6,0.4,1,1,1h120c0.6,0,1-0.4,1-1V68.7c0-0.6-0.4-1-1-1
				h-15.7v-2h15.7c1.7,0,3,1.3,3,3v74.7C209.1,145.1,207.8,146.4,206.1,146.4"/>
			<rect x="124.1" y="156.4" class="st4" width="44" height="2"/>
			<rect x="131.1" y="145.4" class="st4" width="2" height="12"/>
			<rect x="159.1" y="145.4" class="st4" width="2" height="12"/>
			<rect x="101.1" y="88.5" class="st4" width="2" height="46"/>
			<polygon class="st4" points="191.1,134.4 189.1,134.4 189.1,40.4 103.1,40.4 103.1,80.5 101.1,80.5 101.1,38.4 191.1,38.4 			"/>
			<path class="st4" d="M108.1,48.4c-1.7,0-3-1.3-3-3s1.3-3,3-3c1.7,0,3,1.3,3,3S109.8,48.4,108.1,48.4 M108.1,44.4
				c-0.6,0-1,0.4-1,1c0,0.6,0.4,1,1,1c0.6,0,1-0.4,1-1C109.1,44.9,108.7,44.4,108.1,44.4"/>
			<path class="st4" d="M116.1,48.4c-1.7,0-3-1.3-3-3s1.3-3,3-3c1.7,0,3,1.3,3,3S117.8,48.4,116.1,48.4 M116.1,44.4
				c-0.6,0-1,0.4-1,1c0,0.6,0.4,1,1,1c0.6,0,1-0.4,1-1C117.1,44.9,116.7,44.4,116.1,44.4"/>
			<path class="st4" d="M124.1,48.4c-1.7,0-3-1.3-3-3s1.3-3,3-3c1.7,0,3,1.3,3,3S125.8,48.4,124.1,48.4 M124.1,44.4
				c-0.6,0-1,0.4-1,1c0,0.6,0.4,1,1,1c0.6,0,1-0.4,1-1C125.1,44.9,124.7,44.4,124.1,44.4"/>
			
				<rect x="51.7" y="114.2" transform="matrix(0.7256 -0.6881 0.6881 0.7256 -78.4751 73.3106)" class="st4" width="2" height="41.7"/>
			<path class="st1" d="M45.2,156.9L45.2,156.9c0-5.4,4.4-9.8,9.8-9.8h16.5c5.4,0,9.8,4.4,9.8,9.8v0.1"/>
			<path class="st5" d="M95.4,90.7c4.4,4.4,4.4,11.4,0,15.8c-4.4,4.4-11.4,4.4-15.8,0"/>
			<rect x="41.5" y="156.5" class="st4" width="43.5" height="2"/>
			
				<rect x="33.4" y="100.9" transform="matrix(0.6636 -0.7481 0.7481 0.6636 -60.1638 70.0092)" class="st4" width="28.8" height="2"/>
			<path class="st0" d="M34.5,122.6c-3.4,0-6.2-2.8-6.2-6.2c0-3.4,2.8-6.2,6.2-6.2c3.4,0,6.2,2.8,6.2,6.2
				C40.8,119.8,38,122.6,34.5,122.6 M34.5,112.2c-2.3,0-4.2,1.9-4.2,4.2c0,2.3,1.9,4.2,4.2,4.2c2.3,0,4.2-1.9,4.2-4.2
				C38.8,114.1,36.9,112.2,34.5,112.2"/>
			<path class="st6" d="M72.9,113.1l-7.5-21.9l-7.3-7.3c-4.1-4.1-4.1-10.7,0-14.8c4.1-4.1,10.7-4.1,14.8,0l7.3,7.3l21.9,7.5
				L72.9,113.1z"/>
			<path class="st3" d="M59.3,92.9c-0.9,0-1.8-0.4-2.5-1.1c-1.4-1.4-1.4-3.7,0-5.1l2.3-2.3l1.4,1.4l-2.3,2.3c-0.6,0.6-0.6,1.6,0,2.3
				s1.6,0.6,2.3,0l2.3-2.3l1.4,1.4l-2.3,2.3C61.2,92.6,60.2,92.9,59.3,92.9"/>
			<path class="st3" d="M126.1,171.5h-2v-2c0-2.8,2.2-5,5-5h85c1.7,0,3-1.3,3-3c0-1.7-1.3-3-3-3h-32c-2.8,0-5-2.2-5-5v-8h2v8
				c0,1.7,1.3,3,3,3h32c2.8,0,5,2.2,5,5c0,2.8-2.2,5-5,5h-85c-1.7,0-3,1.3-3,3V171.5z"/>
			<path class="st5" d="M206.1,205.5h-12c-2.2,0-4-1.8-4-4v-22c0-2.2,1.8-4,4-4h12c2.2,0,4,1.8,4,4v22
				C210.1,203.7,208.3,205.5,206.1,205.5"/>
			<rect x="199.1" y="175.5" class="st3" width="2" height="8"/>
			<path class="st4" d="M72.5,114.9l-8-23.2l-7.1-7.1c-4.5-4.5-4.5-11.8,0-16.3c4.5-4.5,11.8-4.5,16.3,0l7.1,7.1l23.2,8L72.5,114.9z
				 M65.5,67c-2.4,0-4.9,0.9-6.7,2.8c-3.7,3.7-3.7,9.7,0,13.4l7.5,7.5l7.1,20.6l26.9-26.9l-20.6-7.1l-7.5-7.5
				C70.4,67.9,68,67,65.5,67"/>
			<path class="st3" d="M159.1,45.5c0-0.5,0.4-1,1-1c0.5,0,1,0.5,1,1s-0.5,1-1,1C159.6,46.5,159.1,46,159.1,45.5 M155.1,45.5
				c0-0.5,0.4-1,1-1c0.5,0,1,0.5,1,1s-0.5,1-1,1C155.6,46.5,155.1,46,155.1,45.5 M151.1,45.5c0-0.5,0.4-1,1-1c0.5,0,1,0.5,1,1
				s-0.5,1-1,1C151.6,46.5,151.1,46,151.1,45.5 M147.1,45.5c0-0.5,0.4-1,1-1c0.5,0,1,0.5,1,1s-0.5,1-1,1
				C147.6,46.5,147.1,46,147.1,45.5 M143.1,45.5c0-0.5,0.4-1,1-1c0.5,0,1,0.5,1,1s-0.5,1-1,1C143.6,46.5,143.1,46,143.1,45.5
				 M139.1,45.5c0-0.5,0.4-1,1-1c0.5,0,1,0.5,1,1s-0.5,1-1,1C139.6,46.5,139.1,46,139.1,45.5 M135.1,45.5c0-0.5,0.4-1,1-1
				c0.5,0,1,0.5,1,1s-0.5,1-1,1C135.6,46.5,135.1,46,135.1,45.5 M131.1,45.5c0-0.5,0.4-1,1-1c0.5,0,1,0.5,1,1s-0.5,1-1,1
				C131.6,46.5,131.1,46,131.1,45.5"/>
			<path class="st3" d="M169.1,126.1L154.2,90l34.1,14.6l-9.4,5.6l8.6,8.6l-4.5,4.5l-8.3-8.3L169.1,126.1z M158.2,94l11.1,26.9
				l4.8-9.6l8.9,8.9l1.5-1.5l-9-9l8.1-4.9L158.2,94z"/>
			<path class="st4" d="M137.7,130.5H62.1c-2.8,0-5-2.2-5-5s2.2-5,5-5h75.6l10.8,5L137.7,130.5z M62.1,122.5c-1.7,0-3,1.3-3,3
				c0,1.7,1.3,3,3,3h75.2l6.5-3l-6.5-3H62.1z"/>
			<rect x="67.7" y="121.9" class="st4" width="2" height="7.6"/>
			<rect x="68.7" y="124.4" class="st4" width="68" height="2"/>
			<rect x="185.6" y="22.5" class="st5" width="30.6" height="19"/>
			<path class="st5" d="M217.1,42.4h-32.6v-21h32.6V42.4z M186.6,40.4h28.6v-17h-28.6V40.4z"/>
			<path class="st3" d="M200.8,33.2c-0.2,0-0.4-0.1-0.5-0.2l-13.2-8.3c-0.5-0.3-0.6-0.9-0.3-1.4c0.3-0.5,0.9-0.6,1.4-0.3l12.7,8
				l11.9-7.6c0.5-0.3,1.1-0.2,1.4,0.3c0.3,0.5,0.2,1.1-0.3,1.4l-12.4,8C201.2,33.1,201,33.2,200.8,33.2"/>
			<path class="st3" d="M213.8,40c-0.3,0-0.6-0.1-0.8-0.4l-6.2-7.4c-0.4-0.4-0.3-1.1,0.1-1.4c0.4-0.4,1.1-0.3,1.4,0.1l6.2,7.4
				c0.4,0.4,0.3,1.1-0.1,1.4C214.2,39.9,214,40,213.8,40"/>
			<path class="st3" d="M187.9,40c-0.2,0-0.5-0.1-0.6-0.2c-0.4-0.4-0.5-1-0.1-1.4l6.2-7.4c0.4-0.4,1-0.5,1.4-0.1
				c0.4,0.4,0.5,1,0.1,1.4l-6.2,7.4C188.5,39.9,188.2,40,187.9,40"/>
			<rect x="201.1" y="46.4" class="st3" width="2" height="12"/>
			<path class="st3" d="M202.1,62.5c-0.1,0-0.1,0-0.2,0c-0.1,0-0.1,0-0.2-0.1c-0.1,0-0.1,0-0.2-0.1c0,0-0.1-0.1-0.1-0.1
				c-0.1-0.1-0.2-0.2-0.2-0.3c-0.1-0.1-0.1-0.3-0.1-0.4s0-0.3,0.1-0.4c0.1-0.1,0.1-0.2,0.2-0.3c0.4-0.4,1.1-0.4,1.4,0
				c0.2,0.2,0.3,0.4,0.3,0.7c0,0.1,0,0.3-0.1,0.4c-0.1,0.1-0.1,0.2-0.2,0.3C202.6,62.3,202.4,62.5,202.1,62.5"/>
			<rect x="207.1" y="46.4" class="st3" width="2" height="6"/>
			<path class="st3" d="M208.1,56.4c-0.3,0-0.5-0.1-0.7-0.3c-0.2-0.2-0.3-0.4-0.3-0.7c0-0.3,0.1-0.5,0.3-0.7
				c0.3-0.3,0.7-0.4,1.1-0.2c0.1,0,0.2,0.1,0.3,0.2c0.2,0.2,0.3,0.4,0.3,0.7c0,0.3-0.1,0.5-0.3,0.7c-0.1,0.1-0.2,0.2-0.3,0.2
				C208.4,56.4,208.2,56.4,208.1,56.4"/>
			<rect x="195.1" y="46.4" class="st3" width="2" height="8"/>
			<path class="st3" d="M196.1,58.5c-0.1,0-0.3,0-0.4-0.1c-0.1,0-0.2-0.1-0.3-0.2c-0.1-0.1-0.2-0.2-0.2-0.3c0-0.1-0.1-0.3-0.1-0.4
				c0-0.1,0-0.3,0.1-0.4c0.1-0.1,0.1-0.2,0.2-0.3c0.1-0.1,0.2-0.2,0.3-0.2c0.4-0.2,0.8-0.1,1.1,0.2c0.1,0.1,0.2,0.2,0.2,0.3
				c0.1,0.1,0.1,0.3,0.1,0.4c0,0.1,0,0.3-0.1,0.4c-0.1,0.1-0.1,0.2-0.2,0.3C196.6,58.3,196.4,58.5,196.1,58.5"/>
			<path class="st6" d="M104.9,161.5c0,2.2-1.8,4-4,4s-4-1.8-4-4s1.8-4,4-4S104.9,159.3,104.9,161.5"/>
			<path class="st6" d="M44.8,68.4c0,2.2-1.8,4-4,4s-4-1.8-4-4s1.8-4,4-4S44.8,66.2,44.8,68.4"/>
			<rect x="48.8" y="174.5" class="st3" width="2" height="4"/>
			<rect x="48.8" y="184.5" class="st3" width="2" height="4"/>
			<rect x="52.8" y="180.5" class="st3" width="4" height="2"/>
			<rect x="42.8" y="180.5" class="st3" width="4" height="2"/>
			<rect x="48.8" y="38.4" class="st3" width="2" height="4"/>
			<rect x="48.8" y="48.4" class="st3" width="2" height="4"/>
			<rect x="52.8" y="44.4" class="st3" width="4" height="2"/>
			<rect x="42.8" y="44.4" class="st3" width="4" height="2"/>
			<rect x="158.8" y="21.4" class="st3" width="2" height="4"/>
			<rect x="158.8" y="31.4" class="st3" width="2" height="4"/>
			<rect x="162.8" y="27.4" class="st3" width="4" height="2"/>
			<rect x="152.8" y="27.4" class="st3" width="4" height="2"/>
			<path class="st3" d="M206.1,206.5h-12c-2.8,0-5-2.2-5-5v-22c0-2.8,2.2-5,5-5h12c2.8,0,5,2.2,5,5v22
				C211.1,204.2,208.9,206.5,206.1,206.5 M194.1,176.5c-1.7,0-3,1.3-3,3v22c0,1.7,1.3,3,3,3h12c1.7,0,3-1.3,3-3v-22c0-1.7-1.3-3-3-3
				H194.1z"/>
			<path class="st0" d="M128.4,87.3c-1.2,0-2.5-0.5-3.4-1.4c-1.9-1.9-1.9-4.9,0-6.8s4.9-1.9,6.8,0c0.9,0.9,1.4,2.1,1.4,3.4
				c0,1.3-0.5,2.5-1.4,3.4C130.9,86.8,129.6,87.3,128.4,87.3 M128.4,79.6c-0.7,0-1.4,0.3-2,0.8c-1.1,1.1-1.1,2.9,0,4
				c1.1,1.1,2.9,1.1,4,0c0.5-0.5,0.8-1.2,0.8-2s-0.3-1.5-0.8-2C129.8,79.9,129.1,79.6,128.4,79.6"/>
			<path class="st3" d="M128.2,102.2l-0.5-3.5c-0.2-1-0.9-1.5-1.6-1.6c-0.7-0.1-1.5,0.1-2,1l-1.6,3.1l-5.9-3l1.6-3.1
				c0.5-0.9,0.1-1.7-0.3-2.2c-0.5-0.5-1.3-0.8-2.2-0.3l-3.1,1.6l-3-5.8l3.1-1.6c0.9-0.5,1.1-1.3,1-2c-0.1-0.7-0.6-1.4-1.6-1.6
				l-3.5-0.6l1-6.5l3.5,0.6c1,0.2,1.7-0.4,2-1c0.3-0.6,0.4-1.5-0.3-2.2l-2.5-2.5l4.7-4.7l2.5,2.5c0.7,0.7,1.6,0.6,2.2,0.3
				c0.6-0.3,1.2-1,1-2l-0.5-3.5l6.5-1l0.5,3.5c0.2,1,0.9,1.5,1.6,1.6c0.7,0.1,1.5-0.1,2-1l1.6-3.1l5.9,3l-1.6,3.1
				c-0.5,0.9-0.1,1.7,0.3,2.2c0.5,0.5,1.3,0.8,2.2,0.3l3.1-1.6l3,5.8l-3.1,1.6c-0.9,0.5-1.1,1.3-1,2s0.6,1.4,1.6,1.6l3.5,0.6l-1,6.5
				l-3.5-0.6c-1-0.2-1.7,0.4-2,1c-0.3,0.6-0.4,1.5,0.3,2.2l2.5,2.5l-4.7,4.7l-2.5-2.5c-0.7-0.7-1.6-0.6-2.2-0.3c-0.6,0.3-1.2,1-1,2
				l0.5,3.5L128.2,102.2z M125.7,95.1c0.2,0,0.4,0,0.6,0.1c1.7,0.3,3,1.5,3.2,3.2l0.2,1.5l2.6-0.4l-0.2-1.5
				c-0.3-1.7,0.5-3.3,2.1-4.1c1.5-0.8,3.3-0.5,4.5,0.7l1.1,1.1l1.8-1.8l-1.1-1.1c-1.2-1.2-1.5-3-0.7-4.5c0.8-1.5,2.4-2.3,4.1-2.1
				l1.5,0.2l0.4-2.6l-1.5-0.2c-1.7-0.3-3-1.5-3.2-3.2c-0.3-1.7,0.5-3.3,2.1-4.1l1.4-0.7l-1.1-2.3l-1.4,0.7c-1.5,0.8-3.3,0.5-4.5-0.7
				c-1.2-1.2-1.5-3-0.7-4.5l0.7-1.4l-2.3-1.2l-0.7,1.4c-0.8,1.5-2.4,2.3-4.1,2.1c-1.7-0.3-3-1.5-3.2-3.2L127,65l-2.6,0.4l0.2,1.5
				c0.3,1.7-0.5,3.3-2.1,4.1c-1.5,0.8-3.3,0.5-4.5-0.7l-1.1-1.1l-1.8,1.8l1.1,1.1c1.2,1.2,1.5,3,0.7,4.5c-0.8,1.5-2.4,2.3-4.1,2.1
				l-1.5-0.2L111,81l1.5,0.2c1.7,0.3,3,1.5,3.2,3.2c0.3,1.7-0.5,3.3-2.1,4.1l-1.4,0.7l1.1,2.3l1.4-0.7c1.5-0.8,3.3-0.5,4.5,0.7
				c1.2,1.2,1.5,3,0.7,4.5l-0.7,1.4l2.3,1.2l0.7-1.4C123,95.9,124.3,95.1,125.7,95.1"/>
			<path class="st3" d="M128.5,93.2c0-0.6,0.3-1,0.9-1.1c0.6,0,1,0.4,1.1,0.9c0.1,0.6-0.3,1.1-0.9,1.1c0,0-0.1,0-0.1,0
				C129,94.1,128.6,93.7,128.5,93.2 M125.3,93.7c-0.5-0.2-0.8-0.7-0.7-1.2s0.7-0.8,1.2-0.7c0.5,0.1,0.8,0.7,0.7,1.2
				c-0.1,0.4-0.5,0.7-1,0.7C125.5,93.7,125.4,93.7,125.3,93.7 M132.4,92.4c-0.3-0.5-0.1-1.1,0.4-1.3c0.5-0.3,1.1-0.1,1.3,0.4
				c0.3,0.5,0.1,1.1-0.4,1.3c-0.1,0.1-0.3,0.1-0.5,0.1C133,92.9,132.6,92.7,132.4,92.4 M121.4,91.8c-0.4-0.3-0.5-1-0.2-1.4
				c0.3-0.4,1-0.5,1.4-0.2c0.4,0.3,0.5,1,0.2,1.4c-0.2,0.3-0.5,0.4-0.8,0.4C121.8,92,121.6,91.9,121.4,91.8 M135.8,90.2
				c-0.4-0.4-0.5-1-0.1-1.4c0.4-0.4,1-0.5,1.4-0.1c0.4,0.4,0.4,1,0.1,1.4c-0.2,0.2-0.5,0.3-0.8,0.3C136.2,90.4,136,90.4,135.8,90.2
				 M118.5,88.5c-0.3-0.5-0.1-1.1,0.3-1.4s1.1-0.1,1.4,0.3c0.3,0.5,0.1,1.1-0.3,1.4c-0.2,0.1-0.3,0.1-0.5,0.1
				C119,89,118.7,88.8,118.5,88.5 M138.1,87c-0.5-0.2-0.8-0.8-0.6-1.3c0.2-0.5,0.8-0.8,1.3-0.6s0.8,0.8,0.6,1.3
				c-0.1,0.4-0.5,0.7-0.9,0.7C138.3,87,138.2,87,138.1,87 M116.9,84.5c-0.1-0.5,0.3-1.1,0.8-1.2c0.5-0.1,1.1,0.3,1.2,0.8
				c0.1,0.5-0.3,1.1-0.8,1.2c-0.1,0-0.1,0-0.2,0C117.4,85.3,117,85,116.9,84.5 M138.1,82.1L138.1,82.1c0-0.6,0.4-1,1-1
				c0.6,0,1,0.4,1,1c0,0.6-0.4,1-1,1h0C138.5,83.1,138.1,82.7,138.1,82.1 M117.8,81.3c-0.5-0.1-0.9-0.6-0.8-1.2
				c0.1-0.5,0.6-0.9,1.2-0.8c0.5,0.1,0.9,0.6,0.8,1.2c-0.1,0.5-0.5,0.8-1,0.8C117.9,81.3,117.8,81.3,117.8,81.3 M137.3,78.6
				L137.3,78.6c-0.2-0.5,0-1.1,0.5-1.3c0.5-0.2,1.1,0,1.3,0.5c0.2,0.5,0,1.1-0.5,1.3c-0.1,0.1-0.3,0.1-0.4,0.1
				C137.8,79.2,137.4,79,137.3,78.6 M118.9,77.5c-0.5-0.3-0.6-0.9-0.3-1.4c0.3-0.5,0.9-0.6,1.4-0.3c0.5,0.3,0.6,0.9,0.3,1.4
				c-0.2,0.3-0.5,0.5-0.8,0.5C119.3,77.6,119.1,77.6,118.9,77.5 M135.2,75.6c-0.4-0.4-0.4-1,0-1.4s1-0.4,1.4,0s0.4,1,0,1.4
				c-0.2,0.2-0.4,0.3-0.7,0.3C135.7,75.9,135.4,75.8,135.2,75.6 M121.4,74.4c-0.3-0.4-0.2-1.1,0.2-1.4s1.1-0.2,1.4,0.2
				c0.3,0.5,0.2,1.1-0.2,1.4c-0.2,0.1-0.4,0.2-0.6,0.2C121.9,74.8,121.6,74.6,121.4,74.4 M133.1,74c-0.5-0.3-0.6-0.9-0.4-1.4
				c0.3-0.5,0.9-0.7,1.4-0.4c0.5,0.3,0.7,0.9,0.4,1.4c-0.2,0.3-0.5,0.5-0.9,0.5C133.4,74.1,133.3,74.1,133.1,74 M124.9,72.4
				c-0.1-0.5,0.2-1.1,0.7-1.2h0c0.5-0.1,1.1,0.2,1.2,0.7c0.1,0.5-0.2,1.1-0.7,1.2c-0.1,0-0.2,0-0.2,0
				C125.4,73.1,125,72.8,124.9,72.4 M129.7,72.9L129.7,72.9c-0.6-0.1-0.9-0.6-0.9-1.1c0.1-0.5,0.6-0.9,1.1-0.9
				c0.5,0.1,0.9,0.6,0.9,1.1c-0.1,0.5-0.5,0.9-1,0.9C129.8,72.9,129.7,72.9,129.7,72.9"/>
			<path class="st0" d="M85.1,61.5c-12.1,0-22-9.9-22-22s9.9-22,22-22s22,9.9,22,22S97.3,61.5,85.1,61.5 M85.1,19.5
				c-11,0-20,9-20,20s9,20,20,20s20-9,20-20S96.2,19.5,85.1,19.5"/>
			<polygon class="st3" points="86.1,50.1 84.1,50.1 84.1,37.7 92.9,37.7 92.9,39.7 86.1,39.7 			"/>
			<path class="st3" d="M70.7,40.5h-3.1c-0.6,0-1-0.4-1-1c0-0.6,0.4-1,1-1h3.1c0.6,0,1,0.4,1,1C71.7,40,71.3,40.5,70.7,40.5"/>
			<path class="st3" d="M70.7,40.5h-3.1c-0.6,0-1-0.4-1-1c0-0.6,0.4-1,1-1h3.1c0.6,0,1,0.4,1,1C71.7,40,71.3,40.5,70.7,40.5"/>
			<path class="st3" d="M76.2,55.8c-0.2,0-0.3,0-0.5-0.1c-0.5-0.3-0.6-0.9-0.4-1.4l1.6-2.7c0.3-0.5,0.9-0.6,1.4-0.4
				c0.5,0.3,0.6,0.9,0.4,1.4l-1.6,2.7C76.9,55.6,76.6,55.8,76.2,55.8"/>
			<path class="st3" d="M72.7,33.1c-0.2,0-0.3,0-0.5-0.1l-2.7-1.6c-0.5-0.3-0.6-0.9-0.4-1.4c0.3-0.5,0.9-0.6,1.4-0.4l2.7,1.6
				c0.5,0.3,0.6,0.9,0.4,1.4C73.4,32.9,73.1,33.1,72.7,33.1"/>
			<path class="st3" d="M69.7,49c-0.3,0-0.7-0.2-0.9-0.5c-0.3-0.5-0.1-1.1,0.4-1.4l2.7-1.6c0.5-0.3,1.1-0.1,1.4,0.4
				c0.3,0.5,0.1,1.1-0.4,1.4l-2.7,1.6C70.1,49,69.9,49,69.7,49"/>
			<path class="st3" d="M78,27.6c-0.3,0-0.7-0.2-0.9-0.5l-1.6-2.7c-0.3-0.5-0.1-1.1,0.4-1.4c0.5-0.3,1.1-0.1,1.4,0.4l1.6,2.7
				c0.3,0.5,0.1,1.1-0.4,1.4C78.4,27.6,78.2,27.6,78,27.6"/>
			<path class="st3" d="M102.5,40.5h-3.1c-0.6,0-1-0.4-1-1c0-0.6,0.4-1,1-1h3.1c0.6,0,1,0.4,1,1C103.5,40,103.1,40.5,102.5,40.5"/>
			<path class="st3" d="M85,25.7c-0.6,0-1-0.4-1-1v-3.1c0-0.6,0.4-1,1-1s1,0.4,1,1v3.1C86,25.2,85.6,25.7,85,25.7"/>
			<path class="st3" d="M85,58.3c-0.6,0-1-0.4-1-1v-3.1c0-0.6,0.4-1,1-1s1,0.4,1,1v3.1C86,57.9,85.6,58.3,85,58.3"/>
			<path class="st3" d="M102.5,40.5h-3.1c-0.6,0-1-0.4-1-1c0-0.6,0.4-1,1-1h3.1c0.6,0,1,0.4,1,1C103.5,40,103.1,40.5,102.5,40.5"/>
			<path class="st3" d="M93.9,55.8c-0.3,0-0.7-0.2-0.9-0.5l-1.6-2.7c-0.3-0.5-0.1-1.1,0.4-1.4c0.5-0.3,1.1-0.1,1.4,0.4l1.6,2.7
				c0.3,0.5,0.1,1.1-0.4,1.4C94.3,55.7,94.1,55.8,93.9,55.8"/>
			<path class="st3" d="M97.4,33.1c-0.3,0-0.7-0.2-0.9-0.5c-0.3-0.5-0.1-1.1,0.4-1.4l2.7-1.6c0.5-0.3,1.1-0.1,1.4,0.4
				c0.3,0.5,0.1,1.1-0.4,1.4l-2.7,1.6C97.8,33,97.6,33.1,97.4,33.1"/>
			<path class="st3" d="M100.4,49c-0.2,0-0.3,0-0.5-0.1l-2.7-1.6c-0.5-0.3-0.6-0.9-0.4-1.4c0.3-0.5,0.9-0.6,1.4-0.4l2.7,1.6
				c0.5,0.3,0.6,0.9,0.4,1.4C101.1,48.9,100.8,49,100.4,49"/>
			<path class="st3" d="M92.1,27.6c-0.2,0-0.3,0-0.5-0.1c-0.5-0.3-0.6-0.9-0.4-1.4l1.6-2.7c0.3-0.5,0.9-0.6,1.4-0.4
				c0.5,0.3,0.6,0.9,0.4,1.4L93,27.1C92.8,27.4,92.5,27.6,92.1,27.6"/>
		</g>
	</g>
</g>
</svg>
