<?xml version="1.0" encoding="utf-8"?>
<!-- Generator: Adobe Illustrator 21.1.0, SVG Export Plug-In . SVG Version: 6.00 Build 0)  -->
<svg version="1.0" id="Layer_1" xmlns="http://www.w3.org/2000/svg" xmlns:xlink="http://www.w3.org/1999/xlink" x="0px" y="0px"
	 viewBox="0 0 260 230" style="enable-background:new 0 0 260 230;" xml:space="preserve">
<style type="text/css">
	.st0{fill:#DFE0E0;}
	.st1{fill:#48515A;}
	.st2{fill:#DEDEDD;}
	.st3{fill:#98EA66;}
	.st4{fill:#475059;}
	.st5{fill:#65B940;}
	.st6{fill:#80B7F9;}
	.st7{fill:#FFFFFF;}
</style>
<g>
	<g>
		<polyline class="st0" points="152.1,153 152.1,128.8 144.1,128.8 144.1,153 		"/>
		<rect x="143.1" y="129.1" class="st1" width="2" height="23.8"/>
		<rect x="151.1" y="129.1" class="st1" width="2" height="23.8"/>
		<polygon class="st1" points="158.1,130 138.1,130 138.1,123.4 140.1,123.4 140.1,128 156.1,128 156.1,123.4 158.1,123.4 		"/>
		<g>
			<path class="st2" d="M103,40c-15.3,0-27.8,12.5-27.8,27.8V124h98.8v-1h-7.8V67.8c0-14.8,12-26.8,26.8-26.8c0.3,0,0.7,0,1,0v-1
				H103z M141.1,85c-2.2,0-4-1.8-4-4c0-2.2,1.8-4,4-4s4,1.8,4,4C145.1,83.2,143.3,85,141.1,85"/>
			<polygon class="st3" points="170.1,67.1 170.1,70.1 205.4,91.5 245,67 			"/>
			<path class="st3" d="M205.3,92.1L170.1,70v46.1h14.9l-0.1-1.6l5,1.6h56.4V65.9L205.3,92.1z M233.7,113h-21.6v-6h21.6V113z"/>
			<path class="st1" d="M144.1,218c-0.1,0-0.3,0-0.4-0.1c-0.1-0.1-0.2-0.1-0.3-0.2c-0.1-0.1-0.2-0.2-0.2-0.3
				c-0.1-0.1-0.1-0.3-0.1-0.4c0-0.3,0.1-0.5,0.3-0.7c0.4-0.4,1-0.4,1.4,0c0.2,0.2,0.3,0.4,0.3,0.7c0,0.1,0,0.3-0.1,0.4
				c-0.1,0.1-0.1,0.2-0.2,0.3c-0.1,0.1-0.2,0.2-0.3,0.2C144.4,218,144.3,218,144.1,218"/>
			<path class="st1" d="M152.1,218c-0.3,0-0.5-0.1-0.7-0.3c-0.1-0.1-0.2-0.2-0.2-0.3c0-0.1-0.1-0.3-0.1-0.4c0-0.3,0.1-0.5,0.3-0.7
				c0,0,0.1-0.1,0.1-0.1c0.1,0,0.1-0.1,0.2-0.1c0.1,0,0.1-0.1,0.2-0.1c0.2,0,0.4,0,0.6,0.1c0.1,0.1,0.2,0.1,0.3,0.2
				c0.2,0.2,0.3,0.4,0.3,0.7c0,0.1,0,0.3-0.1,0.4s-0.1,0.2-0.2,0.3c-0.1,0.1-0.2,0.2-0.3,0.2C152.4,218,152.3,218,152.1,218"/>
			<rect x="143.1" y="152" class="st1" width="2" height="62"/>
			<rect x="151.1" y="152" class="st1" width="2" height="62"/>
			<path class="st1" d="M187.4,122h-20.2V67.8c0-14.2,11.6-25.8,25.8-25.8c12.9,0,23.9,9.7,25.6,22.5l2-0.3
				C218.8,50.4,206.9,40,193,40c-15.3,0-27.8,12.5-27.8,27.8V124h23.1L187.4,122z"/>
			<polygon class="st1" points="218.8,118.9 218.8,122 204.2,122 208.8,124 220.8,124 220.8,118.9 			"/>
			<path class="st1" d="M204.2,122l4.7,2h10v54.2c0,14.2-11.6,25.8-25.8,25.8c-14.2,0-25.8-11.6-25.8-25.8V124h21.1l-0.8-2h-22.2
				v56.2c0,15.3,12.5,27.8,27.8,27.8c15.3,0,27.8-12.5,27.8-27.8V122H204.2z"/>
			<polygon class="st1" points="185.7,118 166.1,118 166.1,120 186.5,120 			"/>
			<polygon class="st1" points="194.8,118 199.5,120 220.1,120 220.1,118 			"/>
			<path class="st0" d="M171.1,117.8V64h44.3c-1.8-10.8-11.2-19-22.5-19c-12.6,0-22.8,10.2-22.8,22.8V119L171.1,117.8z"/>
			<polygon class="st1" points="250.5,85.2 248.5,85.2 248.5,65.2 170.2,65.2 170.2,63.2 250.5,63.2 			"/>
			<polygon class="st1" points="205.3,93.3 169.7,70.8 170.8,69.1 205.3,90.9 249,63.3 250,65 			"/>
			<path class="st1" d="M244.5,115c-0.3,0-0.6-0.1-0.8-0.4l-23-27.6c-0.4-0.4-0.3-1.1,0.1-1.4c0.4-0.4,1.1-0.3,1.4,0.1l23,27.6
				c0.4,0.4,0.3,1.1-0.1,1.4C244.9,114.9,244.7,115,244.5,115"/>
			<path class="st1" d="M249.6,88.6c-0.1,0-0.3,0-0.4-0.1c-0.1-0.1-0.2-0.1-0.3-0.2c-0.1-0.1-0.2-0.2-0.2-0.3
				c-0.1-0.1-0.1-0.3-0.1-0.4c0-0.1,0-0.3,0.1-0.4c0-0.1,0.1-0.2,0.2-0.3c0.4-0.4,1-0.4,1.4,0c0.1,0.1,0.2,0.2,0.2,0.3
				c0.1,0.1,0.1,0.3,0.1,0.4c0,0.1,0,0.3-0.1,0.4c-0.1,0.1-0.1,0.2-0.2,0.3C250.1,88.5,249.8,88.6,249.6,88.6"/>
			<rect x="214.8" y="109" class="st4" width="11.8" height="2"/>
			<path class="st1" d="M170.5,109.7c-0.2,0-0.5-0.1-0.6-0.2c-0.4-0.4-0.5-1-0.1-1.4l18.6-22.3c0.4-0.4,1-0.5,1.4-0.1
				c0.4,0.4,0.5,1,0.1,1.4l-18.6,22.3C171.1,109.5,170.8,109.7,170.5,109.7"/>
			<polygon class="st1" points="185.7,118 170.2,118 170.2,120 186.5,120 			"/>
			<polygon class="st1" points="248.5,90.2 248.5,118 194.8,118 199.4,120 250.5,120 250.5,90.2 			"/>
			<path class="st1" d="M171.1,119h-2V67.8c0-13.1,10.7-23.8,23.8-23.8v2c-12,0-21.8,9.8-21.8,21.8V119z"/>
			<polygon class="st0" points="208.7,141.1 203.3,135.7 200.2,134.3 196,142.9 190.8,130.3 183.7,127.3 196,156.9 200.8,147.2 
				208.9,155.3 211.7,152.5 203.5,144.2 			"/>
			<path class="st1" d="M195.9,145.3l-14-33.9l32.1,13.7l-8.8,5.3l8,8l-4.2,4.2l-7.8-7.8L195.9,145.3z M185.6,115.2l10.5,25.3l4.5-9
				l8.4,8.4l1.4-1.4l-8.4-8.4l7.7-4.6L185.6,115.2z"/>
			<rect x="120.1" y="13" class="st5" width="22" height="12"/>
			<rect x="140.1" y="13" class="st1" width="2" height="63.8"/>
			<path class="st1" d="M141.1,86c-2.8,0-5-2.2-5-5c0-2.8,2.2-5,5-5c2.8,0,5,2.2,5,5C146.1,83.8,143.9,86,141.1,86 M141.1,78
				c-1.7,0-3,1.3-3,3s1.3,3,3,3c1.7,0,3-1.3,3-3S142.8,78,141.1,78"/>
			<rect x="81.1" y="27" class="st1" width="2" height="4"/>
			<rect x="81.1" y="37" class="st1" width="2" height="4"/>
			<rect x="85.1" y="33" class="st1" width="4" height="2"/>
			<rect x="75.1" y="33" class="st1" width="4" height="2"/>
			<path class="st3" d="M229.7,134.3c0-1.5,1.2-2.7,2.7-2.7c1.5,0,2.7,1.2,2.7,2.7c0,1.5-1.2,2.7-2.7,2.7
				C230.9,137,229.7,135.8,229.7,134.3"/>
			<path class="st3" d="M245.1,53c0-1.1,0.9-2,2-2s2,0.9,2,2s-0.9,2-2,2S245.1,54.1,245.1,53"/>
			<path class="st1" d="M196.1,46c-0.3,0-0.5-0.1-0.7-0.3c-0.2-0.2-0.3-0.4-0.3-0.7c0-0.3,0.1-0.5,0.3-0.7l0.1-0.1
				c0.1,0,0.1-0.1,0.2-0.1c0.1,0,0.1-0.1,0.2-0.1c0.1,0,0.3,0,0.4,0c0.1,0,0.1,0,0.2,0.1c0.1,0,0.1,0,0.2,0.1c0,0,0.1,0.1,0.2,0.1
				c0.1,0.1,0.2,0.2,0.2,0.3c0.1,0.1,0.1,0.3,0.1,0.4c0,0.3-0.1,0.5-0.3,0.7c-0.1,0.1-0.2,0.2-0.3,0.2C196.4,46,196.3,46,196.1,46"
				/>
		</g>
	</g>
</g>
<g>
	<g>
		<path class="st6" d="M109,167.2c0,2.2-1.8,4-4,4h-7.9c-2.2,0-4-1.8-4-4v-33.8c0-2.2,1.8-4,4-4h7.9c2.2,0,4,1.8,4,4V167.2
			L109,167.2z M92.4,162.7H35.8v-3.4h56.5V162.7L92.4,162.7z M133.2,159.9L133.2,159.9l-17.6,0c-2.2,0-4,1.8-4,4h-1.7
			c0-3.2,2.6-5.7,5.7-5.7h14.9v-0.9c0-1.4-1.1-2.5-2.5-2.5h-9v0h-0.9c-1.1,0-2-0.9-2-2v-21.3c0-1.1,0.9-2,2-2h3.2l-0.3-4.5
			c-0.2-2.9-2.6-5.1-5.4-5.1l-74.5-0.1h0c-3,0-5.5,2.4-5.5,5.5v8.2h3.8c0.9,0,1.7,0.8,1.7,1.7V152c0,0.9-0.8,1.7-1.7,1.7h-3.8v21
			l3.8,0c1.4-5,6.6-7.9,11.6-6.5c3.1,0.9,5.6,3.3,6.5,6.4l4.2,0c1.5-5,6.7-7.8,11.7-6.4c3,0.9,5.4,3.2,6.3,6.2l36-0.2
			c1.7-4.9,7-7.6,11.9-5.9c2.7,0.9,4.9,3.1,5.9,5.8l4.8,0v-8.8C138.6,162.3,136.2,159.9,133.2,159.9"/>
		<path class="st6" d="M97.2,128.6h7.9c2.7,0,4.9,2.2,4.9,4.9v27.2c1.2-2.1,3.4-3.4,5.7-3.4l14.1,0c0-0.9-0.7-1.6-1.6-1.6l-9.9,0
			c-1.6,0-2.9-1.3-2.9-2.9v-21.3c0-1.6,1.3-2.9,2.9-2.9h2.3l-0.2-3.6c-0.2-2.4-2.2-4.3-4.6-4.3l-74.5-0.1c-2.5,0-4.6,2.1-4.6,4.6v0
			v7.4h3c1.4,0,2.6,1.2,2.6,2.6V152c0,1.4-1.2,2.6-2.6,2.6h-3v3.8h55.7v-24.9C92.3,130.8,94.5,128.6,97.2,128.6 M36.7,161.8h54.8
			v-1.7H36.7V161.8L36.7,161.8z M97.2,130.3c-1.7,0-3.2,1.4-3.2,3.2v33.8c0,1.7,1.4,3.2,3.2,3.2h7.9c1.7,0,3.2-1.4,3.2-3.2v-33.8
			c0-1.7-1.4-3.2-3.2-3.2H97.2L97.2,130.3z M36.6,163.5v10.3l2.4,0c1.9-5.4,7.7-8.2,13.1-6.3c2.9,1,5.2,3.3,6.3,6.2l3,0
			c1.5-4,5.3-6.7,9.6-6.7c4.3,0,8.1,2.6,9.6,6.6l34.8-0.2c2.1-5.3,8.1-7.8,13.4-5.7c2.5,1,4.5,3,5.6,5.5l3.4,0v-7.9
			c0-2.4-1.9-4.4-4.3-4.6h-17.8c-1.8,0-3.2,1.4-3.2,3.2v0.9h-2.6v2.5c0,2.7-2.2,4.9-4.9,4.9h-7.9c-2.7,0-4.9-2.2-4.9-4.9v-3.7H36.6
			L36.6,163.5z M34.9,175.6v-22.7h4.7c0.5,0,0.9-0.4,0.9-0.9v-16.8c0-0.5-0.4-0.9-0.9-0.9h-4.7v-9.1c0-3.5,2.8-6.3,6.3-6.3h0
			l74.5,0.1c3.3,0,6.1,2.6,6.3,5.9l0.3,5.4h-4.2c-0.6,0-1.1,0.5-1.2,1.2v21.3c0,0.6,0.5,1.2,1.2,1.2l9.9,0c1.8,0,3.3,1.5,3.3,3.3
			v1.7h-15.8c-2.4,0-4.4,1.7-4.8,4c0.4-2.3,2.4-4,4.8-4l17.6,0c3.5,0,6.2,2.9,6.3,6.3v9.6l-6.3,0l-0.2-0.6
			c-1.6-4.5-6.4-6.8-10.9-5.2c-2.5,0.9-4.4,2.8-5.3,5.3l-0.2,0.6l-37.3,0.2l-0.2-0.6c-1.1-3.6-4.4-6-8.2-6c-3.8,0-7.1,2.5-8.2,6.1
			l-0.2,0.6l-5.5,0l-0.2-0.6c-1.3-4.5-6.1-7.1-10.6-5.8c-2.8,0.8-5,3.1-5.8,5.9l-0.2,0.6L34.9,175.6L34.9,175.6z"/>
		<polygon class="st1" points="133.7,169.3 141.2,169.3 141.2,171.1 133.7,171.1 133.7,169.3 		"/>
		<path class="st1" d="M126,153.1h-6.9c-1.6,0-2.9-1.3-2.9-2.9v-18.7c0-1.6,1.3-2.9,2.9-2.9h4.9v1.7h-4.9c-0.6,0-1.2,0.5-1.2,1.2
			v18.7c0,0.6,0.5,1.2,1.2,1.2h6.9V153.1L126,153.1z"/>
		<path class="st1" d="M97.2,130.3c-1.7,0-3.2,1.4-3.2,3.2v33.8c0,1.7,1.4,3.2,3.2,3.2h7.9c1.7,0,3.2-1.4,3.2-3.2v-33.8
			c0-1.7-1.4-3.2-3.2-3.2H97.2L97.2,130.3z M105,172.1h-7.9c-2.7,0-4.9-2.2-4.9-4.9v-33.8c0-2.7,2.2-4.9,4.9-4.9h7.9
			c2.7,0,4.9,2.2,4.9,4.9v33.8C109.9,169.9,107.7,172.1,105,172.1"/>
		<path class="st1" d="M39.6,154.6h-7.2v-1.7h7.2c0.5,0,0.9-0.4,0.9-0.9v-16.8c0-0.5-0.4-0.9-0.9-0.9h-6.4v-1.7h6.4
			c1.4,0,2.6,1.2,2.6,2.6V152C42.2,153.4,41,154.6,39.6,154.6"/>
		<path class="st1" d="M108.2,163.9c0-4.1,3.3-7.5,7.5-7.5h17.6v1.7h-17.6c-3.2,0-5.7,2.6-5.7,5.7L108.2,163.9L108.2,163.9z"/>
		<polygon class="st1" points="108.2,163.9 109.9,163.9 109.9,177.3 108.2,177.3 108.2,163.9 		"/>
		<polygon class="st1" points="100.3,129.7 102,129.7 102,171 100.3,171 100.3,129.7 		"/>
		<path class="st1" d="M135.1,176.4h5.2v-11.1c0-4-3.2-7.2-7.2-7.2h-0.9v-0.9c0-2.3-1.9-4.2-4.2-4.2h-2.9l-2.3-28.2
			c-0.3-3.8-3.4-6.7-7.1-6.7l-74.5-0.1h0c-4,0-7.2,3.2-7.2,7.2v51.1h4.4c0.4-5.7,5.4-9.9,11-9.4c5,0.4,9.1,4.4,9.4,9.4h1.8
			c0.4-5.7,5.4-9.9,11-9.4c5,0.4,9.1,4.4,9.4,9.4h33.5c0.4-5.7,5.4-9.9,11-9.4C130.7,167.4,134.8,171.4,135.1,176.4 M142,178.2h-8.6
			l0-0.9c0-4.7-3.8-8.6-8.5-8.6c-4.7,0-8.6,3.8-8.6,8.5v0v0.9l-0.9,0.1h-36l0-0.9c0-4.7-3.8-8.6-8.5-8.6c-4.7,0-8.6,3.8-8.6,8.5v0
			v0.9l-0.9,0.1h-4.3l0-0.9c0-4.7-3.8-8.6-8.5-8.6c-4.7,0-8.6,3.8-8.6,8.5v0v0.9l-0.9,0.1h-6.9v-52.8c0-4.9,4-8.9,8.9-8.9h0
			l74.5,0.1c4.7,0,8.5,3.6,8.9,8.3l2.2,26.6h1.3c2.9,0,5.4,2.2,5.8,5.1c4.6,0.4,8.1,4.3,8.1,8.9V178.2L142,178.2z"/>
		<path class="st1" d="M48.7,172.1c-2.8,0-5.1,2.3-5.1,5.1c0,2.8,2.3,5.1,5.1,5.1c2.8,0,5.1-2.3,5.1-5.1
			C53.8,174.4,51.5,172.1,48.7,172.1 M48.7,184.1c-3.8,0-6.9-3.1-6.9-6.9c0-3.8,3.1-6.9,6.9-6.9c3.8,0,6.9,3.1,6.9,6.9
			C55.5,181,52.5,184.1,48.7,184.1"/>
		<path class="st1" d="M70.9,172.1c-2.8,0-5.1,2.3-5.1,5.1c0,2.8,2.3,5.1,5.1,5.1c2.8,0,5.1-2.3,5.1-5.1
			C76.1,174.4,73.8,172.1,70.9,172.1 M70.9,184.1c-3.8,0-6.9-3.1-6.9-6.9c0-3.8,3.1-6.9,6.9-6.9c3.8,0,6.9,3.1,6.9,6.9
			C77.8,181,74.7,184.1,70.9,184.1"/>
		<path class="st1" d="M124.9,172.1c-2.8,0-5.1,2.3-5.1,5.1c0,2.8,2.3,5.1,5.1,5.1c2.8,0,5.1-2.3,5.1-5.1
			C130,174.4,127.7,172.1,124.9,172.1 M124.9,184.1c-3.8,0-6.9-3.1-6.9-6.9c0-3.8,3.1-6.9,6.9-6.9c3.8,0,6.9,3.1,6.9,6.9
			C131.8,181,128.7,184.1,124.9,184.1"/>
		<path class="st2" d="M48.7,173.8c1.9,0,3.4,1.5,3.4,3.4c0,1.9-1.5,3.4-3.4,3.4c-1.9,0-3.4-1.5-3.4-3.4
			C45.3,175.3,46.8,173.8,48.7,173.8"/>
		<path class="st2" d="M70.9,173.8c1.9,0,3.4,1.5,3.4,3.4c0,1.9-1.5,3.4-3.4,3.4c-1.9,0-3.4-1.5-3.4-3.4
			C67.5,175.3,69.1,173.8,70.9,173.8"/>
		<path class="st2" d="M124.9,173.8c1.9,0,3.4,1.5,3.4,3.4c0,1.9-1.5,3.4-3.4,3.4c-1.9,0-3.4-1.5-3.4-3.4
			C121.5,175.3,123,173.8,124.9,173.8"/>
	</g>
	<rect x="7" y="145.6" class="st1" width="20.6" height="1.7"/>
	<path class="st1" d="M3.3,146.4c0-0.2,0.1-0.4,0.3-0.6c0.1-0.1,0.2-0.1,0.3-0.2c0.1,0,0.2-0.1,0.3-0.1c0.2,0,0.5,0.1,0.6,0.2
		c0.3,0.3,0.3,0.9,0,1.2c-0.2,0.2-0.4,0.2-0.6,0.2c-0.1,0-0.2,0-0.3-0.1c-0.1,0-0.2-0.1-0.3-0.2C3.4,146.9,3.3,146.7,3.3,146.4"/>
	<rect x="14.5" y="153" class="st1" width="13.1" height="1.7"/>
	<path class="st1" d="M10.8,153.9c0-0.2,0.1-0.4,0.2-0.6c0.2-0.2,0.4-0.2,0.6-0.2c0.1,0,0.2,0,0.3,0.1c0.1,0,0.2,0.1,0.3,0.2
		c0.3,0.3,0.3,0.9,0,1.2c-0.2,0.2-0.4,0.2-0.6,0.2c-0.2,0-0.4-0.1-0.6-0.2C10.9,154.3,10.8,154.1,10.8,153.9"/>
	<rect x="12" y="138.1" class="st1" width="15.6" height="1.7"/>
	<path class="st1" d="M8.3,139c0-0.1,0-0.2,0.1-0.3s0.1-0.2,0.2-0.3c0.2-0.2,0.4-0.2,0.6-0.2c0.1,0,0.2,0,0.3,0.1
		c0.1,0,0.2,0.1,0.3,0.2c0.3,0.3,0.3,0.9,0,1.2c-0.1,0.1-0.2,0.1-0.3,0.2c-0.1,0.1-0.2,0.1-0.3,0.1c-0.2,0-0.4-0.1-0.6-0.2
		C8.4,139.4,8.3,139.2,8.3,139"/>
	<rect x="16.5" y="166.8" class="st1" width="11.2" height="1.7"/>
	<polyline class="st7" points="66,140.5 65.6,140.8 64,139.4 62.3,138.5 55.2,138.5 54.7,139.6 56.1,141.2 56.1,154 65.8,154 	"/>
	<polyline class="st7" points="64.3,153.5 75.4,153.5 75.4,141.5 64.7,141.5 	"/>
	<line class="st7" x1="65.3" y1="154.5" x2="65.3" y2="154"/>
	<path class="st1" d="M12.7,167.6c0-0.2,0.1-0.4,0.3-0.6c0.1-0.1,0.2-0.1,0.3-0.2c0.1,0,0.2-0.1,0.3-0.1c0.2,0,0.5,0.1,0.6,0.2
		c0.3,0.3,0.3,0.9,0,1.2c-0.2,0.2-0.4,0.2-0.6,0.2c-0.1,0-0.2,0-0.3-0.1c-0.1,0-0.2-0.1-0.3-0.2C12.8,168.1,12.7,167.8,12.7,167.6"
		/>
	<rect x="12" y="159.3" class="st1" width="15.6" height="1.7"/>
	<path class="st1" d="M8.3,160.2c0-0.1,0-0.2,0.1-0.3s0.1-0.2,0.2-0.3c0.2-0.2,0.4-0.2,0.6-0.2c0.1,0,0.2,0,0.3,0.1
		c0.1,0,0.2,0.1,0.3,0.2c0.3,0.3,0.3,0.9,0,1.2c-0.1,0.1-0.2,0.1-0.3,0.2C9.4,161,9.3,161,9.1,161c-0.2,0-0.4-0.1-0.6-0.2
		C8.4,160.6,8.3,160.4,8.3,160.2"/>
	<g>
		<g>
			<polygon class="st2" points="55.1,138.3 61.4,138.3 63.2,139.6 64.8,141.3 68.8,141.3 63.3,134.9 61.8,133.4 51.8,133.4 
				50.4,134.9 54.4,139.6 			"/>
			<path class="st1" d="M69.3,141.5h-4.6l-1.6-1.7l-1.7-1.3h-6.1l-0.7,1.5l-4.4-5.2l1.7-1.7h10.1l1.6,1.6L69.3,141.5z M64.9,141.1
				h3.4l-5.2-6l-1.4-1.4h-9.8l-1.3,1.3l3.7,4.3L55,138h6.6l1.9,1.4L64.9,141.1z"/>
			<polygon class="st2" points="68.8,141.3 75.6,141.3 76.8,139.2 75.9,138.3 72,138.3 70.5,139 			"/>
			<path class="st1" d="M75.7,141.5h-7.4l2.1-2.7L72,138l4,0l1.1,1.1L75.7,141.5z M69.2,141.1h6.2l1.1-1.9l-0.7-0.7l-3.7,0l-1.4,0.7
				L69.2,141.1z"/>
			<polygon class="st1" points="64.8,153.9 55.7,153.9 55.7,141.4 54.2,139.6 55,138 61.5,138 63.4,139.5 65,141.2 64.7,141.5 
				63.1,139.8 61.4,138.5 55.2,138.5 54.7,139.6 56.1,141.2 56.1,153.5 64.8,153.5 			"/>
			<g>
				<path class="st1" d="M51,135.1C51,135.1,51,135.1,51,135.1c-0.1,0-0.1,0-0.2-0.1c0,0,0,0,0-0.1c0,0,0-0.1,0-0.1c0,0,0-0.1,0-0.1
					s0-0.1,0-0.1c0.1-0.1,0.2-0.1,0.3,0c0,0,0,0,0,0.1c0,0,0,0.1,0,0.1c0,0,0,0.1,0,0.1c0,0,0,0.1,0,0.1
					C51.2,135,51.1,135.1,51,135.1C51.1,135.1,51.1,135.1,51,135.1"/>
				<path class="st1" d="M60.2,134.9c0-0.1,0.1-0.2,0.2-0.2c0.1,0,0.2,0.1,0.2,0.2s-0.1,0.2-0.2,0.2C60.3,135.1,60.2,135,60.2,134.9
					 M59.4,134.9c0-0.1,0.1-0.2,0.2-0.2c0.1,0,0.2,0.1,0.2,0.2s-0.1,0.2-0.2,0.2C59.5,135.1,59.4,135,59.4,134.9 M58.5,134.9
					c0-0.1,0.1-0.2,0.2-0.2c0.1,0,0.2,0.1,0.2,0.2s-0.1,0.2-0.2,0.2C58.6,135.1,58.5,135,58.5,134.9 M57.7,134.9
					c0-0.1,0.1-0.2,0.2-0.2c0.1,0,0.2,0.1,0.2,0.2s-0.1,0.2-0.2,0.2C57.8,135.1,57.7,135,57.7,134.9 M56.9,134.9
					c0-0.1,0.1-0.2,0.2-0.2c0.1,0,0.2,0.1,0.2,0.2s-0.1,0.2-0.2,0.2C57,135.1,56.9,135,56.9,134.9 M56,134.9c0-0.1,0.1-0.2,0.2-0.2
					s0.2,0.1,0.2,0.2s-0.1,0.2-0.2,0.2S56,135,56,134.9 M55.1,134.9c0-0.1,0.1-0.2,0.2-0.2c0.1,0,0.2,0.1,0.2,0.2s-0.1,0.2-0.2,0.2
					C55.2,135.1,55.1,135,55.1,134.9 M54.3,134.9c0-0.1,0.1-0.2,0.2-0.2c0.1,0,0.2,0.1,0.2,0.2s-0.1,0.2-0.2,0.2
					C54.4,135.1,54.3,135,54.3,134.9 M53.4,134.9c0-0.1,0.1-0.2,0.2-0.2c0.1,0,0.2,0.1,0.2,0.2s-0.1,0.2-0.2,0.2
					C53.5,135.1,53.4,135,53.4,134.9 M52.5,134.9c0-0.1,0.1-0.2,0.2-0.2s0.2,0.1,0.2,0.2s-0.1,0.2-0.2,0.2S52.5,135,52.5,134.9
					 M51.7,134.9c0-0.1,0.1-0.2,0.2-0.2s0.2,0.1,0.2,0.2s-0.1,0.2-0.2,0.2S51.7,135,51.7,134.9"/>
				<path class="st1" d="M61.3,135.1C61.3,135.1,61.3,135.1,61.3,135.1c-0.1,0-0.1,0-0.2-0.1c0,0,0,0,0-0.1c0,0,0-0.1,0-0.1
					c0,0,0-0.1,0-0.1c0,0,0-0.1,0-0.1c0.1-0.1,0.2-0.1,0.3,0c0,0,0,0,0,0.1s0,0.1,0,0.1c0,0,0,0.1,0,0.1c0,0,0,0.1,0,0.1
					C61.5,135,61.4,135.1,61.3,135.1C61.4,135.1,61.4,135.1,61.3,135.1"/>
				<polygon class="st1" points="75.9,153.9 64.3,153.9 64.3,153.5 75.4,153.5 75.4,141.5 64.7,141.5 64.7,141.1 75.9,141.1 				"/>
				<path class="st1" d="M63.5,141.4c0-0.1,0.1-0.2,0.2-0.2s0.2,0.1,0.2,0.2s-0.1,0.2-0.2,0.2S63.5,141.5,63.5,141.4 M62.6,141.4
					c0-0.1,0.1-0.2,0.2-0.2s0.2,0.1,0.2,0.2s-0.1,0.2-0.2,0.2S62.6,141.5,62.6,141.4 M61.7,141.4c0-0.1,0.1-0.2,0.2-0.2
					s0.2,0.1,0.2,0.2s-0.1,0.2-0.2,0.2S61.7,141.5,61.7,141.4 M60.8,141.4c0-0.1,0.1-0.2,0.2-0.2s0.2,0.1,0.2,0.2s-0.1,0.2-0.2,0.2
					S60.8,141.5,60.8,141.4 M59.9,141.4c0-0.1,0.1-0.2,0.2-0.2s0.2,0.1,0.2,0.2s-0.1,0.2-0.2,0.2S59.9,141.5,59.9,141.4 M59,141.4
					c0-0.1,0.1-0.2,0.2-0.2s0.2,0.1,0.2,0.2s-0.1,0.2-0.2,0.2S59,141.5,59,141.4 M58.2,141.4c0-0.1,0.1-0.2,0.2-0.2s0.2,0.1,0.2,0.2
					s-0.1,0.2-0.2,0.2S58.2,141.5,58.2,141.4 M57.3,141.4c0-0.1,0.1-0.2,0.2-0.2s0.2,0.1,0.2,0.2s-0.1,0.2-0.2,0.2
					S57.3,141.5,57.3,141.4 M56.4,141.4c0-0.1,0.1-0.2,0.2-0.2c0.1,0,0.2,0.1,0.2,0.2s-0.1,0.2-0.2,0.2
					C56.5,141.6,56.4,141.5,56.4,141.4"/>
				<path class="st1" d="M64.8,142.5c-0.1,0-0.1,0-0.2-0.1c0,0-0.1-0.1-0.1-0.2c0,0,0-0.1,0-0.1s0-0.1,0-0.1c0,0,0,0,0.1,0
					c0,0,0.1,0,0.1,0c0,0,0,0,0,0c0,0,0,0,0,0c0,0,0,0,0,0c0,0,0,0,0,0.1s0,0.1,0,0.1c0,0.1,0,0.1-0.1,0.2
					C64.9,142.5,64.8,142.5,64.8,142.5"/>
				<path class="st1" d="M64.6,152.4c0-0.1,0.1-0.2,0.2-0.2s0.2,0.1,0.2,0.2c0,0.1-0.1,0.2-0.2,0.2S64.6,152.5,64.6,152.4
					 M64.6,151.5c0-0.1,0.1-0.2,0.2-0.2s0.2,0.1,0.2,0.2c0,0.1-0.1,0.2-0.2,0.2S64.6,151.6,64.6,151.5 M64.6,150.5
					c0-0.1,0.1-0.2,0.2-0.2s0.2,0.1,0.2,0.2c0,0.1-0.1,0.2-0.2,0.2S64.6,150.7,64.6,150.5 M64.6,149.6c0-0.1,0.1-0.2,0.2-0.2
					s0.2,0.1,0.2,0.2c0,0.1-0.1,0.2-0.2,0.2S64.6,149.7,64.6,149.6 M64.6,148.7c0-0.1,0.1-0.2,0.2-0.2s0.2,0.1,0.2,0.2
					c0,0.1-0.1,0.2-0.2,0.2S64.6,148.8,64.6,148.7 M64.6,147.8c0-0.1,0.1-0.2,0.2-0.2s0.2,0.1,0.2,0.2c0,0.1-0.1,0.2-0.2,0.2
					S64.6,147.9,64.6,147.8 M64.6,146.9c0-0.1,0.1-0.2,0.2-0.2s0.2,0.1,0.2,0.2c0,0.1-0.1,0.2-0.2,0.2S64.6,147,64.6,146.9
					 M64.6,145.9c0-0.1,0.1-0.2,0.2-0.2s0.2,0.1,0.2,0.2c0,0.1-0.1,0.2-0.2,0.2S64.6,146.1,64.6,145.9 M64.6,145
					c0-0.1,0.1-0.2,0.2-0.2s0.2,0.1,0.2,0.2s-0.1,0.2-0.2,0.2S64.6,145.2,64.6,145 M64.6,144.1c0-0.1,0.1-0.2,0.2-0.2
					s0.2,0.1,0.2,0.2c0,0.1-0.1,0.2-0.2,0.2S64.6,144.2,64.6,144.1 M64.6,143.2c0-0.1,0.1-0.2,0.2-0.2s0.2,0.1,0.2,0.2
					c0,0.1-0.1,0.2-0.2,0.2S64.6,143.3,64.6,143.2"/>
			</g>
		</g>
	</g>
</g>
</svg>
