<?xml version="1.0" encoding="utf-8"?>
<!-- Generator: Adobe Illustrator 21.1.0, SVG Export Plug-In . SVG Version: 6.00 Build 0)  -->
<svg version="1.0" id="Layer_1" xmlns="http://www.w3.org/2000/svg" xmlns:xlink="http://www.w3.org/1999/xlink" x="0px" y="0px"
	 viewBox="0 0 260 230" style="enable-background:new 0 0 260 230;" xml:space="preserve">
<style type="text/css">
	.st0{fill:#80B7F9;}
	.st1{fill:#48515A;}
	.st2{fill:#475059;}
	.st3{fill:#98EA66;}
	.st4{fill:#353535;}
	.st5{fill:#DEDEDD;}
</style>
<g>
	<g>
		<g>
			<path class="st0" d="M78,120.1c6.1-11.3,6-25.5-1.6-37C66,67.5,44.9,62.5,28.7,71.9c-17.9,10.3-23.4,33.4-12.3,50.6
				c4.8,7.5,12,12.5,19.8,14.8v1.5c0,1.8-0.5,3.5-1.3,5c-0.7,1.2-1.6,2.3-2.7,3.2c-1.7,1.3-3.9,2.1-6.2,2.1l5.1,0
				c7.6,0,14.2-4.2,17.8-10.3c5.9-0.4,11.8-2.2,17.1-5.7l2-1.4c3.9-3,7.2-6.7,9.6-10.9L78,120.1z"/>
			<rect x="58.9" y="85.9" class="st1" width="26.7" height="1.5"/>
			<rect x="58.9" y="88.9" class="st1" width="26.7" height="1.5"/>
			<rect x="58.9" y="91.9" class="st1" width="26.7" height="1.5"/>
			<rect x="58.9" y="94.9" class="st1" width="26.2" height="1.5"/>
			<polygon class="st1" points="57.4,96.3 55.9,96.3 55.9,95.8 52.9,89.2 50,95.8 50,96.3 48.5,96.3 48.5,95.4 52.9,85.6 57.4,95.4 
							"/>
			<rect x="50" y="92.6" class="st1" width="6" height="1.5"/>
			<rect x="48.5" y="97.8" class="st1" width="36.7" height="1.5"/>
			<rect x="48.5" y="100.8" class="st1" width="36.7" height="1.5"/>
			<rect x="48.5" y="103.8" class="st1" width="36.7" height="1.5"/>
			<path class="st1" d="M67.8,139c0-0.4,0.3-0.8,0.7-0.8c0.4,0,0.8,0.3,0.8,0.7c0,0.4-0.3,0.8-0.7,0.8v0h0
				C68.1,139.7,67.8,139.4,67.8,139 M65.5,139.7c-0.4,0-0.7-0.4-0.7-0.8c0-0.4,0.4-0.7,0.8-0.7s0.7,0.4,0.7,0.8
				C66.2,139.4,65.9,139.7,65.5,139.7L65.5,139.7z M70.8,138.9c0-0.4,0.3-0.8,0.7-0.8c0.4,0,0.8,0.3,0.8,0.7c0,0.4-0.3,0.8-0.7,0.8
				c0,0-0.1,0-0.1,0C71.1,139.5,70.8,139.2,70.8,138.9 M62.5,139.5L62.5,139.5c-0.4,0-0.7-0.4-0.7-0.8c0-0.4,0.4-0.7,0.8-0.7
				c0.4,0,0.7,0.4,0.7,0.8C63.2,139.2,62.9,139.5,62.5,139.5C62.5,139.5,62.5,139.5,62.5,139.5 M73.7,138.5
				c-0.1-0.4,0.2-0.8,0.6-0.9c0.4-0.1,0.8,0.2,0.9,0.6c0.1,0.4-0.2,0.8-0.6,0.9c0,0-0.1,0-0.1,0C74.1,139.1,73.8,138.9,73.7,138.5
				 M59.4,139.1L59.4,139.1c-0.4-0.1-0.7-0.5-0.6-0.9c0.1-0.4,0.5-0.7,0.9-0.6c0.4,0.1,0.7,0.5,0.6,0.9c-0.1,0.4-0.4,0.6-0.7,0.6
				C59.5,139.1,59.5,139.1,59.4,139.1 M76.7,137.9c-0.1-0.4,0.1-0.8,0.6-0.9c0.4-0.1,0.8,0.2,0.9,0.5c0.1,0.4-0.1,0.8-0.6,0.9
				c-0.1,0-0.1,0-0.2,0C77.1,138.5,76.8,138.3,76.7,137.9 M56.5,138.4c-0.4-0.1-0.7-0.5-0.5-0.9c0.1-0.4,0.5-0.6,0.9-0.5
				c0.4,0.1,0.6,0.5,0.5,0.9c-0.1,0.3-0.4,0.6-0.7,0.6C56.6,138.5,56.5,138.4,56.5,138.4 M79.6,137.2c-0.1-0.4,0.1-0.8,0.5-0.9
				c0.4-0.1,0.8,0.1,0.9,0.5s-0.1,0.8-0.5,0.9v0c-0.1,0-0.1,0-0.2,0C80,137.7,79.7,137.5,79.6,137.2 M53.5,137.6
				c-0.4-0.1-0.6-0.6-0.5-1c0.1-0.4,0.6-0.6,0.9-0.5c0.4,0.1,0.6,0.6,0.5,0.9c-0.1,0.3-0.4,0.5-0.7,0.5
				C53.7,137.6,53.6,137.6,53.5,137.6 M82.4,136.2c-0.1-0.4,0-0.8,0.4-1c0.4-0.2,0.8,0,1,0.4c0.2,0.4,0,0.8-0.4,1
				c-0.1,0-0.2,0.1-0.3,0.1C82.8,136.7,82.5,136.5,82.4,136.2 M50.7,136.6c-0.4-0.2-0.6-0.6-0.4-1c0.2-0.4,0.6-0.6,1-0.4
				c0.4,0.2,0.6,0.6,0.4,1c-0.1,0.3-0.4,0.5-0.7,0.5C50.9,136.6,50.8,136.6,50.7,136.6 M85.2,135.1c-0.2-0.4,0-0.8,0.4-1
				c0.4-0.2,0.8,0,1,0.4c0.2,0.4,0,0.8-0.4,1c-0.1,0-0.2,0.1-0.3,0.1C85.6,135.5,85.3,135.4,85.2,135.1 M47.9,135.3
				c-0.4-0.2-0.5-0.6-0.3-1c0.2-0.4,0.6-0.5,1-0.3c0.4,0.2,0.5,0.6,0.3,1c-0.1,0.3-0.4,0.4-0.7,0.4C48.1,135.4,48,135.4,47.9,135.3
				 M87.8,133.8c-0.2-0.4-0.1-0.8,0.3-1c0.4-0.2,0.8-0.1,1,0.3s0.1,0.8-0.3,1c-0.1,0.1-0.2,0.1-0.4,0.1
				C88.2,134.1,88,134,87.8,133.8 M45.2,133.9c-0.4-0.2-0.5-0.7-0.3-1c0.2-0.4,0.7-0.5,1-0.3c0.4,0.2,0.5,0.7,0.3,1
				c-0.1,0.2-0.4,0.4-0.7,0.4C45.5,134,45.3,134,45.2,133.9 M90.4,132.2c-0.2-0.3-0.1-0.8,0.2-1c0.3-0.2,0.8-0.1,1,0.2
				c0.2,0.3,0.1,0.8-0.2,1c-0.1,0.1-0.3,0.1-0.4,0.1C90.8,132.6,90.6,132.5,90.4,132.2 M42.6,132.3c-0.3-0.2-0.4-0.7-0.2-1
				c0.2-0.3,0.7-0.4,1-0.2c0.3,0.2,0.4,0.7,0.2,1c-0.1,0.2-0.4,0.3-0.6,0.3C42.9,132.4,42.8,132.4,42.6,132.3 M92.9,130.5
				c-0.2-0.3-0.2-0.8,0.1-1.1c0.3-0.2,0.8-0.2,1,0.1c0.3,0.3,0.2,0.8-0.1,1c-0.1,0.1-0.3,0.2-0.4,0.2
				C93.3,130.8,93,130.7,92.9,130.5 M40.2,130.5c-0.3-0.3-0.4-0.7-0.1-1c0.2-0.3,0.7-0.4,1-0.1c0.3,0.3,0.4,0.7,0.1,1
				c-0.1,0.2-0.4,0.3-0.6,0.3C40.5,130.7,40.3,130.6,40.2,130.5 M37.8,128.6c-0.3-0.3-0.3-0.7-0.1-1.1c0.3-0.3,0.7-0.3,1.1-0.1
				c0.3,0.3,0.3,0.7,0.1,1.1c-0.1,0.2-0.4,0.3-0.6,0.3C38.1,128.8,38,128.7,37.8,128.6 M35.6,126.5c-0.3-0.3-0.3-0.8,0-1.1
				c0.3-0.3,0.8-0.3,1.1,0c0.3,0.3,0.3,0.8,0,1.1c-0.1,0.1-0.3,0.2-0.5,0.2C36,126.7,35.8,126.6,35.6,126.5 M33.6,124.2
				c-0.3-0.3-0.2-0.8,0.1-1.1c0.3-0.3,0.8-0.2,1.1,0.1c0.3,0.3,0.2,0.8-0.1,1.1c-0.1,0.1-0.3,0.2-0.5,0.2
				C33.9,124.5,33.7,124.4,33.6,124.2 M31.7,121.9c-0.3-0.3-0.2-0.8,0.1-1c0.3-0.2,0.8-0.2,1,0.1c0.2,0.3,0.2,0.8-0.2,1
				c-0.1,0.1-0.3,0.1-0.4,0.1C32,122.2,31.8,122.1,31.7,121.9 M29.9,119.3c-0.2-0.3-0.1-0.8,0.2-1c0.3-0.2,0.8-0.1,1,0.2
				c0.2,0.3,0.1,0.8-0.2,1c-0.1,0.1-0.3,0.1-0.4,0.1C30.3,119.7,30.1,119.6,29.9,119.3 M28.4,116.7c-0.2-0.4-0.1-0.8,0.3-1
				c0.4-0.2,0.8-0.1,1,0.3c0.2,0.4,0.1,0.8-0.3,1c-0.1,0.1-0.2,0.1-0.4,0.1C28.8,117.1,28.5,117,28.4,116.7 M27,114L27,114
				c-0.2-0.4,0-0.8,0.4-1c0.4-0.2,0.8,0,1,0.4c0.2,0.4,0,0.8-0.4,1c-0.1,0-0.2,0.1-0.3,0.1C27.4,114.4,27.2,114.3,27,114
				 M106.4,114.2c-0.4-0.2-0.5-0.6-0.4-1v0c0.2-0.4,0.6-0.5,1-0.4c0.4,0.2,0.5,0.6,0.4,1c-0.1,0.3-0.4,0.4-0.7,0.4
				C106.6,114.3,106.5,114.3,106.4,114.2 M25.8,111.2c-0.1-0.4,0.1-0.8,0.4-1c0.4-0.2,0.8,0,1,0.4c0.1,0.4,0,0.8-0.4,1
				c-0.1,0-0.2,0-0.3,0C26.2,111.7,26,111.5,25.8,111.2 M107.6,111.5c-0.4-0.1-0.6-0.6-0.4-1v0c0.1-0.4,0.6-0.6,1-0.4
				c0.4,0.1,0.6,0.6,0.4,1v0c-0.1,0.3-0.4,0.5-0.7,0.5C107.7,111.5,107.6,111.5,107.6,111.5 M24.9,108.3L24.9,108.3
				c-0.1-0.4,0.1-0.8,0.5-0.9c0.4-0.1,0.8,0.1,0.9,0.5c0.1,0.4-0.1,0.8-0.5,0.9c-0.1,0-0.1,0-0.2,0C25.3,108.8,25,108.6,24.9,108.3
				 M108.6,108.7c-0.4-0.1-0.6-0.5-0.5-0.9c0.1-0.4,0.5-0.6,0.9-0.5c0.4,0.1,0.6,0.5,0.5,0.9c-0.1,0.3-0.4,0.5-0.7,0.5
				C108.7,108.7,108.6,108.7,108.6,108.7 M24.1,105.4c-0.1-0.4,0.2-0.8,0.6-0.9c0.4-0.1,0.8,0.2,0.9,0.6v0c0.1,0.4-0.2,0.8-0.6,0.9
				c-0.1,0-0.1,0-0.2,0C24.5,106,24.2,105.7,24.1,105.4 M109.4,105.8c-0.4-0.1-0.7-0.5-0.6-0.9c0.1-0.4,0.5-0.7,0.9-0.6
				c0.4,0.1,0.7,0.5,0.6,0.9c-0.1,0.3-0.4,0.6-0.7,0.6C109.5,105.8,109.4,105.8,109.4,105.8 M23.5,102.4c-0.1-0.4,0.2-0.8,0.6-0.9
				c0.4-0.1,0.8,0.2,0.9,0.6c0.1,0.4-0.2,0.8-0.6,0.9c0,0-0.1,0-0.1,0C23.9,103,23.6,102.8,23.5,102.4 M109.9,102.9
				c-0.4-0.1-0.7-0.4-0.6-0.9c0.1-0.4,0.4-0.7,0.9-0.6c0.4,0.1,0.7,0.4,0.6,0.9c-0.1,0.4-0.4,0.6-0.7,0.6
				C110,102.9,110,102.9,109.9,102.9 M23.2,99.4c0-0.4,0.3-0.8,0.7-0.8c0.4,0,0.8,0.3,0.8,0.7c0,0.4-0.3,0.8-0.7,0.8c0,0,0,0-0.1,0
				C23.5,100,23.2,99.7,23.2,99.4 M110.3,99.9c-0.4,0-0.7-0.4-0.7-0.8c0-0.4,0.4-0.7,0.8-0.7c0.4,0,0.7,0.4,0.7,0.8
				C111.1,99.6,110.8,99.9,110.3,99.9L110.3,99.9z M23,96.3c0-0.4,0.3-0.8,0.7-0.8c0.4,0,0.8,0.3,0.8,0.7c0,0.4-0.3,0.8-0.7,0.8h0
				C23.4,97.1,23,96.7,23,96.3 M110.5,96.9c-0.4,0-0.7-0.3-0.7-0.8c0-0.4,0.3-0.7,0.8-0.7c0.4,0,0.7,0.3,0.7,0.8
				C111.3,96.6,111,96.9,110.5,96.9L110.5,96.9z M23.8,94.1c-0.4,0-0.7-0.4-0.7-0.8c0-0.4,0.4-0.7,0.8-0.7c0.4,0,0.7,0.4,0.7,0.8
				C24.5,93.8,24.2,94.1,23.8,94.1L23.8,94.1z M109.7,93.2c0-0.4,0.3-0.8,0.7-0.8s0.8,0.3,0.8,0.7c0,0.4-0.3,0.8-0.7,0.8h0
				C110.1,93.9,109.8,93.6,109.7,93.2 M24,91.1c-0.4-0.1-0.7-0.4-0.7-0.8c0.1-0.4,0.4-0.7,0.8-0.7c0.4,0.1,0.7,0.4,0.7,0.8v0
				C24.8,90.8,24.4,91.1,24,91.1C24,91.1,24,91.1,24,91.1 M109.5,90.3c0-0.4,0.2-0.8,0.7-0.8c0.4-0.1,0.8,0.2,0.8,0.7
				c0.1,0.4-0.2,0.8-0.7,0.8c0,0-0.1,0-0.1,0C109.8,90.9,109.5,90.7,109.5,90.3 M24.4,88.1c-0.4-0.1-0.7-0.5-0.6-0.9
				c0.1-0.4,0.5-0.7,0.9-0.6c0.4,0.1,0.7,0.5,0.6,0.9c-0.1,0.4-0.4,0.6-0.7,0.6C24.5,88.1,24.4,88.1,24.4,88.1 M109,87.4L109,87.4
				c-0.1-0.4,0.2-0.8,0.6-0.9c0.4-0.1,0.8,0.2,0.9,0.6c0.1,0.4-0.2,0.8-0.6,0.9c-0.1,0-0.1,0-0.1,0C109.4,88,109.1,87.7,109,87.4
				 M25,85.2c-0.4-0.1-0.6-0.5-0.5-0.9c0.1-0.4,0.5-0.6,0.9-0.5c0.4,0.1,0.6,0.5,0.5,0.9c-0.1,0.3-0.4,0.6-0.7,0.6
				C25.1,85.2,25.1,85.2,25,85.2 M108.3,84.5c-0.1-0.4,0.1-0.8,0.5-0.9c0.4-0.1,0.8,0.1,0.9,0.5c0.1,0.4-0.1,0.8-0.5,0.9
				c-0.1,0-0.1,0-0.2,0C108.7,85.1,108.4,84.9,108.3,84.5 M25.8,82.3c-0.4-0.1-0.6-0.6-0.5-1c0.1-0.4,0.6-0.6,1-0.5
				c0.4,0.1,0.6,0.6,0.5,0.9c-0.1,0.3-0.4,0.5-0.7,0.5C26,82.4,25.9,82.3,25.8,82.3 M107.5,81.7c-0.1-0.4,0.1-0.8,0.5-1
				c0.4-0.1,0.8,0.1,1,0.5c0.1,0.4-0.1,0.8-0.5,1c-0.1,0-0.2,0-0.2,0C107.9,82.2,107.6,82,107.5,81.7 M26.8,79.5
				c-0.4-0.2-0.6-0.6-0.4-1c0.2-0.4,0.6-0.6,1-0.4c0.4,0.2,0.6,0.6,0.4,1c-0.1,0.3-0.4,0.5-0.7,0.5C27,79.6,26.9,79.5,26.8,79.5
				 M106.4,79L106.4,79c-0.2-0.4,0-0.8,0.4-1c0.4-0.2,0.8,0,1,0.4c0.2,0.4,0,0.8-0.4,1c-0.1,0-0.2,0.1-0.3,0.1
				C106.8,79.4,106.6,79.2,106.4,79 M28,76.8c-0.4-0.2-0.5-0.6-0.3-1c0.2-0.4,0.6-0.5,1-0.3c0.4,0.2,0.5,0.6,0.3,1
				c-0.1,0.3-0.4,0.4-0.7,0.4C28.3,76.8,28.2,76.8,28,76.8 M105.2,76.3c-0.2-0.4,0-0.8,0.3-1c0.4-0.2,0.8,0,1,0.3
				c0.2,0.4,0,0.8-0.3,1c-0.1,0.1-0.2,0.1-0.3,0.1C105.6,76.7,105.3,76.6,105.2,76.3 M29.4,74.1c-0.4-0.2-0.5-0.7-0.3-1
				c0.2-0.4,0.7-0.5,1-0.3c0.4,0.2,0.5,0.7,0.3,1c-0.1,0.2-0.4,0.4-0.6,0.4C29.7,74.2,29.6,74.2,29.4,74.1 M103.8,73.7
				c-0.2-0.4-0.1-0.8,0.3-1c0.4-0.2,0.8-0.1,1,0.3c0.2,0.4,0.1,0.8-0.3,1c-0.1,0.1-0.3,0.1-0.4,0.1C104.2,74.1,103.9,74,103.8,73.7
				 M31,71.6c-0.3-0.2-0.4-0.7-0.2-1c0.2-0.3,0.7-0.4,1-0.2c0.3,0.2,0.4,0.7,0.2,1c-0.1,0.2-0.4,0.3-0.6,0.3
				C31.3,71.7,31.1,71.7,31,71.6 M102.2,71.2c-0.2-0.3-0.1-0.8,0.2-1c0.3-0.2,0.8-0.2,1,0.2c0.2,0.3,0.2,0.8-0.2,1
				c-0.1,0.1-0.3,0.1-0.4,0.1C102.6,71.6,102.3,71.5,102.2,71.2 M32.7,69.1c-0.3-0.3-0.4-0.7-0.1-1.1c0.3-0.3,0.7-0.4,1.1-0.1
				c0.3,0.3,0.4,0.7,0.1,1.1c-0.1,0.2-0.4,0.3-0.6,0.3C33,69.3,32.9,69.3,32.7,69.1 M100.4,68.9c-0.3-0.3-0.2-0.8,0.1-1
				c0.3-0.3,0.8-0.2,1,0.1c0.3,0.3,0.2,0.8-0.1,1c-0.1,0.1-0.3,0.2-0.5,0.2C100.8,69.2,100.6,69.1,100.4,68.9 M34.7,66.8
				c-0.3-0.3-0.3-0.8-0.1-1.1c0.3-0.3,0.8-0.3,1.1,0c0.3,0.3,0.3,0.8,0,1.1C35.6,67,35.4,67,35.2,67C35,67,34.8,67,34.7,66.8
				 M98.5,66.7c-0.3-0.3-0.3-0.8,0-1.1c0.3-0.3,0.8-0.3,1.1,0c0.3,0.3,0.3,0.8,0,1.1c-0.1,0.1-0.3,0.2-0.5,0.2
				C98.8,66.9,98.6,66.8,98.5,66.7 M36.7,64.7c-0.3-0.3-0.3-0.8,0-1.1c0.3-0.3,0.8-0.3,1.1,0c0.3,0.3,0.3,0.8,0,1.1
				c-0.1,0.1-0.3,0.2-0.5,0.2C37.1,64.9,36.9,64.8,36.7,64.7 M96.4,64.6c-0.3-0.3-0.3-0.8,0-1.1c0.3-0.3,0.8-0.3,1.1,0
				c0.3,0.3,0.3,0.8,0,1.1c-0.1,0.2-0.3,0.2-0.5,0.2C96.8,64.8,96.6,64.7,96.4,64.6 M38.9,62.6c-0.3-0.3-0.2-0.8,0.1-1.1
				c0.3-0.3,0.8-0.2,1.1,0.1c0.3,0.3,0.2,0.8-0.1,1.1c-0.1,0.1-0.3,0.2-0.5,0.2C39.3,62.9,39.1,62.8,38.9,62.6 M94.2,62.6
				c-0.3-0.3-0.4-0.7-0.1-1c0.3-0.3,0.7-0.4,1.1-0.1c0.3,0.3,0.4,0.7,0.1,1.1c-0.1,0.2-0.4,0.3-0.6,0.3
				C94.5,62.8,94.4,62.8,94.2,62.6 M41.3,60.8c-0.2-0.3-0.2-0.8,0.2-1c0.3-0.2,0.8-0.2,1,0.2c0.2,0.3,0.2,0.8-0.2,1
				c-0.1,0.1-0.3,0.1-0.4,0.1C41.6,61.1,41.4,61,41.3,60.8 M91.9,60.8c-0.3-0.2-0.4-0.7-0.2-1c0.2-0.3,0.7-0.4,1-0.2
				c0.3,0.2,0.4,0.7,0.2,1c-0.1,0.2-0.4,0.3-0.6,0.3C92.2,61,92,60.9,91.9,60.8 M43.7,59.1c-0.2-0.4-0.1-0.8,0.2-1s0.8-0.1,1,0.2
				c0.2,0.4,0.1,0.8-0.2,1c-0.1,0.1-0.3,0.1-0.4,0.1C44.1,59.4,43.8,59.3,43.7,59.1 M89.4,59.2c-0.4-0.2-0.5-0.7-0.2-1
				c0.2-0.4,0.7-0.5,1-0.2s0.5,0.7,0.2,1c-0.1,0.2-0.4,0.4-0.6,0.4C89.7,59.3,89.6,59.3,89.4,59.2 M46.3,57.5
				c-0.2-0.4-0.1-0.8,0.3-1c0.4-0.2,0.8-0.1,1,0.3c0.2,0.4,0.1,0.8-0.3,1c-0.1,0.1-0.2,0.1-0.3,0.1C46.7,57.9,46.4,57.8,46.3,57.5
				 M86.9,57.8L86.9,57.8c-0.4-0.2-0.5-0.6-0.3-1c0.2-0.4,0.6-0.5,1-0.3c0.4,0.2,0.5,0.6,0.3,1c-0.1,0.3-0.4,0.4-0.7,0.4
				C87.1,57.9,87,57.8,86.9,57.8 M49,56.2c-0.2-0.4,0-0.8,0.4-1c0.4-0.2,0.8,0,1,0.4c0.2,0.4,0,0.8-0.4,1c-0.1,0-0.2,0.1-0.3,0.1
				C49.4,56.6,49.1,56.5,49,56.2 M84.2,56.5c-0.4-0.2-0.6-0.6-0.4-1c0.2-0.4,0.6-0.6,1-0.4c0.4,0.2,0.6,0.6,0.4,1
				c-0.1,0.3-0.4,0.4-0.7,0.4C84.4,56.6,84.3,56.5,84.2,56.5 M51.7,55c-0.1-0.4,0.1-0.8,0.5-1c0.4-0.1,0.8,0.1,1,0.4
				c0.1,0.4-0.1,0.8-0.5,1c-0.1,0-0.2,0-0.2,0C52.1,55.5,51.8,55.3,51.7,55 M81.5,55.4c-0.4-0.1-0.6-0.6-0.5-1
				c0.1-0.4,0.6-0.6,1-0.5c0.4,0.1,0.6,0.6,0.5,1c-0.1,0.3-0.4,0.5-0.7,0.5C81.7,55.5,81.6,55.5,81.5,55.4 M54.5,54.1
				c-0.1-0.4,0.1-0.8,0.5-0.9c0.4-0.1,0.8,0.1,0.9,0.5c0.1,0.4-0.1,0.8-0.5,0.9c-0.1,0-0.1,0-0.2,0C54.9,54.6,54.6,54.4,54.5,54.1
				 M78.7,54.5c-0.4-0.1-0.6-0.5-0.5-0.9c0.1-0.4,0.5-0.6,0.9-0.5s0.6,0.5,0.5,0.9c-0.1,0.3-0.4,0.5-0.7,0.5
				C78.8,54.6,78.8,54.6,78.7,54.5 M57.4,53.3c-0.1-0.4,0.2-0.8,0.6-0.9c0.4-0.1,0.8,0.2,0.9,0.6c0.1,0.4-0.2,0.8-0.6,0.9
				c-0.1,0-0.1,0-0.2,0C57.8,53.9,57.5,53.6,57.4,53.3 M75.8,53.8c-0.4-0.1-0.7-0.5-0.6-0.9c0.1-0.4,0.5-0.7,0.9-0.6
				c0.4,0.1,0.7,0.5,0.6,0.9c-0.1,0.4-0.4,0.6-0.7,0.6C75.9,53.9,75.9,53.8,75.8,53.8 M60.4,52.7c-0.1-0.4,0.2-0.8,0.6-0.8
				c0.4-0.1,0.8,0.2,0.8,0.6c0.1,0.4-0.2,0.8-0.6,0.8c0,0-0.1,0-0.1,0C60.8,53.4,60.4,53.1,60.4,52.7 M72.9,53.3
				c-0.4-0.1-0.7-0.4-0.6-0.8c0.1-0.4,0.4-0.7,0.8-0.6c0.4,0.1,0.7,0.4,0.6,0.8c-0.1,0.4-0.4,0.6-0.7,0.6C73,53.3,73,53.3,72.9,53.3
				 M63.3,52.4c0-0.4,0.3-0.8,0.7-0.8c0.4,0,0.8,0.3,0.8,0.7c0,0.4-0.3,0.8-0.7,0.8c0,0,0,0,0,0C63.7,53.1,63.4,52.8,63.3,52.4
				 M70,53L70,53c-0.4,0-0.7-0.4-0.7-0.8c0-0.4,0.4-0.7,0.8-0.7c0.4,0,0.7,0.4,0.7,0.8C70.8,52.7,70.5,53,70,53L70,53z M66.3,52.2
				c0-0.4,0.3-0.8,0.7-0.8s0.7,0.3,0.7,0.7c0,0.4-0.3,0.7-0.7,0.7S66.3,52.6,66.3,52.2"/>
			<path class="st1" d="M94.5,157.7h-6.8c-9.9,0-19.1-5.3-24.2-13.8c-8.1-0.6-15.9-3.2-22.7-7.6l-2.7-1.9c-5.4-4-9.8-9-13.1-14.8
				l-0.4-0.7c-8.9-16.4-7.8-36.1,3-51.4c14.4-20.3,42.5-26.4,63.9-14c18.6,10.8,27.9,32.1,23,53.1c-0.2,0.8,0,1.7,0.5,2.3
				c0.5,0.6,1.3,1,2.1,1h12.1c2.5,0,4.5,2,4.5,4.5c0,2.5-2,4.5-4.5,4.5H77.6c-1.6,0-3,1.3-3,3c0,1.7,1.3,3,3,3H121
				c2.5,0,4.5,2,4.5,4.5c0,2.5-2,4.5-4.5,4.5h-16.5c-1.2,0-2.2,1-2.2,2.2v24.6h-1.5V136c0-2.1,1.7-3.7,3.7-3.7H121c1.7,0,3-1.3,3-3
				c0-1.7-1.3-3-3-3H77.6c-2.5,0-4.5-2-4.5-4.5c0-2.5,2-4.5,4.5-4.5h51.6c1.7,0,3-1.3,3-3c0-1.7-1.3-3-3-3h-12.1
				c-1.3,0-2.4-0.6-3.2-1.6c-0.8-1-1.1-2.3-0.8-3.6c4.7-20.3-4.3-41-22.3-51.5c-20.8-12.1-48.1-6.2-62,13.5
				C18.3,83,17.2,102.1,25.9,118l0.4,0.7c3.2,5.6,7.5,10.5,12.7,14.4l2.7,1.9c6.7,4.3,14.4,6.9,22.4,7.4l0.4,0l0.2,0.3
				c4.7,8.3,13.6,13.4,23.1,13.4h0.4c-0.8-0.4-1.6-0.9-2.4-1.5c-1.6-1.2-2.9-2.7-3.8-4.4c-1.2-2.1-1.8-4.5-1.8-7v-2.6l0.5-0.2
				c7.1-2.1,13.6-5.9,18.9-10.9l1,1.1c-5.3,5-11.9,8.9-19,11.1v1.5c0,2.2,0.6,4.4,1.6,6.3c0.9,1.6,2,2.9,3.4,4
				c2.3,1.8,5,2.7,7.9,2.7V157.7z"/>
			<path class="st0" d="M32.7,59.7c0,0.8-0.7,1.5-1.5,1.5s-1.5-0.7-1.5-1.5c0-0.8,0.7-1.5,1.5-1.5S32.7,58.9,32.7,59.7"/>
			<path class="st0" d="M20.8,159.2c0,0.4-0.3,0.7-0.7,0.7c-0.4,0-0.7-0.3-0.7-0.7s0.3-0.7,0.7-0.7
				C20.4,158.4,20.8,158.8,20.8,159.2"/>
			<rect x="22.3" y="127" class="st1" width="1.5" height="3"/>
			<rect x="22.3" y="134.5" class="st1" width="1.5" height="3"/>
			<rect x="25.3" y="131.5" class="st1" width="3" height="1.5"/>
			<rect x="17.8" y="131.5" class="st1" width="3" height="1.5"/>
			<rect x="43.2" y="73.2" class="st1" width="1.5" height="3"/>
			<rect x="43.2" y="80.6" class="st1" width="1.5" height="3"/>
			<rect x="46.2" y="77.6" class="st1" width="3" height="1.5"/>
			<rect x="38.7" y="77.6" class="st1" width="3" height="1.5"/>
		</g>
	</g>
</g>
<g>
	<path class="st2" d="M67.4,181.8l-1.7-0.5l0.3-0.8l-1-0.3c-1.3-0.4-2.2-1.6-2.2-3c0-1.4,0.9-2.6,2.2-3l1-0.3l-0.6-1.7l-1,0.3
		c-1.3,0.4-2.7,0-3.5-1.1c-0.8-1.1-0.8-2.6,0-3.7l0.6-0.9l-1.5-1.1l-0.6,0.9c-0.8,1.1-2.2,1.6-3.5,1.1c-1.3-0.4-2.2-1.6-2.2-3l0-1.1
		l-1.8,0l0,1.1c0,1.4-0.9,2.6-2.2,3c-1.3,0.4-2.7,0-3.5-1.1l-0.6-0.9l-1.5,1.1l0.6,0.9c0.8,1.1,0.8,2.6,0,3.7
		c-0.8,1.1-2.2,1.6-3.5,1.1l-1-0.3l-0.3,0.8l-1.7-0.5l0.8-2.5l2.7,0.9c0.7,0.2,1.2-0.1,1.5-0.5c0.3-0.4,0.4-1,0-1.6l-1.7-2.3
		l4.4-3.2l1.7,2.3c0.4,0.6,1.1,0.6,1.5,0.5c0.5-0.1,0.9-0.6,0.9-1.3l0-2.9l5.4,0l0,2.9c0,0.7,0.5,1.2,0.9,1.3
		c0.5,0.1,1.1,0.1,1.5-0.5l1.7-2.3l4.3,3.2l-1.7,2.3c-0.4,0.6-0.3,1.2,0,1.6c0.3,0.4,0.8,0.7,1.5,0.5l2.7-0.9l1.7,5.1l-2.7,0.9
		c-0.7,0.2-0.9,0.8-0.9,1.3c0,0.5,0.2,1.1,0.9,1.3l2.7,0.9L67.4,181.8z"/>
	<path class="st2" d="M59.6,179.3l-1.7-0.5c0.4-1.4,0.3-2.8-0.3-4.1c-0.7-1.3-1.8-2.3-3.2-2.7c-1.4-0.4-2.8-0.3-4.1,0.3
		c-1.3,0.7-2.3,1.8-2.7,3.2l-1.7-0.5c0.6-1.8,1.9-3.3,3.6-4.2c1.7-0.9,3.7-1,5.5-0.4c1.8,0.6,3.3,1.9,4.2,3.6
		C60,175.5,60.2,177.5,59.6,179.3"/>
	<path class="st2" d="M52.8,184.2c-0.7,0-1.5-0.1-2.2-0.4c-3.8-1.2-5.8-5.3-4.6-9.1l1.7,0.5c-0.9,2.8,0.6,5.9,3.5,6.8
		c2.8,0.9,5.9-0.6,6.8-3.5l1.7,0.6C58.6,182.3,55.8,184.2,52.8,184.2"/>
	<path class="st2" d="M55.4,192.4l-5.4,0l0-2.9c0-0.7-0.5-1.2-0.9-1.3c-0.5-0.1-1.1-0.1-1.5,0.5l-1.7,2.3l-4.3-3.2l1.7-2.3
		c0.4-0.6,0.3-1.2,0-1.6c-0.3-0.4-0.8-0.7-1.5-0.5l-2.7,0.9l-1.7-5.1l2.7-0.9c0.7-0.2,0.9-0.8,0.9-1.3c0-0.5-0.2-1.1-0.9-1.3
		l-2.7-0.9l0.9-2.8l1.7,0.5l-0.4,1.1l1,0.3c1.3,0.4,2.2,1.6,2.2,3c0,1.4-0.9,2.6-2.2,3l-1,0.3l0.6,1.7l1-0.3c1.3-0.4,2.7,0,3.5,1.1
		c0.8,1.1,0.8,2.6,0,3.7l-0.6,0.9l1.5,1.1l0.6-0.9c0.8-1.1,2.2-1.6,3.5-1.1c1.3,0.4,2.2,1.6,2.2,3l0,1.1l1.8,0l0-1.1
		c0-1.4,0.9-2.6,2.2-3c1.3-0.4,2.7,0,3.5,1.1l0.6,0.9l1.5-1.1l-0.6-0.9c-0.8-1.1-0.8-2.6,0-3.7c0.8-1.1,2.2-1.6,3.5-1.1l1,0.3
		l0.4-1.2l1.7,0.5l-1,2.9l-2.7-0.9c-0.7-0.2-1.2,0.1-1.5,0.5c-0.3,0.4-0.4,1,0,1.6l1.7,2.3l-4.4,3.2l-1.7-2.3
		c-0.4-0.6-1.1-0.6-1.5-0.5c-0.5,0.1-0.9,0.6-0.9,1.3L55.4,192.4z"/>
</g>
<g>
	<polygon class="st0" points="232.2,61.6 234.9,60 236.5,62.7 233.8,64.3 232.2,61.6 	"/>
	<polygon class="st0" points="241.6,77.8 244.3,76.3 245.9,79 243.2,80.5 241.6,77.8 	"/>
	<polygon class="st0" points="228.8,66.2 230.4,63.4 233.1,65 231.5,67.7 228.8,66.2 	"/>
	<polygon class="st0" points="245,75.5 246.6,72.8 249.3,74.4 247.8,77.1 245,75.5 	"/>
	<polygon class="st0" points="228.1,68.7 231.2,68.7 231.2,71.8 228.1,71.8 228.1,68.7 	"/>
	<polygon class="st0" points="246.9,68.7 250,68.7 250,71.8 246.9,71.8 246.9,68.7 	"/>
	<polygon class="st0" points="228.8,74.4 231.5,72.8 233.1,75.5 230.4,77.1 228.8,74.4 	"/>
	<polygon class="st0" points="245,65 247.8,63.4 249.3,66.2 246.6,67.7 245,65 	"/>
	<polygon class="st0" points="232.2,79 233.8,76.3 236.5,77.8 234.9,80.5 232.2,79 	"/>
	<polygon class="st0" points="241.6,62.7 243.2,60 245.9,61.6 244.3,64.3 241.6,62.7 	"/>
	<polygon class="st0" points="237.5,78.1 240.6,78.1 240.6,81.2 237.5,81.2 237.5,78.1 	"/>
	<polygon class="st0" points="237.5,59.3 240.6,59.3 240.6,62.5 237.5,62.5 237.5,59.3 	"/>
	<path class="st3" d="M215.2,157.6h-39.8c-1.4,0-2.5,1.1-2.5,2.5v14.9c0,2.7-2.2,5-5,5h-54.8c-2.7,0-5-2.2-5-5v-14.9
		c0-1.4-1.1-2.5-2.5-2.5H65.9c-1.4,0-2.5,1.1-2.5,2.5v16.2c0,2.4,0.5,4.8,1.4,7.1h0c2.3,5.7,7.1,9.9,13.1,11.4l9,2.6
		c17.5,5,35.5,7.5,53.7,7.5h0c18.2,0,36.2-2.5,53.7-7.5l9-2.6c5.9-1.5,10.8-5.7,13.1-11.4h0c0.9-2.2,1.4-4.6,1.4-7.1v-16.2
		C217.7,158.7,216.6,157.6,215.2,157.6"/>
	<path class="st0" d="M152.7,107.2c-4.2-4.7-7.1-10.4-8.2-16.6l-0.3-1.6c-0.4-2-0.5-4-0.5-6V62.4c0-15.5,12.6-28.1,28.1-28.1
		c15.5,0,28.1,12.6,28.1,28.1v20.5c0,2-0.2,4-0.5,6l-0.3,1.6c-1.4,8.1-5.8,15.3-12.3,20.4h25.6l-0.7-3c-2.7-11.5-4-23.3-4-35.2v-9.4
		c0-19.5-15.1-36.1-34.6-36.8c-0.5,0-0.9,0-1.4,0c-0.5,0-0.9,0-1.4,0c-19.5,0.7-34.6,17.3-34.6,36.8v9.5c0,11.8-1.3,23.6-4,35.2
		l-0.7,3h25L152.7,107.2L152.7,107.2z"/>
	<path class="st4" d="M171.8,35.9c-14.7,0-26.6,11.9-26.6,26.6v20.5c0,1.9,0.2,3.9,0.5,5.8l0.3,1.6c2.2,11.9,10.8,21.6,22.4,25
		c2.2,0.7,4.6,0.7,6.8,0c11.6-3.5,20.2-13.2,22.4-25l0.3-1.6c0.3-1.9,0.5-3.8,0.5-5.8V62.4C198.4,47.8,186.5,35.9,171.8,35.9
		 M171.9,118.9c-1.5,0-2.9-0.2-4.3-0.6c-12.7-3.8-22.2-14.4-24.6-27.5l-0.3-1.6c-0.4-2.1-0.6-4.2-0.6-6.3V62.4
		c0-16.4,13.3-29.7,29.7-29.7c16.4,0,29.7,13.3,29.7,29.7v20.5c0,2.1-0.2,4.2-0.6,6.3l-0.3,1.6c-2.4,13.1-11.9,23.7-24.6,27.5
		C174.7,118.7,173.3,118.9,171.9,118.9"/>
	<polygon class="st4" points="123.4,164.1 126.5,164.1 126.5,170.3 123.4,170.3 123.4,164.1 	"/>
	<polygon class="st4" points="217.2,164.1 220.3,164.1 220.3,170.3 217.2,170.3 217.2,164.1 	"/>
	<path class="st0" d="M170.5,27.3c-19,0.7-33.8,17-33.8,36v7h35.2v-9.4c6,6,14.2,9.4,22.6,9.4H207v-7.8c0-19.4-15.8-35.2-35.3-35.2
		C171.3,27.3,170.9,27.3,170.5,27.3"/>
	<path class="st4" d="M239.1,170.3h-3.1v-15.6c-0.8-7-5.6-12.9-12.3-15.1l-39.3-11.5v-15.7h3.1v13.4l37.1,10.8
		c7.9,2.6,13.6,9.6,14.5,17.9L239.1,170.3L239.1,170.3z"/>
	<path class="st4" d="M107.7,170.3h-3.1v-15.6c0.9-8.3,6.5-15.4,14.5-18l37.1-10.8v-13.4h3.1v15.7L120,139.7
		c-6.7,2.2-11.5,8.2-12.3,15.2L107.7,170.3L107.7,170.3z"/>
	<path class="st4" d="M171.9,162.5c-17.2-0.1-31.8-12.8-34.1-29.9l3.1-0.4c2.2,17.1,17.9,29.2,35,26.9c14-1.8,25.1-12.9,26.9-26.9
		l3.1,0.4C203.7,149.7,189.1,162.5,171.9,162.5"/>
	<polygon class="st4" points="203.2,89 209.4,89 209.4,92.2 203.2,92.2 203.2,89 	"/>
	<polygon class="st4" points="203.2,70.3 209.4,70.3 209.4,73.4 203.2,73.4 203.2,70.3 	"/>
	<path class="st4" d="M211,92.2h3.1V68.7H211V92.2L211,92.2z M217.2,95.3h-9.3V65.6h9.3V95.3L217.2,95.3z"/>
	<path class="st4" d="M173.5,98.4c-0.9,0-1.6,0.7-1.6,1.6c0,0.9,0.7,1.6,1.6,1.6l0,0h9.4v-3.1H173.5L173.5,98.4z M186,104.7h-12.5
		c-2.6,0-4.7-2.1-4.7-4.7c0-2.6,2.1-4.7,4.7-4.7h0H186v3.1l28-0.2v-4.5h3.1v7.6l-31.2,0.2V104.7L186,104.7z"/>
	<path class="st4" d="M129.5,92.2h3.2V68.7h-3.2V92.2L129.5,92.2z M135.9,95.3h-9.5V65.6h9.5V95.3L135.9,95.3z"/>
	<polygon class="st4" points="134.3,89 140.6,89 140.6,92.2 134.3,92.2 134.3,89 	"/>
	<polygon class="st4" points="134.3,70.4 140.6,70.4 140.6,73.5 134.3,73.5 134.3,70.4 	"/>
	<path class="st4" d="M210.9,67.2h-3.1v-4.7c0-19.9-16.1-36-36-36s-36,16.1-36,36v4.7h-3.1v-4.7c0-21.6,17.5-39.1,39.1-39.1
		s39.1,17.5,39.1,39.1V67.2L210.9,67.2z"/>
	<polygon class="st4" points="104.6,173.5 107.7,173.5 107.7,176.6 104.6,176.6 104.6,173.5 	"/>
	<polygon class="st4" points="123.4,173.5 126.5,173.5 126.5,176.6 123.4,176.6 123.4,173.5 	"/>
	<polygon class="st4" points="217.2,173.5 220.3,173.5 220.3,176.6 217.2,176.6 217.2,173.5 	"/>
	<polygon class="st4" points="235.9,173.5 239.1,173.5 239.1,176.6 235.9,176.6 235.9,173.5 	"/>
	<polygon class="st5" points="97.8,111.6 100.5,110 102,112.8 99.3,114.3 97.8,111.6 	"/>
	<polygon class="st5" points="107.2,127.9 109.9,126.3 111.4,129 108.7,130.6 107.2,127.9 	"/>
	<polygon class="st5" points="94.3,116.2 95.9,113.5 98.6,115 97,117.7 94.3,116.2 	"/>
	<polygon class="st5" points="110.6,125.6 112.2,122.9 114.9,124.4 113.3,127.1 110.6,125.6 	"/>
	<polygon class="st5" points="93.7,118.7 96.8,118.7 96.8,121.9 93.7,121.9 93.7,118.7 	"/>
	<polygon class="st5" points="112.4,118.7 115.5,118.7 115.5,121.9 112.4,121.9 112.4,118.7 	"/>
	<polygon class="st5" points="94.3,124.4 97,122.9 98.6,125.6 95.9,127.1 94.3,124.4 	"/>
	<polygon class="st5" points="110.6,115 113.3,113.5 114.9,116.2 112.2,117.7 110.6,115 	"/>
	<polygon class="st5" points="97.8,129 99.3,126.3 102,127.9 100.5,130.6 97.8,129 	"/>
	<polygon class="st5" points="107.2,112.8 108.7,110 111.4,111.6 109.9,114.3 107.2,112.8 	"/>
	<polygon class="st5" points="103,128.1 106.2,128.1 106.2,131.2 103,131.2 103,128.1 	"/>
	<polygon class="st5" points="103,109.4 106.2,109.4 106.2,112.5 103,112.5 103,109.4 	"/>
	<path class="st3" d="M235.3,113.4c-1.2,1.2-1.2,3.2,0,4.4s3.2,1.2,4.4,0c1.2-1.2,1.2-3.2,0-4.4
		C238.5,112.2,236.5,112.2,235.3,113.4 M241.9,120c-2.4,2.4-6.4,2.4-8.8,0c-2.4-2.4-2.4-6.4,0-8.8c2.4-2.4,6.4-2.4,8.8,0
		C244.4,113.6,244.4,117.6,241.9,120"/>
	<polygon class="st4" points="104.6,49.9 107.7,49.9 107.7,62.5 104.6,62.5 104.6,49.9 	"/>
	<polygon class="st4" points="99.9,54.6 112.4,54.6 112.4,57.8 99.9,57.8 99.9,54.6 	"/>
</g>
</svg>
