<?xml version="1.0" encoding="utf-8"?>
<!-- Generator: Adobe Illustrator 21.1.0, SVG Export Plug-In . SVG Version: 6.00 Build 0)  -->
<svg version="1.0" id="Layer_1" xmlns="http://www.w3.org/2000/svg" xmlns:xlink="http://www.w3.org/1999/xlink" x="0px" y="0px"
	 viewBox="0 0 260 230" style="enable-background:new 0 0 260 230;" xml:space="preserve">
<style type="text/css">
	.st0{fill:#DFE0E0;}
	.st1{fill:#98EA66;}
	.st2{fill:#48515A;}
	.st3{fill:#80B7F9;}
	.st4{fill:#65B940;}
	.st5{fill:#FFFFFF;}
	.st6{fill:#475059;}
</style>
<g>
	<g>
		<polygon class="st0" points="51.7,118.1 51.7,136.4 75.2,150.6 180.9,150.6 205.6,136.4 205.6,118.7 180.9,134.3 75.2,134.3 		"/>
		<rect x="160.6" y="74.2" class="st1" width="12.2" height="113"/>
		<path class="st1" d="M173.3,187.7h-13.2v-114h13.2V187.7z M161.1,186.7h11.2V74.7h-11.2V186.7z"/>
		<rect x="83.4" y="74.4" class="st1" width="12.2" height="112.8"/>
		<path class="st1" d="M96.1,187.7H82.9V73.9h13.2V187.7z M83.9,186.7h11.2V74.9H83.9V186.7z"/>
		<polygon class="st2" points="206.6,186 172.8,186 172.8,184 204.6,184 204.6,118.7 206.6,118.7 		"/>
		<rect x="95.6" y="184" class="st2" width="65" height="2"/>
		<polygon class="st2" points="83.4,186 50.7,186 50.7,118.1 52.7,118.1 52.7,184 83.4,184 		"/>
		<polygon class="st2" points="74.6,134.5 47.8,117.2 47.8,76.4 83.2,76.4 83.2,78.4 49.8,78.4 49.8,116.1 75.2,132.5 83,132.5 
			83,134.5 		"/>
		<rect x="95.9" y="76.4" class="st2" width="64.9" height="2"/>
		<polygon class="st2" points="172.5,134.4 172.5,132.4 181.2,132.4 207.4,116.1 207.4,78.4 173.5,78.4 173.5,76.4 209.4,76.4 
			209.4,117.2 181.8,134.4 		"/>
		<rect x="96.2" y="132.4" class="st2" width="64.4" height="2"/>
		<polygon class="st2" points="162.9,74.6 153.7,58.3 150.4,58.3 150.4,56.3 154.9,56.3 164.7,73.6 		"/>
		<polygon class="st2" points="94.3,74.9 92.5,73.9 102.4,56.3 113.9,56.3 113.9,58.3 103.6,58.3 		"/>
		<g>
			<path class="st2" d="M104.7,57.1h-2V42.2c0-2.4,0.7-4.7,1.9-6.8l7.3-12.1v-2.8h2v3c0,0.2-0.1,0.4-0.1,0.5l-7.4,12.3
				c-1,1.7-1.6,3.7-1.6,5.7V57.1z"/>
			<path class="st2" d="M126.6,75.4c-2.7,0-4.9-1.9-5.5-4.4c-1,0.9-2.2,1.3-3.6,1.3h-0.1c-3.1,0-5.6-2.5-5.6-5.6l0-21.9
				c0-0.6,0.5-1,1-1c0.6,0,1,0.5,1,1l0,21.9c0,2,1.6,3.5,3.6,3.5h0.1h0c0.9,0,1.8-0.4,2.4-1c0.6-0.6,1-1.5,1-2.4l0-15.9
				c0-0.3,0.1-0.5,0.3-0.7c0.2-0.2,0.4-0.3,0.7-0.3c0.6,0,1,0.5,1,1v18.8c0,2,1.6,3.6,3.6,3.6s3.6-1.6,3.6-3.6V51c0-0.6,0.5-1,1-1
				s1,0.5,1,1v15.7c0,2,1.6,3.6,3.6,3.6s3.6-1.6,3.6-3.6V51c0-0.6,0.5-1,1-1s1,0.5,1,1v14.2c0,2,1.6,3.6,3.6,3.6s3.6-1.6,3.6-3.6V51
				c0-8-1.5-15.7-4.5-23.1l-1.6-3.9c0-0.1-0.1-0.2-0.1-0.4v-3h2v2.9l1.5,3.7c3.1,7.6,4.6,15.7,4.6,23.9v14.2c0,3.1-2.5,5.6-5.6,5.6
				c-1.6,0-3-0.7-4.1-1.8c-0.9,1.9-2.8,3.3-5.1,3.3c-1.4,0-2.7-0.5-3.7-1.4C131.5,73.5,129.3,75.4,126.6,75.4"/>
			<polygon class="st2" points="100.6,151.6 78.3,151.6 78.3,137.4 83.4,137.4 83.4,139.4 80.3,139.4 80.3,149.6 98.6,149.6 
				98.6,139.4 95.6,139.4 95.6,137.4 100.6,137.4 			"/>
			<path class="st2" d="M89.5,163.9l-7.1-2.4V73.3h14.2v88.1L89.5,163.9z M84.4,160l5.1,1.7l5.1-1.7V75.4H84.4V160z"/>
			<rect x="88.5" y="144.5" class="st2" width="2" height="6.1"/>
			<polygon class="st2" points="96.6,188.2 82.4,188.2 82.4,160.7 84.4,160.7 84.4,186.2 94.6,186.2 94.6,160.7 96.6,160.7 			"/>
			<path class="st2" d="M89.5,157.7c-0.3,0-0.5-0.1-0.7-0.3c-0.1-0.1-0.2-0.2-0.2-0.3c-0.1-0.1-0.1-0.3-0.1-0.4c0-0.1,0-0.3,0.1-0.4
				c0.1-0.1,0.1-0.2,0.2-0.3c0.4-0.4,1.1-0.4,1.4,0c0.1,0.1,0.2,0.2,0.2,0.3c0.1,0.1,0.1,0.3,0.1,0.4c0,0.1,0,0.3-0.1,0.4
				c-0.1,0.1-0.1,0.2-0.2,0.3c0,0-0.1,0.1-0.2,0.1c-0.1,0-0.1,0.1-0.2,0.1c-0.1,0-0.1,0.1-0.2,0.1C89.6,157.7,89.5,157.7,89.5,157.7
				"/>
			<path class="st2" d="M89.5,137.4c-0.3,0-0.5-0.1-0.7-0.3c-0.2-0.2-0.3-0.5-0.3-0.7s0.1-0.5,0.3-0.7c0.4-0.4,1.1-0.4,1.4,0
				c0.2,0.2,0.3,0.5,0.3,0.7s-0.1,0.5-0.3,0.7C90,137.3,89.7,137.4,89.5,137.4"/>
			<rect x="79.3" y="165.8" class="st2" width="20.3" height="2"/>
			<rect x="79.3" y="106.9" class="st2" width="20.3" height="2"/>
			<polygon class="st2" points="177.9,151.6 155.5,151.6 155.5,137.4 160.6,137.4 160.6,139.4 157.6,139.4 157.6,149.6 175.9,149.6 
				175.9,139.4 172.8,139.4 172.8,137.4 177.9,137.4 			"/>
			<path class="st2" d="M166.7,163.9l-7.1-2.4V73.3h14.2v88.1L166.7,163.9z M161.6,160l5.1,1.7l5.1-1.7V75.4h-10.2V160z"/>
			<rect x="165.7" y="144.5" class="st2" width="2" height="6.1"/>
			<polygon class="st2" points="173.8,188.2 159.6,188.2 159.6,160.7 161.6,160.7 161.6,186.2 171.8,186.2 171.8,160.7 173.8,160.7 
							"/>
			<path class="st2" d="M166.7,157.7c-0.3,0-0.5-0.1-0.7-0.3c-0.2-0.2-0.3-0.4-0.3-0.7c0-0.1,0-0.3,0.1-0.4c0.1-0.1,0.1-0.2,0.2-0.3
				c0.4-0.4,1.1-0.4,1.4,0c0.1,0.1,0.2,0.2,0.2,0.3c0,0.1,0.1,0.3,0.1,0.4c0,0.3-0.1,0.5-0.3,0.7C167.2,157.6,167,157.7,166.7,157.7
				"/>
			<path class="st2" d="M166.7,137.4c-0.3,0-0.5-0.1-0.7-0.3c-0.2-0.2-0.3-0.4-0.3-0.7c0-0.1,0-0.3,0.1-0.4c0.1-0.1,0.1-0.2,0.2-0.3
				c0.4-0.4,1.1-0.4,1.4,0c0.2,0.2,0.3,0.5,0.3,0.7c0,0.1,0,0.1,0,0.2c0,0.1,0,0.1,0,0.2c0,0.1-0.1,0.1-0.1,0.2
				c0,0.1-0.1,0.1-0.1,0.2C167.2,137.3,167,137.4,166.7,137.4"/>
			<rect x="156.5" y="165.8" class="st2" width="20.3" height="2"/>
			<rect x="156.5" y="106.9" class="st2" width="20.3" height="2"/>
			<path class="st2" d="M147.4,138.4c0-0.6,0.5-1,1-1c0.6,0,1,0.5,1,1c0,0.6-0.5,1-1,1C147.9,139.4,147.4,139,147.4,138.4
				 M143.3,138.4c0-0.6,0.5-1,1-1c0.6,0,1,0.5,1,1c0,0.6-0.5,1-1,1C143.8,139.4,143.3,139,143.3,138.4 M139.3,138.4c0-0.6,0.5-1,1-1
				c0.6,0,1,0.5,1,1c0,0.6-0.5,1-1,1C139.7,139.4,139.3,139,139.3,138.4 M135.2,138.4c0-0.6,0.5-1,1-1c0.6,0,1,0.5,1,1
				c0,0.6-0.5,1-1,1C135.7,139.4,135.2,139,135.2,138.4 M131.1,138.4c0-0.6,0.5-1,1-1s1,0.5,1,1c0,0.6-0.5,1-1,1
				S131.1,139,131.1,138.4 M127.1,138.4c0-0.6,0.5-1,1-1c0.6,0,1,0.5,1,1c0,0.6-0.5,1-1,1C127.5,139.4,127.1,139,127.1,138.4
				 M123,138.4c0-0.6,0.5-1,1-1s1,0.5,1,1c0,0.6-0.5,1-1,1S123,139,123,138.4 M118.9,138.4c0-0.6,0.5-1,1-1c0.6,0,1,0.5,1,1
				c0,0.6-0.5,1-1,1C119.4,139.4,118.9,139,118.9,138.4 M114.9,138.4c0-0.6,0.5-1,1-1c0.6,0,1,0.5,1,1c0,0.6-0.5,1-1,1
				C115.3,139.4,114.9,139,114.9,138.4 M110.8,138.4c0-0.6,0.5-1,1-1s1,0.5,1,1c0,0.6-0.5,1-1,1S110.8,139,110.8,138.4 M106.8,138.4
				c0-0.6,0.5-1,1-1s1,0.5,1,1c0,0.6-0.5,1-1,1S106.8,139,106.8,138.4"/>
			<path class="st2" d="M155.5,181.1c0-0.6,0.5-1,1-1c0.6,0,1,0.5,1,1c0,0.6-0.5,1-1,1C156,182.1,155.5,181.6,155.5,181.1
				 M151.5,181.1c0-0.6,0.5-1,1-1c0.6,0,1,0.5,1,1c0,0.6-0.5,1-1,1C151.9,182.1,151.5,181.6,151.5,181.1 M147.4,181.1
				c0-0.6,0.5-1,1-1c0.6,0,1,0.5,1,1c0,0.6-0.5,1-1,1C147.9,182.1,147.4,181.6,147.4,181.1 M143.3,181.1c0-0.6,0.5-1,1-1
				c0.6,0,1,0.5,1,1c0,0.6-0.5,1-1,1C143.8,182.1,143.3,181.6,143.3,181.1 M139.3,181.1c0-0.6,0.5-1,1-1c0.6,0,1,0.5,1,1
				c0,0.6-0.5,1-1,1C139.7,182.1,139.3,181.6,139.3,181.1 M135.2,181.1c0-0.6,0.5-1,1-1c0.6,0,1,0.5,1,1c0,0.6-0.5,1-1,1
				C135.7,182.1,135.2,181.6,135.2,181.1 M131.1,181.1c0-0.6,0.5-1,1-1s1,0.5,1,1c0,0.6-0.5,1-1,1S131.1,181.6,131.1,181.1
				 M127.1,181.1c0-0.6,0.5-1,1-1c0.6,0,1,0.5,1,1c0,0.6-0.5,1-1,1C127.5,182.1,127.1,181.6,127.1,181.1 M123,181.1c0-0.6,0.5-1,1-1
				s1,0.5,1,1c0,0.6-0.5,1-1,1S123,181.6,123,181.1 M118.9,181.1c0-0.6,0.5-1,1-1c0.6,0,1,0.5,1,1c0,0.6-0.5,1-1,1
				C119.4,182.1,118.9,181.6,118.9,181.1 M114.9,181.1c0-0.6,0.5-1,1-1c0.6,0,1,0.5,1,1c0,0.6-0.5,1-1,1
				C115.3,182.1,114.9,181.6,114.9,181.1 M110.8,181.1c0-0.6,0.5-1,1-1s1,0.5,1,1c0,0.6-0.5,1-1,1S110.8,181.6,110.8,181.1
				 M106.8,181.1c0-0.6,0.5-1,1-1s1,0.5,1,1c0,0.6-0.5,1-1,1S106.8,181.6,106.8,181.1 M102.7,181.1c0-0.6,0.5-1,1-1c0.6,0,1,0.5,1,1
				c0,0.6-0.5,1-1,1C103.1,182.1,102.7,181.6,102.7,181.1 M98.6,181.1c0-0.6,0.5-1,1-1c0.6,0,1,0.5,1,1c0,0.6-0.5,1-1,1
				C99.1,182.1,98.6,181.6,98.6,181.1"/>
			<path class="st2" d="M153.5,77.4h-2V65.2c0-0.6-0.5-1-1-1v-2c1.7,0,3,1.4,3,3V77.4z"/>
			<path class="st2" d="M106.8,77.4h-2V65.2c0-1.7,1.4-3,3-3h4.1v2h-4.1c-0.6,0-1,0.5-1,1V77.4z"/>
			<path class="st2" d="M89.5,127.2c-0.3,0-0.5-0.1-0.7-0.3c-0.1-0.1-0.2-0.2-0.2-0.3c-0.1-0.1-0.1-0.3-0.1-0.4c0-0.1,0-0.3,0.1-0.4
				c0.1-0.1,0.1-0.2,0.2-0.3c0.4-0.4,1.1-0.4,1.4,0c0.1,0.1,0.2,0.2,0.2,0.3c0.1,0.1,0.1,0.3,0.1,0.4c0,0.1,0,0.3-0.1,0.4
				c-0.1,0.1-0.1,0.2-0.2,0.3c0,0-0.1,0.1-0.2,0.1c-0.1,0-0.1,0.1-0.2,0.1c-0.1,0-0.1,0.1-0.2,0.1C89.6,127.2,89.5,127.2,89.5,127.2
				"/>
			<path class="st2" d="M166.7,127.2c-0.3,0-0.5-0.1-0.7-0.3c-0.1-0.1-0.2-0.2-0.2-0.3c-0.1-0.1-0.1-0.3-0.1-0.4
				c0-0.3,0.1-0.5,0.3-0.7c0.4-0.4,1.1-0.4,1.4,0c0.1,0.1,0.1,0.1,0.1,0.2c0,0.1,0.1,0.1,0.1,0.2c0,0.1,0,0.1,0,0.2
				c0,0.1,0,0.1,0,0.2c0,0.3-0.1,0.5-0.3,0.7C167.2,127.1,167,127.2,166.7,127.2"/>
			<polyline class="st3" points="105.7,8.3 105.7,16.5 150.4,16.5 150.4,8.3 			"/>
			<path class="st2" d="M140.3,12.4h-4.1c-0.6,0-1-0.5-1-1s0.5-1,1-1h4.1c0.6,0,1,0.5,1,1S140.9,12.4,140.3,12.4"/>
			<path class="st2" d="M142.3,14.4c-1.7,0-3-1.4-3-3s1.4-3,3-3c1.7,0,3,1.4,3,3S144,14.4,142.3,14.4 M142.3,10.4c-0.6,0-1,0.5-1,1
				c0,0.6,0.5,1,1,1c0.6,0,1-0.5,1-1C143.3,10.8,142.9,10.4,142.3,10.4"/>
			<rect x="77.1" y="32.7" class="st2" width="2" height="4.1"/>
			<rect x="77.1" y="42.9" class="st2" width="2" height="4.1"/>
			<rect x="81.1" y="38.8" class="st2" width="4.1" height="2"/>
			<rect x="71" y="38.8" class="st2" width="4.1" height="2"/>
			<rect x="188.9" y="89.6" class="st2" width="2" height="4.1"/>
			<rect x="188.9" y="99.8" class="st2" width="2" height="4.1"/>
			<rect x="193" y="95.7" class="st2" width="4.1" height="2"/>
			<rect x="182.8" y="95.7" class="st2" width="4.1" height="2"/>
			<rect x="36.6" y="185.1" class="st2" width="2" height="4.1"/>
			<rect x="36.6" y="195.3" class="st2" width="2" height="4.1"/>
			<rect x="40.7" y="191.2" class="st2" width="4.1" height="2"/>
			<rect x="30.5" y="191.2" class="st2" width="4.1" height="2"/>
			<path class="st4" d="M49.7,30.7c0,2.2-1.8,4.1-4.1,4.1c-2.2,0-4.1-1.8-4.1-4.1s1.8-4.1,4.1-4.1C47.9,26.6,49.7,28.4,49.7,30.7"/>
			<path class="st4" d="M54.8,102.8c-10.6,0-19.3-8.7-19.3-19.3s8.7-19.3,19.3-19.3s19.3,8.7,19.3,19.3S65.4,102.8,54.8,102.8
				 M54.8,66.2c-9.5,0-17.3,7.7-17.3,17.3s7.7,17.3,17.3,17.3S72.1,93,72.1,83.5S64.3,66.2,54.8,66.2"/>
			<path class="st2" d="M54.8,93.7c-0.6,0-1-0.5-1-1V82.5c0-0.6,0.5-1,1-1h7.1c0.6,0,1,0.5,1,1c0,0.6-0.5,1-1,1h-6.1v9.1
				C55.8,93.2,55.4,93.7,54.8,93.7"/>
			<path class="st2" d="M54.8,70.3c-0.1,0-0.3,0-0.4-0.1c-0.1-0.1-0.2-0.1-0.3-0.2c-0.2-0.2-0.3-0.5-0.3-0.7c0-0.3,0.1-0.5,0.3-0.7
				c0.1-0.1,0.2-0.2,0.3-0.2c0.2-0.1,0.5-0.1,0.8,0c0.1,0.1,0.2,0.1,0.3,0.2c0.1,0.1,0.2,0.2,0.2,0.3c0.1,0.1,0.1,0.3,0.1,0.4
				c0,0.3-0.1,0.5-0.3,0.7c-0.1,0.1-0.2,0.2-0.3,0.2C55.1,70.3,54.9,70.3,54.8,70.3"/>
			<path class="st2" d="M54.8,98.7c-0.1,0-0.3,0-0.4-0.1c-0.1-0.1-0.2-0.1-0.3-0.2c-0.2-0.2-0.3-0.5-0.3-0.7c0-0.1,0-0.1,0-0.2
				c0-0.1,0-0.1,0.1-0.2c0-0.1,0.1-0.1,0.1-0.2c0-0.1,0.1-0.1,0.1-0.2c0.1-0.1,0.2-0.2,0.3-0.2c0.4-0.2,0.8-0.1,1.1,0.2
				c0.1,0.1,0.1,0.1,0.1,0.2c0,0.1,0.1,0.1,0.1,0.2c0,0.1,0,0.1,0.1,0.2c0,0.1,0,0.1,0,0.2c0,0.1,0,0.3-0.1,0.4
				c-0.1,0.1-0.1,0.2-0.2,0.3c-0.1,0.1-0.2,0.2-0.3,0.2C55.1,98.7,54.9,98.7,54.8,98.7"/>
			<path class="st2" d="M47.7,72.2c-0.1,0-0.3,0-0.4-0.1c-0.1-0.1-0.2-0.1-0.3-0.2c-0.1-0.1-0.2-0.2-0.2-0.3
				c-0.1-0.1-0.1-0.3-0.1-0.4s0-0.3,0.1-0.4c0.1-0.1,0.1-0.2,0.2-0.3c0.4-0.4,1.1-0.4,1.4,0c0.1,0.1,0.2,0.2,0.2,0.3
				c0.1,0.1,0.1,0.3,0.1,0.4s0,0.3-0.1,0.4c-0.1,0.1-0.1,0.2-0.2,0.3c-0.1,0.1-0.2,0.2-0.3,0.2C47.9,72.2,47.8,72.2,47.7,72.2"/>
			<path class="st2" d="M61.9,96.8c-0.1,0-0.3,0-0.4-0.1c-0.1-0.1-0.2-0.1-0.3-0.2c-0.2-0.2-0.3-0.4-0.3-0.7c0-0.3,0.1-0.5,0.3-0.7
				c0.1-0.1,0.2-0.2,0.3-0.2c0.2-0.1,0.5-0.1,0.8,0c0.1,0.1,0.2,0.1,0.3,0.2c0.2,0.2,0.3,0.4,0.3,0.7c0,0.3-0.1,0.5-0.3,0.7
				c-0.1,0.1-0.2,0.2-0.3,0.2C62.2,96.8,62,96.8,61.9,96.8"/>
			<path class="st2" d="M42.5,77.4c-0.1,0-0.3,0-0.4-0.1c-0.1-0.1-0.2-0.1-0.3-0.2c-0.1-0.1-0.1-0.1-0.1-0.2c0-0.1-0.1-0.1-0.1-0.2
				c0-0.1,0-0.1-0.1-0.2c0-0.1,0-0.1,0-0.2c0-0.3,0.1-0.5,0.3-0.7c0.1-0.1,0.2-0.2,0.3-0.2c0.2-0.1,0.5-0.1,0.8,0
				c0.1,0.1,0.2,0.1,0.3,0.2c0.2,0.2,0.3,0.5,0.3,0.7c0,0.1,0,0.1,0,0.2c0,0.1,0,0.1-0.1,0.2c0,0.1-0.1,0.1-0.1,0.2
				c0,0.1-0.1,0.1-0.1,0.2c-0.1,0.1-0.2,0.2-0.3,0.2C42.7,77.4,42.6,77.4,42.5,77.4"/>
			<path class="st2" d="M67.1,91.6c-0.3,0-0.5-0.1-0.7-0.3c-0.2-0.2-0.3-0.5-0.3-0.7c0-0.3,0.1-0.5,0.3-0.7c0,0,0.1-0.1,0.2-0.1
				c0.1,0,0.1-0.1,0.2-0.1c0.1,0,0.1-0.1,0.2-0.1c0.3-0.1,0.7,0,0.9,0.3c0.2,0.2,0.3,0.5,0.3,0.7c0,0.3-0.1,0.5-0.3,0.7
				C67.6,91.5,67.4,91.6,67.1,91.6"/>
			<path class="st2" d="M40.6,84.5c-0.1,0-0.1,0-0.2,0c-0.1,0-0.1,0-0.2-0.1c-0.1,0-0.1-0.1-0.2-0.1c-0.1,0-0.1-0.1-0.2-0.1
				c-0.1-0.1-0.2-0.2-0.2-0.3c-0.1-0.1-0.1-0.3-0.1-0.4c0-0.3,0.1-0.5,0.3-0.7c0,0,0.1-0.1,0.2-0.1c0.1,0,0.1-0.1,0.2-0.1
				c0.1,0,0.1-0.1,0.2-0.1c0.2,0,0.4,0,0.6,0.1c0.1,0.1,0.2,0.1,0.3,0.2c0.2,0.2,0.3,0.5,0.3,0.7c0,0.3-0.1,0.5-0.3,0.7
				c-0.1,0.1-0.2,0.2-0.3,0.2C40.8,84.5,40.7,84.5,40.6,84.5"/>
			<path class="st2" d="M69,84.5c-0.1,0-0.3,0-0.4-0.1c-0.1-0.1-0.2-0.1-0.3-0.2C68.1,84,68,83.8,68,83.5c0-0.3,0.1-0.5,0.3-0.7
				c0.1-0.1,0.2-0.2,0.3-0.2c0.4-0.2,0.8-0.1,1.1,0.2c0.2,0.2,0.3,0.5,0.3,0.7c0,0.3-0.1,0.5-0.3,0.7C69.6,84.4,69.3,84.5,69,84.5"
				/>
			<path class="st2" d="M42.5,91.6c-0.1,0-0.3,0-0.4-0.1c-0.1-0.1-0.2-0.1-0.3-0.2c-0.1-0.1-0.2-0.2-0.2-0.3
				c-0.1-0.1-0.1-0.3-0.1-0.4c0-0.1,0-0.1,0-0.2c0-0.1,0-0.1,0.1-0.2c0-0.1,0.1-0.1,0.1-0.2c0-0.1,0.1-0.1,0.1-0.2
				c0.1-0.1,0.2-0.2,0.3-0.2c0.4-0.2,0.8-0.1,1.1,0.2c0,0.1,0.1,0.1,0.1,0.2c0,0.1,0.1,0.1,0.1,0.2c0,0.1,0.1,0.1,0.1,0.2
				c0,0.1,0,0.1,0,0.2c0,0.1,0,0.3-0.1,0.4c-0.1,0.1-0.1,0.2-0.2,0.3C43,91.5,42.7,91.6,42.5,91.6"/>
			<path class="st2" d="M67.1,77.4c-0.3,0-0.5-0.1-0.7-0.3c-0.2-0.2-0.3-0.5-0.3-0.7c0-0.3,0.1-0.5,0.3-0.7c0.4-0.4,1.1-0.4,1.4,0
				c0.2,0.2,0.3,0.5,0.3,0.7c0,0.3-0.1,0.5-0.3,0.7C67.6,77.3,67.4,77.4,67.1,77.4"/>
			<path class="st2" d="M47.7,96.8c-0.1,0-0.3,0-0.4-0.1c-0.1-0.1-0.2-0.1-0.3-0.2c-0.2-0.2-0.3-0.4-0.3-0.7c0-0.1,0-0.1,0-0.2
				c0-0.1,0-0.1,0.1-0.2c0-0.1,0.1-0.1,0.1-0.2c0-0.1,0.1-0.1,0.1-0.2c0.4-0.4,1.1-0.4,1.4,0c0,0,0.1,0.1,0.1,0.2
				c0,0.1,0.1,0.1,0.1,0.2c0,0.1,0,0.1,0.1,0.2c0,0.1,0,0.1,0,0.2c0,0.3-0.1,0.5-0.3,0.7c-0.1,0.1-0.2,0.2-0.3,0.2
				C47.9,96.8,47.8,96.8,47.7,96.8"/>
			<path class="st2" d="M61.9,72.2c-0.1,0-0.3,0-0.4-0.1c-0.1-0.1-0.2-0.1-0.3-0.2c-0.2-0.2-0.3-0.4-0.3-0.7c0-0.1,0-0.3,0.1-0.4
				c0.1-0.1,0.1-0.2,0.2-0.3c0.1-0.1,0.2-0.2,0.3-0.2c0.2-0.1,0.5-0.1,0.8,0c0.1,0.1,0.2,0.1,0.3,0.2c0.1,0.1,0.2,0.2,0.2,0.3
				c0.1,0.1,0.1,0.3,0.1,0.4c0,0.3-0.1,0.5-0.3,0.7c-0.1,0.1-0.2,0.2-0.3,0.2C62.2,72.2,62,72.2,61.9,72.2"/>
			<polygon class="st2" points="147.4,21.5 108.8,21.5 108.8,16.5 110.8,16.5 110.8,19.5 145.4,19.5 145.4,16.5 147.4,16.5 			"/>
		</g>
	</g>
</g>
<path class="st2" d="M149.4,203.9c-3.4,0-6.1-2.7-6.1-6.1c0-3.3,2.8-6.1,6.1-6.1c3.4,0,6.1,2.7,6.1,6.1v2c0,0.6,0.5,1,1,1s1-0.5,1-1
	c0-1.7,1.4-3,3-3c1.7,0,3,1.4,3,3c0,0.6,0.5,1,1,1c0.6,0,1,0.5,1,1c0,0.6-0.5,1-1,1c-1.7,0-3-1.4-3-3c0-0.6-0.5-1-1-1
	c-0.6,0-1,0.5-1,1c0,1.7-1.4,3-3,3c-1.7,0-3-1.4-3-3v-2c0-2.2-1.8-4.1-4.1-4.1c-2.2,0-4.1,1.9-4.1,4.1c0,2.2,1.8,4.1,4.1,4.1
	c0.6,0,1,0.5,1,1S150,203.9,149.4,203.9"/>
<path class="st2" d="M168.7,202.9c-0.1,0-0.3,0-0.4-0.1c-0.1-0.1-0.2-0.1-0.3-0.2c-0.2-0.2-0.3-0.4-0.3-0.7c0-0.1,0-0.3,0.1-0.4
	c0.1-0.1,0.1-0.2,0.2-0.3s0.2-0.2,0.3-0.2c0.2-0.1,0.4-0.1,0.6-0.1c0.1,0,0.1,0,0.2,0.1c0.1,0,0.1,0.1,0.2,0.1
	c0.1,0,0.1,0.1,0.2,0.1c0.1,0.1,0.2,0.2,0.2,0.3c0.1,0.1,0.1,0.3,0.1,0.4c0,0.3-0.1,0.5-0.3,0.7c-0.1,0.1-0.2,0.2-0.3,0.2
	C169,202.8,168.9,202.9,168.7,202.9"/>
<path class="st2" d="M139.3,207c-0.3,0-0.5-0.1-0.7-0.3c-0.1-0.1-0.2-0.2-0.2-0.3c0-0.1-0.1-0.3-0.1-0.4c0-0.1,0-0.3,0.1-0.4
	c0.1-0.1,0.1-0.2,0.2-0.3c0.2-0.2,0.6-0.3,0.9-0.3c0.1,0,0.1,0,0.2,0.1c0.1,0,0.1,0.1,0.2,0.1c0.1,0,0.1,0.1,0.2,0.1
	c0.1,0.1,0.2,0.2,0.2,0.3c0.1,0.1,0.1,0.3,0.1,0.4c0,0.1,0,0.3-0.1,0.4c-0.1,0.1-0.1,0.2-0.2,0.3C139.8,206.9,139.5,207,139.3,207"
	/>
<path class="st2" d="M170.8,206c0-0.6,0.4-1,1-1c0.6,0,1,0.5,1,1c0,0.6-0.5,1-1,1C171.2,207,170.8,206.5,170.8,206 M166.7,206
	c0-0.6,0.4-1,1-1c0.6,0,1,0.5,1,1c0,0.6-0.5,1-1,1C167.2,207,166.7,206.5,166.7,206 M162.6,206c0-0.6,0.4-1,1-1c0.6,0,1,0.5,1,1
	c0,0.6-0.5,1-1,1C163.1,207,162.6,206.5,162.6,206 M158.6,206c0-0.6,0.5-1,1-1c0.6,0,1,0.5,1,1c0,0.6-0.5,1-1,1
	C159,207,158.6,206.5,158.6,206 M154.5,206c0-0.6,0.5-1,1-1c0.6,0,1,0.5,1,1c0,0.6-0.5,1-1,1C155,207,154.5,206.5,154.5,206
	 M150.4,206c0-0.6,0.5-1,1-1c0.6,0,1,0.5,1,1c0,0.6-0.5,1-1,1C150.9,207,150.4,206.5,150.4,206 M146.4,206c0-0.6,0.4-1,1-1
	c0.6,0,1,0.5,1,1c0,0.6-0.5,1-1,1C146.8,207,146.4,206.5,146.4,206 M142.3,206c0-0.6,0.5-1,1-1c0.6,0,1,0.5,1,1c0,0.6-0.5,1-1,1
	C142.8,207,142.3,206.5,142.3,206"/>
<path class="st5" d="M187.1,194.3l59.8-59.8c1.2-1.2,1.2-3.1,0-4.3s-3.1-1.2-4.3,0L182.8,190l-2.5,6.8L187.1,194.3z"/>
<path class="st2" d="M175.9,207c-0.3,0-0.5-0.1-0.7-0.3c-0.1-0.1-0.2-0.2-0.2-0.3c0-0.1-0.1-0.3-0.1-0.4c0-0.1,0-0.3,0.1-0.4
	c0.1-0.1,0.1-0.2,0.2-0.3c0.4-0.4,1.1-0.4,1.4,0c0.1,0.1,0.2,0.2,0.2,0.3c0.1,0.1,0.1,0.3,0.1,0.4c0,0.1,0,0.3-0.1,0.4
	c-0.1,0.1-0.1,0.2-0.2,0.3c-0.1,0.1-0.2,0.2-0.3,0.2C176.1,207,176,207,175.9,207"/>
<g>
	<path class="st6" d="M248.3,136l-60.1,60.1l-11.4,4.2l4.2-11.4l60.1-60.1c2-2,5.2-2,7.2,0C250.3,130.8,250.3,134,248.3,136
		 M187.1,194.3l59.8-59.8c1.2-1.2,1.2-3.1,0-4.3s-3.1-1.2-4.3,0L182.8,190l-2.5,6.8L187.1,194.3z"/>
	
		<rect x="239.1" y="133.4" transform="matrix(0.7071 -0.7071 0.7071 0.7071 -26.7443 210.015)" class="st6" width="2" height="7.7"/>
	<rect x="174" y="163.4" transform="matrix(0.7071 -0.7071 0.7071 0.7071 -53.9883 198.537)" class="st6" width="77.3" height="2"/>
</g>
<g>
	<path class="st2" d="M197.1,60.6c-1.8,0-3.3-1.5-3.3-3.3c0-1.8,1.5-3.3,3.3-3.3c1.8,0,3.3,1.5,3.3,3.3
		C200.4,59.1,198.9,60.6,197.1,60.6 M197.1,55.3c-1.1,0-2,0.9-2,2s0.9,2,2,2c1.1,0,2-0.9,2-2S198.2,55.3,197.1,55.3"/>
	<g>
		<polygon class="st4" points="191.2,68 191.2,84.9 197.1,81.9 203,84.9 203,68 197.2,70.3 		"/>
		<path class="st2" d="M197,70.5c-7.3,0-13.2-5.9-13.2-13.2s5.9-13.2,13.2-13.2c7.3,0,13.2,5.9,13.2,13.2S204.3,70.5,197,70.5
			 M197,46.1c-6.2,0-11.2,5-11.2,11.2s5,11.2,11.2,11.2s11.2-5,11.2-11.2S203.2,46.1,197,46.1"/>
		<path class="st1" d="M205.2,57.3c0,4.5-3.6,8.1-8.1,8.1c-4.5,0-8.1-3.6-8.1-8.1s3.6-8.1,8.1-8.1C201.5,49.1,205.2,52.8,205.2,57.3
			"/>
	</g>
</g>
</svg>
