<?xml version="1.0" encoding="utf-8"?>
<!-- Generator: Adobe Illustrator 21.1.0, SVG Export Plug-In . SVG Version: 6.00 Build 0)  -->
<svg version="1.0" id="Layer_1" xmlns="http://www.w3.org/2000/svg" xmlns:xlink="http://www.w3.org/1999/xlink" x="0px" y="0px"
	 viewBox="0 0 260 230" style="enable-background:new 0 0 260 230;" xml:space="preserve">
<style type="text/css">
	.st0{fill:#80B7F9;}
	.st1{fill:#48515A;}
	.st2{fill:#475059;}
	.st3{fill:#DFE0E0;}
	.st4{fill:#98EA66;}
</style>
<g>
	<g>
		<g>
			<path class="st0" d="M193.2,127.6c-1.2-1.8-15.7-22.6-25.4-32.6l-3.2,5.1l-11.7-21.4l21.4,5.3l-3.4,5.7
				c10.7,10.5,18.1,20.3,22.6,27c-2.1-32.4-29-58-61.9-58c-34.2,0-62,27.8-62,62c0,31.2,23,56.9,52.9,61.3c1.3-0.7,2.7-1,4.2-1
				c2,0,3.8,0.6,5.2,1.7c1.1,0,2.3,0,3.4-0.1c10.5-6.6,20.9-14.7,30.7-24.2l-5.1-3.2l21.4-11.7l-4.6,18.6
				C186.1,152.5,191.7,140.6,193.2,127.6"/>
			<path class="st0" d="M171.5,161.2c-7,6.9-14.3,13.1-21.7,18.6c10-3.1,19-8.6,26.1-15.9L171.5,161.2z"/>
			<path class="st1" d="M147.6,57.5c28.1,7.2,49,32.7,49,63c0,0.5,0,1,0,1.6c0.9,1.2,1.5,2.2,1.9,2.7c0.1-1.4,0.2-2.8,0.2-4.3
				c0-36.9-30.1-67-67-67c0.3,0,0.6,0,0.9,0.1C137.8,53.8,142.9,55.2,147.6,57.5"/>
			<path class="st1" d="M131.6,53.5c-0.2,0-0.4,0-0.6,0c0.1,0,0.2,0,0.3,0C131.4,53.5,131.5,53.5,131.6,53.5"/>
			<path class="st1" d="M111,182.1c-25.8-8.6-44.4-33-44.4-61.6s18.6-53,44.4-61.6c5.2-3,10.8-4.8,16.6-5.2
				c-35.1,2-63.1,31.3-63.1,66.9c0,32.4,23.2,59.6,53.8,65.7c0.1-0.2,0.2-0.4,0.3-0.6C116.1,184.7,113.5,183.6,111,182.1"/>
			<path class="st1" d="M143.1,184.5c-1.3,0.9-2.7,1.8-4,2.6c28.5-3.2,51.7-24.4,57.8-51.9c-0.5-1-1-2-1.4-2.9
				C190.6,158.8,169.7,179.7,143.1,184.5"/>
			<path class="st1" d="M174.1,92.9c1.1,1.2,2.2,2.5,3.3,3.8c-1.1-3.9-2.5-7.7-4.1-11.2l-1.2,2.1C172.7,89.3,173.4,91.1,174.1,92.9"
				/>
			<path class="st1" d="M119.9,183.9c-21.3-6.6-37.3-32.5-37.3-63.4c0-33.5,18.8-61.1,42.8-64.6c0,0,0.1-0.1,0.1-0.1
				c-5,0.5-9.9,1.5-14.5,3.1c-17.9,10.2-30.4,34-30.4,61.6c0,27.6,12.6,51.4,30.4,61.6c2.8,0.9,5.6,1.7,8.5,2.2
				C119.7,184.2,119.8,184,119.9,183.9"/>
			<path class="st1" d="M178.6,120.5c0,7.4-0.9,14.7-2.7,21.6c-0.1,0.5,0.2,1.1,0.7,1.2c0.5,0.1,1.1-0.2,1.2-0.7
				c1.8-7.1,2.8-14.5,2.8-22.1c0-3.8-0.2-7.5-0.7-11.1c-0.8-1.1-1.6-2.1-2.5-3.2C178.2,110.8,178.6,115.6,178.6,120.5"/>
			<path class="st1" d="M130.6,53.5c-1,0-2,0-2.9,0.1c1.1-0.1,2.2-0.1,3.4-0.1C130.9,53.5,130.7,53.5,130.6,53.5"/>
			<path class="st1" d="M132.3,55.6c-0.2,0-0.5-0.1-0.7-0.1c-0.1,0-0.2,0-0.3,0C131.6,55.5,132,55.5,132.3,55.6"/>
			<path class="st1" d="M138.4,56.4c12.8,2.8,23.9,12.6,31.2,26.3l2.6,0.6c-5.9-11.8-14.5-20.9-24.6-25.8c-3.2-0.8-6.5-1.4-9.9-1.7
				C137.9,56,138.2,56.2,138.4,56.4"/>
			<path class="st1" d="M147.6,57.5c-4.7-2.3-9.8-3.7-15.1-3.9c1.8,0.2,3.5,1,5.2,2.2C141.1,56.1,144.4,56.7,147.6,57.5"/>
			<path class="st1" d="M111,182.1c2.5,1.4,5.1,2.6,7.7,3.4c0.2-0.4,0.5-0.8,0.8-1.2C116.6,183.8,113.8,183.1,111,182.1"/>
			<path class="st1" d="M125.5,55.8c1.8-1.4,3.8-2.2,5.8-2.3c-0.1,0-0.2,0-0.3,0c-1.1,0-2.3,0-3.4,0.1c-5.9,0.5-11.5,2.3-16.6,5.2
				C115.6,57.3,120.5,56.3,125.5,55.8"/>
			<path class="st1" d="M75.6,93.5h6c0.6,0,1-0.4,1-1s-0.4-1-1-1h-6c-0.6,0-1,0.4-1,1S75,93.5,75.6,93.5"/>
			<path class="st1" d="M91.6,93.5h16c0.6,0,1-0.4,1-1s-0.4-1-1-1h-16c-0.6,0-1,0.4-1,1S91,93.5,91.6,93.5"/>
			<path class="st1" d="M187.6,91.5h-8c-0.6,0-1,0.4-1,1s0.4,1,1,1h8c0.6,0,1-0.4,1-1S188.2,91.5,187.6,91.5"/>
			<path class="st1" d="M81.6,147.5h-6c-0.6,0-1,0.4-1,1c0,0.6,0.4,1,1,1h6c0.6,0,1-0.4,1-1C82.6,147.9,82.2,147.5,81.6,147.5"/>
			<path class="st1" d="M107.6,147.5h-18c-0.6,0-1,0.4-1,1c0,0.6,0.4,1,1,1h18c0.6,0,1-0.4,1-1C108.6,147.9,108.2,147.5,107.6,147.5
				"/>
			<path class="st1" d="M115.6,93.5h32c0.6,0,1-0.4,1-1s-0.4-1-1-1h-32c-0.6,0-1,0.4-1,1S115,93.5,115.6,93.5"/>
			<path class="st1" d="M147.6,147.5h-32c-0.6,0-1,0.4-1,1c0,0.6,0.4,1,1,1h32c0.6,0,1-0.4,1-1C148.6,147.9,148.2,147.5,147.6,147.5
				"/>
			<path class="st1" d="M187.6,147.5h-4c-0.6,0-1,0.4-1,1c0,0.6,0.4,1,1,1h4c0.6,0,1-0.4,1-1C188.6,147.9,188.2,147.5,187.6,147.5"
				/>
			<path class="st1" d="M152.5,113.8l2,0.9c-0.8-28-7.2-50.5-16.1-58.3c-2-0.4-4-0.7-6.1-0.8C142.7,56.7,151.4,82.3,152.5,113.8"/>
			<path class="st1" d="M152.6,116L152.6,116C152.5,116,152.5,116,152.6,116L152.6,116z"/>
			<path class="st1" d="M152.6,120.5c0,1.6,0,3.3-0.1,4.9l2,2c0.1-2.2,0.1-4.5,0.1-6.8c0-1.1,0-2.3,0-3.4l-2,1.2
				C152.6,119,152.6,119.8,152.6,120.5"/>
			<path class="st1" d="M108.6,120.5c0,27.9,5.6,51.2,13.7,61.4c0.6-0.3,1.2-0.6,1.9-0.8c-7.9-9.5-13.6-33.4-13.6-60.6
				c0-34.9,9.5-64.5,20.7-65c-0.1,0-0.2,0-0.3,0c-1.1,0-2.2,0-3.2,0.1c-0.8,0.1-1.6,0.2-2.4,0.3C115.6,63.6,108.6,89.2,108.6,120.5"
				/>
			<path class="st1" d="M140.7,178.9c1.3-0.9,2.6-1.8,3.9-2.7c5.2-10.1,8.8-26.3,9.8-45.3l-2.2,2.2C150.9,153,146.5,170,140.7,178.9
				"/>
			<path class="st1" d="M153.3,129l-0.9-0.9c0,0.6,0,1.3-0.1,1.9L153.3,129z"/>
			<path class="st1" d="M130.6,55.5c-0.9,0-1.9,0-2.8,0.1c1.1-0.1,2.2-0.1,3.2-0.1C130.9,55.5,130.7,55.5,130.6,55.5"/>
			<path class="st1" d="M132.5,53.6c-0.3,0-0.6-0.1-0.9-0.1c-0.1,0-0.2,0-0.3,0C131.7,53.5,132.1,53.5,132.5,53.6"/>
			<path class="st1" d="M131.6,55.5c0.2,0,0.5,0,0.7,0.1c2.1,0.1,4.1,0.4,6.1,0.8c-0.2-0.2-0.5-0.4-0.7-0.6
				C135.7,55.6,133.7,55.5,131.6,55.5"/>
			<path class="st1" d="M131.6,55.5c-0.2,0-0.4,0-0.6,0c0.1,0,0.2,0,0.3,0C131.4,55.5,131.5,55.5,131.6,55.5"/>
			<path class="st1" d="M127.8,55.6c-0.8,0-1.5,0.1-2.3,0.2c0,0-0.1,0.1-0.1,0.1C126.2,55.8,127,55.7,127.8,55.6"/>
			<path class="st1" d="M130.6,55.5c0.1,0,0.3,0,0.4,0c0.2,0,0.4,0,0.6,0c2.1,0,4.1,0.1,6.1,0.3c-1.7-1.3-3.4-2-5.2-2.2
				c-0.4,0-0.8,0-1.2,0c-2,0.1-3.9,0.9-5.8,2.3c0.8-0.1,1.5-0.1,2.3-0.2C128.7,55.5,129.6,55.5,130.6,55.5"/>
			<path class="st1" d="M167.6,147.5h-12c-0.6,0-1,0.4-1,1c0,0.6,0.4,1,1,1h12c0.6,0,1-0.4,1-1C168.6,147.9,168.1,147.5,167.6,147.5
				"/>
			<path class="st1" d="M155.6,91.5c-0.6,0-1,0.4-1,1s0.4,1,1,1h5.4l-1.1-2H155.6z"/>
			<path class="st1" d="M208.4,52.5c-0.2,0.2-0.5,0.3-0.7,0.3c-0.3,0-0.5-0.1-0.7-0.3c0,0,0,0,0,0l0,0c7.2,7.2,9.4,18.8,6.3,33.5
				l2,0.4c3.2-15.3,0.9-27.4-6.5-35.1C208.8,51.7,208.7,52.2,208.4,52.5"/>
			<path class="st1" d="M213,89.1c-0.1,0.1-0.2,0.2-0.2,0.3c-0.1,0.1-0.1,0.3-0.1,0.4c0,0.3,0.1,0.5,0.3,0.7
				c0.2,0.2,0.4,0.3,0.7,0.3c0.3,0,0.5-0.1,0.7-0.3c0.2-0.2,0.3-0.4,0.3-0.7c0-0.1,0-0.3-0.1-0.4c-0.1-0.1-0.1-0.2-0.2-0.3
				C214,88.7,213.3,88.7,213,89.1"/>
			<path class="st1" d="M65.3,141.4c0.1-0.1,0.2-0.1,0.3-0.2c0.2-0.2,0.3-0.4,0.3-0.7c0-0.3-0.1-0.5-0.3-0.7c0,0-0.1-0.1-0.2-0.1
				c0,0-0.1-0.1-0.2-0.1c-0.1,0-0.1-0.1-0.2-0.1c-0.2,0-0.4,0-0.6,0.1c-0.1,0.1-0.2,0.1-0.3,0.2c-0.2,0.2-0.3,0.5-0.3,0.7
				c0,0.3,0.1,0.5,0.3,0.7c0.2,0.2,0.4,0.3,0.7,0.3C65,141.5,65.2,141.5,65.3,141.4"/>
			<path class="st1" d="M56.2,167.9c0,0.6,0.4,1,0.9,1.1h0.1c0.5,0,1-0.4,1-0.9c0-0.6-0.4-1-0.9-1.1
				C56.7,166.9,56.2,167.3,56.2,167.9"/>
			<path class="st1" d="M59.4,160.1c0.1-0.5-0.2-1.1-0.8-1.2c-0.5-0.1-1.1,0.2-1.2,0.8c-0.1,0.5,0.2,1.1,0.8,1.2c0.1,0,0.1,0,0.2,0
				C58.9,160.9,59.3,160.5,59.4,160.1"/>
			<path class="st1" d="M58.7,164c0.1-0.5-0.3-1.1-0.8-1.1c-0.5-0.1-1,0.3-1.1,0.8c-0.1,0.5,0.3,1.1,0.8,1.1c0,0,0.1,0,0.2,0
				C58.2,164.9,58.6,164.5,58.7,164"/>
			<path class="st1" d="M60.3,156.1c0.1-0.5-0.2-1.1-0.7-1.2c-0.5-0.1-1.1,0.2-1.2,0.7c-0.1,0.5,0.2,1.1,0.7,1.2c0.1,0,0.2,0,0.3,0
				C59.8,156.9,60.2,156.6,60.3,156.1"/>
			<path class="st1" d="M61.5,152.3c0.2-0.5-0.1-1.1-0.6-1.3c-0.5-0.2-1.1,0.1-1.3,0.6c-0.2,0.5,0.1,1.1,0.6,1.3c0.1,0,0.2,0,0.3,0
				C60.9,153,61.3,152.7,61.5,152.3"/>
			<path class="st1" d="M63.1,190.9c-0.3-0.4-0.9-0.6-1.4-0.2c-0.4,0.3-0.6,0.9-0.2,1.4c0.2,0.3,0.5,0.4,0.8,0.4
				c0.2,0,0.4-0.1,0.6-0.2C63.3,191.9,63.4,191.3,63.1,190.9"/>
			<path class="st1" d="M58.6,180c-0.1-0.6-0.6-0.9-1.2-0.8c-0.6,0.1-0.9,0.6-0.8,1.2c0.1,0.5,0.5,0.8,1,0.8c0.1,0,0.1,0,0.2,0
				C58.4,181.1,58.7,180.5,58.6,180"/>
			<path class="st1" d="M59.6,183.8c-0.2-0.5-0.7-0.8-1.3-0.6c-0.5,0.2-0.8,0.7-0.6,1.3c0.1,0.4,0.5,0.7,1,0.7c0.1,0,0.2,0,0.3,0
				C59.5,184.9,59.8,184.4,59.6,183.8"/>
			<path class="st1" d="M62.8,148.4c0.2-0.5-0.1-1.1-0.6-1.3c-0.5-0.2-1.1,0.1-1.3,0.6c-0.2,0.5,0.1,1.1,0.6,1.3
				c0.1,0,0.2,0.1,0.3,0.1C62.2,149.1,62.6,148.8,62.8,148.4"/>
			<path class="st1" d="M63.3,145.3c0.4,0,0.8-0.2,0.9-0.6c0.2-0.5,0-1.1-0.5-1.3c-0.5-0.2-1.1,0-1.3,0.6c-0.2,0.5,0,1.1,0.6,1.3
				C63,145.2,63.2,145.3,63.3,145.3"/>
			<path class="st1" d="M57,173L57,173c0.6,0,1-0.4,1-1c0-0.6-0.4-1-1-1c-0.5,0-1,0.4-1,1C56,172.6,56.4,173,57,173"/>
			<path class="st1" d="M59.7,187c-0.5,0.2-0.7,0.8-0.5,1.3c0.2,0.3,0.5,0.6,0.9,0.6c0.2,0,0.3,0,0.4-0.1c0.5-0.3,0.7-0.8,0.5-1.3
				C60.8,187,60.2,186.8,59.7,187"/>
			<path class="st1" d="M57.2,177.1c0.5,0,1-0.5,0.9-1.1c0-0.6-0.5-1-1.1-0.9c-0.5,0-1,0.5-0.9,1.1
				C56.2,176.7,56.6,177.1,57.2,177.1C57.1,177.1,57.2,177.1,57.2,177.1"/>
			<path class="st1" d="M65.3,193.7c-0.3-0.1-0.5-0.1-0.8,0c-0.1,0.1-0.2,0.1-0.3,0.2c-0.2,0.2-0.3,0.4-0.3,0.7
				c0,0.3,0.1,0.5,0.3,0.7c0,0,0,0,0,0l1.4-1.4C65.5,193.8,65.4,193.7,65.3,193.7"/>
			<path class="st1" d="M189.6,45L189.6,45c0.6,0,1-0.4,1.1-0.9c0.1-0.5-0.4-1-0.9-1.1h0c-0.5,0-1,0.3-1.1,0.9
				C188.7,44.5,189.1,45,189.6,45"/>
			<path class="st1" d="M185.7,44.8c0.6,0,1-0.4,1-1c0-0.6-0.4-1-1-1s-1,0.5-1,1C184.7,44.4,185.2,44.8,185.7,44.8"/>
			<path class="st1" d="M181.7,45L181.7,45c0.6,0,1-0.5,1-1.1c0-0.6-0.5-1-1.1-0.9c-0.6,0-1,0.5-0.9,1.1
				C180.8,44.6,181.2,45,181.7,45"/>
			<path class="st1" d="M177.8,45.4c0.1,0,0.1,0,0.1,0c0.5-0.1,0.9-0.6,0.9-1.1c-0.1-0.5-0.6-0.9-1.1-0.8c-0.6,0.1-0.9,0.6-0.9,1.1
				C176.8,45.1,177.3,45.4,177.8,45.4"/>
			<path class="st1" d="M173.8,46.1c0.1,0,0.1,0,0.2,0h0c0.5-0.1,0.9-0.6,0.8-1.2c-0.1-0.5-0.6-0.9-1.2-0.8
				c-0.5,0.1-0.9,0.6-0.8,1.2C172.9,45.8,173.4,46.1,173.8,46.1"/>
			<path class="st1" d="M193.5,45.6c0.1,0,0.1,0,0.2,0c0.5,0,0.9-0.3,1-0.8c0.1-0.6-0.2-1.1-0.8-1.2c-0.6-0.1-1.1,0.2-1.2,0.8
				C192.6,44.9,192.9,45.5,193.5,45.6"/>
			<path class="st1" d="M154.8,52.2c0.1,0,0.3,0,0.4-0.1c0.5-0.2,0.7-0.8,0.5-1.3c-0.2-0.5-0.8-0.7-1.3-0.5h0
				c-0.5,0.2-0.7,0.8-0.5,1.3C154.1,52,154.4,52.2,154.8,52.2"/>
			<path class="st1" d="M169.9,47c0.1,0,0.2,0,0.2,0h0c0.5-0.1,0.8-0.7,0.7-1.2c-0.1-0.5-0.7-0.9-1.2-0.7c-0.5,0.1-0.9,0.7-0.7,1.2
				C169.1,46.7,169.5,47,169.9,47"/>
			<path class="st1" d="M204.7,50.2c0.3,0,0.6-0.2,0.8-0.4c0.3-0.5,0.2-1.1-0.2-1.4v0c-0.4-0.3-1.1-0.2-1.4,0.2
				c-0.3,0.4-0.2,1.1,0.2,1.4C204.3,50.1,204.5,50.2,204.7,50.2"/>
			<path class="st1" d="M151.2,53.9c0.1,0,0.3,0,0.4-0.1c0.5-0.2,0.7-0.8,0.5-1.3c-0.2-0.5-0.8-0.7-1.3-0.5
				c-0.5,0.2-0.7,0.8-0.5,1.3C150.4,53.7,150.8,53.9,151.2,53.9"/>
			<path class="st1" d="M197.2,46.6c0.1,0,0.2,0.1,0.3,0.1c0.4,0,0.8-0.3,1-0.7c0.2-0.5-0.1-1.1-0.6-1.3c-0.5-0.2-1.1,0.1-1.3,0.6
				C196.4,45.8,196.7,46.4,197.2,46.6"/>
			<path class="st1" d="M208.4,51.1c0.1,0.1,0.2,0.2,0.3,0.3C208.6,51.3,208.5,51.1,208.4,51.1c-0.4-0.4-1-0.4-1.4,0
				c-0.4,0.4-0.4,1,0,1.4L208.4,51.1z"/>
			<path class="st1" d="M200.8,48c0.1,0.1,0.3,0.1,0.4,0.1c0.4,0,0.7-0.2,0.9-0.5c0.2-0.5,0-1.1-0.4-1.3c-0.5-0.2-1.1,0-1.3,0.5
				C200.1,47.2,200.3,47.8,200.8,48"/>
			<path class="st1" d="M166.1,48.1c0.1,0,0.2,0,0.3,0c0.5-0.2,0.8-0.7,0.7-1.3c-0.2-0.5-0.7-0.8-1.2-0.7c-0.5,0.2-0.8,0.7-0.7,1.2
				C165.2,47.8,165.6,48.1,166.1,48.1"/>
			<path class="st1" d="M207,52.5C207,52.5,207,52.5,207,52.5c0.2,0.2,0.5,0.3,0.7,0.3c0.3,0,0.5-0.1,0.7-0.3
				c0.3-0.3,0.4-0.7,0.2-1.1c-0.1-0.1-0.2-0.2-0.3-0.3L207,52.5z"/>
			<path class="st1" d="M160.6,53.8c2.2,0,3.9-1.8,3.9-3.9c0-2.2-1.8-3.9-3.9-3.9s-3.9,1.8-3.9,3.9C156.7,52,158.4,53.8,160.6,53.8
				 M157.6,50.1c-0.2-0.5,0.1-1.1,0.6-1.3c0.3-0.1,0.6-0.1,0.8,0.1c0.3-0.5,0.9-0.9,1.6-0.9c0.3,0,0.5,0.1,0.7,0.1
				c0.1-0.3,0.3-0.6,0.6-0.7h0c0.5-0.2,1.1,0.1,1.3,0.6c0.2,0.5-0.1,1.1-0.6,1.3c-0.1,0-0.1,0-0.2,0c0.1,0.2,0.1,0.4,0.1,0.6
				c0,1.1-0.9,1.9-1.9,1.9c-0.8,0-1.5-0.5-1.7-1.1c-0.1,0-0.2,0.1-0.3,0.1C158.1,50.7,157.7,50.5,157.6,50.1"/>
			<path class="st1" d="M162.4,49.3c0.1,0,0.1,0,0.2,0c0.5-0.2,0.8-0.8,0.6-1.3c-0.2-0.5-0.8-0.8-1.3-0.6h0
				c-0.3,0.1-0.6,0.4-0.6,0.7C161.8,48.3,162.2,48.8,162.4,49.3"/>
			<path class="st1" d="M158.8,50.6c-0.1-0.2-0.2-0.5-0.2-0.8c0-0.4,0.1-0.7,0.3-1c-0.3-0.1-0.6-0.2-0.8-0.1
				c-0.5,0.2-0.8,0.8-0.6,1.3c0.1,0.4,0.5,0.6,0.9,0.6C158.6,50.7,158.7,50.7,158.8,50.6"/>
			<path class="st1" d="M62.1,52.5c0.4,0.4,0.4,1,0,1.4c0,0,0,0,0,0l0,0c2.9-2.9,6.5-4.9,10.8-6.2c-0.2-0.5-0.3-0.9-0.3-1.5
				c0-0.2,0-0.4,0.1-0.6c-4.6,1.3-8.5,3.5-11.7,6.5C61.3,52.2,61.8,52.2,62.1,52.5"/>
			<path class="st1" d="M80.4,46.5c4.6-0.3,9.7,0.1,15.2,1.2l0.4-2c-5.8-1.2-11.2-1.6-16.1-1.3c0.3,0.5,0.5,1.2,0.5,1.8
				C80.4,46.4,80.4,46.4,80.4,46.5"/>
			<path class="st1" d="M98.7,48c0.2,0.2,0.4,0.3,0.7,0.3c0.3,0,0.5-0.1,0.7-0.3c0.1-0.1,0.2-0.2,0.2-0.3c0.1-0.1,0.1-0.3,0.1-0.4
				c0-0.3-0.1-0.5-0.3-0.7c-0.4-0.4-1-0.4-1.4,0c-0.2,0.2-0.3,0.4-0.3,0.7c0,0.1,0,0.3,0.1,0.4C98.5,47.8,98.6,47.9,98.7,48"/>
			<path class="st1" d="M150.8,195.4c-0.4-0.4-1.1-0.4-1.4,0c-0.1,0.1-0.2,0.2-0.2,0.3c-0.1,0.1-0.1,0.3-0.1,0.4s0,0.3,0.1,0.4
				c0.1,0.1,0.1,0.2,0.2,0.3c0.2,0.2,0.4,0.3,0.7,0.3c0.1,0,0.3,0,0.4-0.1c0.1-0.1,0.2-0.1,0.3-0.2c0.1-0.1,0.2-0.2,0.2-0.3
				c0.1-0.1,0.1-0.3,0.1-0.4s0-0.3-0.1-0.4C151,195.6,150.9,195.5,150.8,195.4"/>
			<path class="st1" d="M177.6,202.8c-0.6-0.1-1,0.3-1.1,0.9c-0.1,0.6,0.4,1,0.9,1.1h0.1c0.5,0,0.9-0.4,1-0.9
				C178.6,203.3,178.2,202.8,177.6,202.8"/>
			<path class="st1" d="M181.6,203c-0.6,0-1,0.4-1,1c0,0.6,0.4,1,1,1h0c0.6,0,1-0.4,1-1C182.6,203.4,182.2,203,181.6,203"/>
			<path class="st1" d="M185.6,202.9c-0.6,0-1,0.5-0.9,1.1c0,0.5,0.5,0.9,1,0.9c0,0,0.1,0,0.1,0c0.6,0,1-0.5,0.9-1.1
				C186.7,203.2,186.2,202.8,185.6,202.9"/>
			<path class="st1" d="M189.6,202.3c-0.5,0.1-0.9,0.6-0.8,1.2c0.1,0.5,0.5,0.8,1,0.8c0.1,0,0.1,0,0.2,0c0.5-0.1,0.9-0.6,0.8-1.2
				C190.7,202.6,190.1,202.2,189.6,202.3"/>
			<path class="st1" d="M173.6,202.3c-0.6-0.1-1.1,0.3-1.1,0.8c-0.1,0.5,0.3,1.1,0.8,1.1c0.1,0,0.1,0,0.1,0c0.5,0,0.9-0.3,1-0.8
				C174.6,202.9,174.2,202.4,173.6,202.3"/>
			<path class="st1" d="M161.9,199.5c-0.5-0.2-1.1,0.1-1.3,0.6c-0.2,0.5,0.1,1.1,0.7,1.3c0.1,0,0.2,0,0.3,0c0.4,0,0.8-0.3,0.9-0.7
				C162.7,200.2,162.4,199.7,161.9,199.5"/>
			<path class="st1" d="M165.7,200.6c-0.5-0.1-1.1,0.2-1.2,0.7c-0.1,0.5,0.2,1.1,0.7,1.2c0.1,0,0.2,0,0.3,0c0.4,0,0.8-0.3,1-0.7
				C166.6,201.3,166.3,200.8,165.7,200.6"/>
			<path class="st1" d="M193.4,201.4c-0.5,0.2-0.8,0.7-0.7,1.3c0.1,0.4,0.5,0.7,1,0.7c0.1,0,0.2,0,0.3,0c0.5-0.2,0.8-0.7,0.6-1.3
				C194.5,201.5,194,201.2,193.4,201.4"/>
			<path class="st1" d="M169.7,201.6c-0.5-0.1-1.1,0.2-1.2,0.8c-0.1,0.5,0.2,1.1,0.8,1.2c0.1,0,0.1,0,0.2,0c0.5,0,0.9-0.3,1-0.8
				C170.6,202.2,170.2,201.7,169.7,201.6"/>
			<path class="st1" d="M158,198.2c-0.5-0.2-1.1,0.1-1.3,0.6c-0.2,0.5,0.1,1.1,0.6,1.3c0.1,0,0.2,0.1,0.3,0.1c0.4,0,0.8-0.3,0.9-0.7
				C158.8,199,158.5,198.4,158,198.2"/>
			<path class="st1" d="M154.2,196.7c-0.5-0.2-1.1,0-1.3,0.6c-0.2,0.5,0,1.1,0.5,1.3c0.1,0.1,0.3,0.1,0.4,0.1c0.4,0,0.8-0.2,0.9-0.6
				C155,197.5,154.8,196.9,154.2,196.7"/>
			<path class="st1" d="M200.5,197.9c-0.5,0.3-0.6,0.9-0.2,1.4c0.2,0.3,0.5,0.4,0.8,0.4c0.2,0,0.4-0.1,0.6-0.2
				c0.5-0.3,0.6-0.9,0.2-1.4C201.6,197.7,200.9,197.6,200.5,197.9"/>
			<path class="st1" d="M197.1,199.9c-0.5,0.2-0.7,0.8-0.5,1.3c0.2,0.4,0.5,0.6,0.9,0.6c0.2,0,0.3,0,0.4-0.1
				c0.5-0.2,0.7-0.8,0.5-1.3C198.2,199.9,197.6,199.7,197.1,199.9"/>
			<path class="st1" d="M203.5,195.4c-0.2,0.2-0.3,0.4-0.3,0.7c0,0.3,0.1,0.5,0.3,0.7c0.1,0.1,0.2,0.2,0.3,0.2
				c0.1,0.1,0.3,0.1,0.4,0.1c0.1,0,0.3,0,0.4-0.1c0.1,0,0.2-0.1,0.3-0.2c0,0,0,0,0,0L203.5,195.4
				C203.5,195.4,203.5,195.4,203.5,195.4"/>
			<path class="st1" d="M56.6,90.8c-0.1-0.5-0.7-0.9-1.2-0.7c-0.5,0.1-0.9,0.7-0.7,1.2c0.1,0.4,0.5,0.8,1,0.8c0.1,0,0.2,0,0.2,0
				C56.4,91.9,56.7,91.3,56.6,90.8"/>
			<path class="st1" d="M54.9,88.1c0.5-0.1,0.9-0.6,0.8-1.2c-0.1-0.5-0.6-0.9-1.2-0.8c-0.5,0.1-0.9,0.6-0.8,1.2
				c0.1,0.5,0.5,0.8,1,0.8C54.8,88.1,54.8,88.1,54.9,88.1"/>
			<path class="st1" d="M56.7,95.9c0.1,0,0.2,0,0.3-0.1c0.5-0.2,0.8-0.7,0.7-1.3c-0.2-0.5-0.7-0.8-1.2-0.7c-0.5,0.2-0.8,0.7-0.7,1.3
				C55.9,95.6,56.3,95.9,56.7,95.9"/>
			<path class="st1" d="M54.2,84.2c0.6-0.1,0.9-0.6,0.9-1.1c-0.1-0.5-0.6-0.9-1.1-0.8c-0.5,0.1-0.9,0.6-0.9,1.1
				c0.1,0.5,0.5,0.8,1,0.8H54.2z"/>
			<path class="st1" d="M53.4,76.2c0.6,0,1-0.4,1-1c0-0.6-0.5-1-1-1c-0.6,0-1,0.5-1,1C52.4,75.8,52.9,76.2,53.4,76.2"/>
			<path class="st1" d="M53.7,80.2c0.6,0,1-0.5,0.9-1.1c0-0.6-0.5-1-1.1-0.9c-0.5,0-1,0.5-0.9,1.1C52.6,79.8,53.1,80.2,53.7,80.2
				L53.7,80.2z"/>
			<path class="st1" d="M60.4,105.2c-0.5,0.2-0.7,0.8-0.5,1.3c0.2,0.4,0.5,0.6,0.9,0.6c0.1,0,0.3,0,0.4-0.1c0.5-0.2,0.7-0.8,0.5-1.3
				C61.5,105.2,61,105,60.4,105.2"/>
			<path class="st1" d="M59,101.5c-0.5,0.2-0.8,0.8-0.6,1.3c0.2,0.4,0.5,0.6,0.9,0.6c0.1,0,0.3,0,0.4-0.1c0.5-0.2,0.8-0.8,0.6-1.3
				C60,101.6,59.5,101.3,59,101.5"/>
			<path class="st1" d="M54,68.3c0.1,0,0.1,0,0.2,0c0.5,0,0.9-0.3,1-0.8c0.1-0.5-0.2-1.1-0.8-1.2c-0.5-0.1-1.1,0.3-1.2,0.8
				C53.1,67.6,53.5,68.1,54,68.3"/>
			<path class="st1" d="M57.6,97.7c-0.5,0.2-0.8,0.8-0.6,1.3c0.1,0.4,0.5,0.7,0.9,0.7c0.1,0,0.2,0,0.3-0.1c0.5-0.2,0.8-0.8,0.6-1.3
				h0C58.7,97.8,58.1,97.6,57.6,97.7"/>
			<path class="st1" d="M61.4,54.2c0.3,0,0.5-0.1,0.7-0.3l-1.4-1.4c0.1-0.1,0.2-0.2,0.3-0.3c-0.1,0-0.2,0.1-0.3,0.2h0
				c-0.4,0.4-0.4,1,0,1.4C60.8,54.1,61.1,54.2,61.4,54.2"/>
			<path class="st1" d="M61.6,110.2c0.2,0.4,0.5,0.6,0.9,0.6c0.1,0,0.3,0,0.4-0.1c0.5-0.2,0.7-0.8,0.5-1.3h0
				c-0.2-0.5-0.8-0.7-1.3-0.5C61.6,109.1,61.4,109.7,61.6,110.2"/>
			<path class="st1" d="M54.9,64.4c0.1,0,0.2,0.1,0.3,0.1c0.4,0,0.8-0.3,1-0.7c0.2-0.5-0.1-1.1-0.6-1.3c-0.5-0.2-1.1,0.1-1.3,0.6
				C54.1,63.6,54.4,64.2,54.9,64.4"/>
			<path class="st1" d="M58.8,57.3c0.3,0,0.6-0.1,0.8-0.4c0.3-0.4,0.2-1.1-0.2-1.4c-0.4-0.3-1.1-0.2-1.4,0.2
				c-0.3,0.4-0.2,1.1,0.2,1.4C58.4,57.2,58.6,57.3,58.8,57.3"/>
			<path class="st1" d="M53.5,72.2L53.5,72.2c0.6,0,1-0.4,1.1-0.9c0-0.5-0.3-1-0.9-1.1c-0.5-0.1-1,0.4-1.1,0.9
				C52.6,71.7,53,72.2,53.5,72.2"/>
			<path class="st1" d="M56.3,60.6c0.1,0.1,0.3,0.1,0.5,0.1c0.4,0,0.7-0.2,0.9-0.6v0c0.3-0.5,0-1.1-0.5-1.4c-0.5-0.2-1.1,0-1.3,0.5
				C55.6,59.8,55.8,60.4,56.3,60.6"/>
			<path class="st1" d="M62.1,53.9C62.1,53.9,62.1,53.9,62.1,53.9c0.4-0.4,0.4-1,0-1.4c-0.3-0.3-0.7-0.4-1.1-0.2
				c-0.1,0.1-0.2,0.2-0.3,0.3L62.1,53.9z"/>
			<path class="st1" d="M76.5,44.4c0.4,0,0.8,0.1,1.1,0.3c0.4-0.1,0.8-0.1,1.3-0.2c0.3,0,0.7-0.1,1.1-0.1c-0.7-1.2-1.9-2.1-3.4-2.1
				c-2,0-3.6,1.5-3.9,3.3c0.8-0.2,1.5-0.4,2.3-0.6C75.3,44.7,75.9,44.4,76.5,44.4"/>
			<path class="st1" d="M78.4,46.7c-0.2,0.9-0.9,1.6-1.9,1.6c-0.7,0-1.3-0.4-1.7-1c-0.7,0.2-1.3,0.3-2,0.5c0.6,1.4,2,2.5,3.6,2.5
				c2.1,0,3.8-1.7,3.9-3.8c-0.4,0-0.9,0.1-1.3,0.1C78.8,46.6,78.6,46.6,78.4,46.7"/>
			<path class="st1" d="M72.9,47.8c0.6-0.2,1.3-0.4,2-0.5c-0.2-0.3-0.3-0.6-0.3-0.9c0-0.4,0.1-0.8,0.4-1.1c-0.8,0.2-1.6,0.4-2.3,0.6
				c0,0.2-0.1,0.4-0.1,0.6C72.6,46.9,72.7,47.3,72.9,47.8"/>
			<path class="st1" d="M77.6,44.8c0.5,0.3,0.8,0.9,0.8,1.6c0,0.1,0,0.2,0,0.3c0.2,0,0.5-0.1,0.7-0.1c0.4,0,0.9-0.1,1.3-0.1
				c0,0,0-0.1,0-0.1c0-0.7-0.2-1.3-0.5-1.8c-0.4,0-0.7,0-1.1,0.1C78.4,44.6,78,44.7,77.6,44.8"/>
			<path class="st1" d="M152.5,116L152.5,116L152.5,116c0,0.8,0,1.6,0,2.3l2-1.2c0-0.8,0-1.7-0.1-2.5l-2-0.9
				C152.5,114.5,152.5,115.2,152.5,116"/>
			<path class="st1" d="M152.4,128.1l0.9,0.9l-1,1c0,1-0.1,2-0.2,3l2.2-2.2c0.1-1.2,0.1-2.3,0.1-3.5l-2-2
				C152.5,126.3,152.5,127.2,152.4,128.1"/>
			<rect x="219.8" y="120.6" class="st1" width="2" height="4"/>
			<rect x="219.8" y="130.6" class="st1" width="2" height="4"/>
			<rect x="223.8" y="126.6" class="st1" width="4" height="2"/>
			<rect x="213.8" y="126.6" class="st1" width="4" height="2"/>
			<rect x="81.7" y="178.7" class="st1" width="2" height="4"/>
			<rect x="81.7" y="188.7" class="st1" width="2" height="4"/>
			<rect x="85.7" y="184.7" class="st1" width="4" height="2"/>
			<rect x="75.7" y="184.7" class="st1" width="4" height="2"/>
			<path class="st2" d="M120.9,46.2c-1.7,0-3-1.3-3-3c0-1.7,1.3-3,3-3s3,1.3,3,3C123.9,44.8,122.6,46.2,120.9,46.2 M120.9,42.2
				c-0.6,0-1,0.4-1,1c0,0.6,0.4,1,1,1s1-0.4,1-1C121.9,42.6,121.5,42.2,120.9,42.2"/>
			<path class="st0" d="M206.9,78.8c0,2.4-1.9,4.3-4.3,4.3c-2.4,0-4.3-1.9-4.3-4.3c0-2.4,1.9-4.3,4.3-4.3
				C205,74.5,206.9,76.4,206.9,78.8"/>
			<path class="st0" d="M70.3,164.8c0,0.9-0.7,1.7-1.7,1.7c-0.9,0-1.7-0.7-1.7-1.7c0-0.9,0.7-1.7,1.7-1.7
				C69.5,163.2,70.3,163.9,70.3,164.8"/>
			<path class="st0" d="M147.6,203.8c0,2.2-1.8,4-4,4s-4-1.8-4-4s1.8-4,4-4S147.6,201.6,147.6,203.8"/>
			<polygon class="st0" points="164.9,87.7 164.6,87.7 164.8,87.9 			"/>
			<path class="st1" d="M121.3,192.4c-3.8,1.8-7.7,3.4-11.4,4.7c-19.6,6.8-35.3,5.7-44.3-3.2l-1.4,1.4c5.5,5.5,13.2,8.2,22.8,8.2
				c7,0,14.9-1.5,23.6-4.5c3.9-1.4,7.9-3,11.9-5C121.9,193.6,121.6,193,121.3,192.4"/>
			<path class="st1" d="M164.9,155.1l4.3,2.8c-12,11.8-24.8,21.7-37.7,29.2c0.3,0.6,0.5,1.3,0.5,2c13.3-7.6,26.7-18,39.1-30.3
				l4.7,2.8l3.5-14.3L164.9,155.1z M174.5,158.4l-5.6-3.3l7.4-4L174.5,158.4z"/>
			<path class="st1" d="M211,176.2c-0.4,8-2.9,14.5-7.6,19.2l1.4,1.4c4.8-4.8,7.5-11.5,8.1-19.5C212.2,177.1,211.6,176.7,211,176.2"
				/>
			<path class="st1" d="M207.3,148.3c0.2,0,0.4,0,0.6,0c-7.2-19.4-21.1-40.1-39.5-58.6l2.8-4.7l-14.3-3.5l7.9,14.5l2.8-4.3
				c17.7,17.9,31.2,38,38.3,56.8C206.2,148.4,206.7,148.3,207.3,148.3 M164.7,92l-4-7.4l7.3,1.8L164.7,92z"/>
			<path class="st1" d="M126.7,196.8c-3.9,0-7-3.1-7-7c0-3.9,3.1-7,7-7c3.9,0,7,3.1,7,7C133.7,193.7,130.5,196.8,126.7,196.8
				 M126.7,184.8c-2.8,0-5,2.2-5,5c0,2.8,2.2,5,5,5s5-2.2,5-5C131.7,187,129.4,184.8,126.7,184.8"/>
		</g>
	</g>
</g>
<g>
	<polygon class="st3" points="103.6,91.1 95.5,62.3 155.2,45.4 163.3,74.3 	"/>
	<path class="st1" d="M133.8,74.2l-5.4,1.5c-1.7,0.5-3.5-0.5-4-2.2l1.9-0.5c0.2,0.7,0.9,1,1.5,0.9l5.4-1.5c0.8-0.2,1.3-1.1,1.1-1.9
		l-0.3-0.9c-0.2-0.8-1.1-1.3-1.9-1.1l-5.3,1.5c-1.9,0.5-3.8-0.6-4.4-2.4l-0.3-0.9c-0.5-1.9,0.6-3.8,2.4-4.4l5.7-1.6
		c1.5-0.4,3,0.4,3.4,1.9l-1.9,0.5c-0.1-0.4-0.6-0.7-1-0.5l-5.7,1.6c-0.8,0.2-1.3,1.1-1.1,1.9l0.3,0.9c0.2,0.8,1.1,1.3,1.9,1.1
		l5.3-1.5c1.9-0.5,3.8,0.6,4.4,2.4l0.3,0.9C136.8,71.7,135.7,73.6,133.8,74.2"/>
	<rect x="128.5" y="59.2" transform="matrix(0.9625 -0.2713 0.2713 0.9625 -13.6566 37.691)" class="st1" width="2" height="18"/>
	<rect x="138.9" y="63.7" transform="matrix(0.9625 -0.2713 0.2713 0.9625 -12.2359 40.92)" class="st1" width="6" height="2"/>
	<rect x="139.9" y="67.6" transform="matrix(0.9625 -0.2713 0.2713 0.9625 -13.2543 41.3463)" class="st1" width="6" height="2"/>
	<rect x="137.8" y="59.9" transform="matrix(0.9625 -0.2713 0.2713 0.9625 -11.2371 40.4741)" class="st1" width="6" height="2"/>
	<rect x="113.9" y="70.9" transform="matrix(0.9625 -0.2713 0.2713 0.9625 -15.1219 34.4118)" class="st1" width="6" height="2"/>
	<rect x="112.9" y="67" transform="matrix(0.9625 -0.2713 0.2713 0.9625 -14.1035 33.9855)" class="st1" width="6" height="2"/>
	<rect x="115" y="74.7" transform="matrix(0.9625 -0.2713 0.2713 0.9625 -16.1207 34.8577)" class="st1" width="6" height="2"/>
	<path class="st1" d="M160.8,72.9L105,88.7l-7.1-25l55.8-15.7L160.8,72.9z M106.4,86.2l52-14.6l-6-21.2l-52,14.6L106.4,86.2z"/>
</g>
<g>
	<path class="st4" d="M162.3,33.8c0-5-4.1-9.1-9.1-9.1s-9.1,4.1-9.1,9.1s4.1,9.1,9.1,9.1S162.3,38.8,162.3,33.8"/>
	<path class="st2" d="M153.2,41.4L153.2,41.4c-4.2,0-7.6-3.4-7.5-7.6c0-4.2,3.4-7.5,7.5-7.5h0c0.8,0,1.5,0.1,2.2,0.3l0.5,0.2
		c0.3,0.1,0.4,0.4,0.3,0.7c-0.1,0.3-0.4,0.4-0.7,0.3l-0.5-0.2c-0.6-0.2-1.2-0.3-1.9-0.3h0c-3.6,0-6.5,2.9-6.5,6.5
		c0,3.6,2.9,6.5,6.5,6.5h0c1.7,0,3.4-0.7,4.6-1.9c1.2-1.2,1.9-2.9,1.9-4.6c0-1.5-0.5-3-1.5-4.2c-0.2-0.2-0.1-0.5,0.1-0.7
		c0.2-0.2,0.5-0.1,0.7,0.1c1.1,1.3,1.7,3.1,1.7,4.8c0,2-0.8,3.9-2.2,5.3C157.1,40.6,155.2,41.4,153.2,41.4"/>
	<path class="st2" d="M154.5,37.3h-2.8c-0.9,0-1.6-0.7-1.6-1.6c0-0.3,0.2-0.5,0.5-0.5c0.3,0,0.5,0.2,0.5,0.5c0,0.3,0.3,0.6,0.6,0.6
		h2.8c0.4,0,0.8-0.3,0.8-0.8v-0.5c0-0.4-0.3-0.8-0.8-0.8h-2.8c-1,0-1.8-0.8-1.8-1.8v-0.5c0-1,0.8-1.8,1.8-1.8h3
		c0.8,0,1.4,0.6,1.4,1.4c0,0.3-0.2,0.5-0.5,0.5c-0.3,0-0.5-0.2-0.5-0.5c0-0.2-0.2-0.4-0.4-0.4h-3c-0.4,0-0.8,0.3-0.8,0.8v0.5
		c0,0.4,0.3,0.8,0.8,0.8h2.8c1,0,1.8,0.8,1.8,1.8v0.5C156.3,36.5,155.5,37.3,154.5,37.3"/>
	<path class="st2" d="M153.3,38.8c-0.3,0-0.5-0.2-0.5-0.5v-9.1c0-0.3,0.2-0.5,0.5-0.5c0.3,0,0.5,0.2,0.5,0.5v9.1
		C153.8,38.6,153.6,38.8,153.3,38.8"/>
	<path class="st2" d="M157.3,28.8C157.2,28.8,157.2,28.8,157.3,28.8c-0.1,0-0.2,0-0.2,0c0,0-0.1,0-0.1,0c0,0-0.1,0-0.1-0.1
		c-0.1-0.1-0.2-0.2-0.2-0.4c0-0.1,0-0.1,0-0.2c0-0.1,0.1-0.1,0.1-0.2c0,0,0,0,0.1-0.1c0,0,0.1,0,0.1,0c0,0,0.1,0,0.1,0
		c0.1,0,0.2,0,0.3,0c0.1,0,0.1,0.1,0.2,0.1c0,0.1,0.1,0.1,0.1,0.2c0,0.1,0,0.1,0,0.2c0,0.1-0.1,0.3-0.1,0.4c0,0-0.1,0.1-0.2,0.1
		C157.4,28.8,157.3,28.8,157.3,28.8"/>
</g>
<path class="st1" d="M43.2,135.3c-2.2,0-4-1.8-4-4s1.8-4,4-4c2.2,0,4,1.8,4,4S45.4,135.3,43.2,135.3 M43.2,129.3c-1.1,0-2,0.9-2,2
	s0.9,2,2,2s2-0.9,2-2S44.3,129.3,43.2,129.3"/>
<path class="st1" d="M53.2,145.3c-2.2,0-4-1.8-4-4s1.8-4,4-4c2.2,0,4,1.8,4,4S55.4,145.3,53.2,145.3 M53.2,139.3c-1.1,0-2,0.9-2,2
	s0.9,2,2,2s2-0.9,2-2S54.3,139.3,53.2,139.3"/>
<rect x="38.3" y="135.3" transform="matrix(0.7071 -0.7071 0.7071 0.7071 -82.2763 74.0377)" class="st1" width="19.8" height="2"/>
<rect x="171.8" y="17.3" class="st1" width="1.4" height="2.8"/>
<rect x="171.8" y="24.3" class="st1" width="1.4" height="2.8"/>
<rect x="174.6" y="21.5" class="st1" width="2.8" height="1.4"/>
<rect x="167.6" y="21.5" class="st1" width="2.8" height="1.4"/>
<path class="st4" d="M129.6,22.2c0,1.7-1.3,3-3,3c-1.7,0-3-1.3-3-3c0-1.7,1.3-3,3-3C128.2,19.2,129.6,20.5,129.6,22.2"/>
<path class="st4" d="M117.4,25.7c-1.9,0-3.5-1.6-3.5-3.5s1.6-3.5,3.5-3.5s3.5,1.6,3.5,3.5S119.3,25.7,117.4,25.7 M117.4,19.7
	c-1.4,0-2.5,1.1-2.5,2.5c0,1.4,1.1,2.5,2.5,2.5s2.5-1.1,2.5-2.5C119.9,20.8,118.7,19.7,117.4,19.7"/>
<path class="st4" d="M142.8,30.3c0,1.2-0.9,2.1-2.1,2.1s-2.1-0.9-2.1-2.1c0-1.2,0.9-2.1,2.1-2.1S142.8,29.1,142.8,30.3"/>
<path class="st4" d="M143.7,8c-1.4,0-2.5-1.1-2.5-2.5s1.1-2.5,2.5-2.5c1.4,0,2.5,1.1,2.5,2.5S145.1,8,143.7,8 M143.7,3.7
	c-1,0-1.8,0.8-1.8,1.8s0.8,1.8,1.8,1.8s1.8-0.8,1.8-1.8S144.7,3.7,143.7,3.7"/>
<path class="st4" d="M116.3,38.5c0,1.5-1.3,2.8-2.8,2.8s-2.8-1.3-2.8-2.8c0-1.5,1.3-2.8,2.8-2.8S116.3,36.9,116.3,38.5"/>
<path class="st4" d="M113.5,41.6c-1.7,0-3.2-1.4-3.2-3.2c0-1.7,1.4-3.2,3.2-3.2c1.7,0,3.2,1.4,3.2,3.2
	C116.7,40.2,115.3,41.6,113.5,41.6 M113.5,36c-1.4,0-2.5,1.1-2.5,2.5c0,1.4,1.1,2.5,2.5,2.5c1.4,0,2.5-1.1,2.5-2.5
	C116,37.1,114.9,36,113.5,36"/>
<path class="st4" d="M48.4,105.5c0-7.3-5.9-13.1-13.1-13.1s-13.1,5.9-13.1,13.1c0,7.3,5.9,13.1,13.1,13.1S48.4,112.7,48.4,105.5"/>
<path class="st2" d="M35.2,116.4L35.2,116.4c-6.1,0-11-4.9-11-11c0-6,4.9-10.9,11-10.9h0c1.1,0,2.2,0.2,3.2,0.5l0.7,0.3
	c0.4,0.2,0.5,0.6,0.4,1c-0.2,0.4-0.6,0.5-1,0.4L38,96.4c-0.8-0.3-1.8-0.4-2.7-0.4h0c-5.2,0-9.5,4.3-9.5,9.5c0,5.2,4.2,9.5,9.5,9.5h0
	c2.5,0,4.9-1,6.7-2.8c1.8-1.8,2.8-4.2,2.8-6.7c0-2.2-0.8-4.3-2.2-6c-0.3-0.3-0.2-0.8,0.1-1c0.3-0.3,0.8-0.2,1,0.1
	c1.6,2,2.5,4.4,2.5,7c0,2.9-1.1,5.7-3.2,7.7C40.9,115.3,38.2,116.4,35.2,116.4"/>
<path class="st2" d="M37.1,110.5H33c-1.3,0-2.3-1.1-2.3-2.3c0-0.4,0.3-0.7,0.7-0.7c0.4,0,0.7,0.3,0.7,0.7c0,0.5,0.4,0.9,0.9,0.9h4.1
	c0.6,0,1.1-0.5,1.1-1.1v-0.7c0-0.6-0.5-1.1-1.1-1.1h-4c-1.4,0-2.6-1.1-2.6-2.6v-0.7c0-1.4,1.1-2.6,2.6-2.6h4.3c1.1,0,2,0.9,2,2
	c0,0.4-0.3,0.7-0.7,0.7c-0.4,0-0.7-0.3-0.7-0.7c0-0.3-0.3-0.6-0.6-0.6h-4.3c-0.6,0-1.1,0.5-1.1,1.1v0.7c0,0.6,0.5,1.1,1.1,1.1h4
	c1.4,0,2.6,1.1,2.6,2.6v0.7C39.6,109.4,38.5,110.5,37.1,110.5"/>
<path class="st2" d="M35.3,112.8c-0.4,0-0.7-0.3-0.7-0.7V98.9c0-0.4,0.3-0.7,0.7-0.7c0.4,0,0.7,0.3,0.7,0.7V112
	C36.1,112.4,35.7,112.8,35.3,112.8"/>
<path class="st2" d="M41.1,98.2c0,0-0.1,0-0.1,0c-0.1,0-0.1,0-0.1,0c0,0-0.1,0-0.1-0.1c0,0-0.1-0.1-0.1-0.1
	c-0.1-0.1-0.2-0.3-0.2-0.5c0-0.1,0-0.2,0.1-0.3c0-0.1,0.1-0.2,0.2-0.2c0,0,0.1-0.1,0.1-0.1c0,0,0.1-0.1,0.1-0.1c0,0,0.1,0,0.1,0
	c0.1,0,0.3,0,0.4,0c0.1,0,0.2,0.1,0.2,0.2c0.1,0.1,0.1,0.1,0.2,0.2c0,0.1,0.1,0.2,0.1,0.3c0,0.2-0.1,0.4-0.2,0.5
	c-0.1,0.1-0.1,0.1-0.2,0.2C41.3,98.1,41.2,98.2,41.1,98.2"/>
<g>
	<path class="st4" d="M235.1,160.9c0-8.4-6.8-15.3-15.3-15.3s-15.3,6.8-15.3,15.3s6.8,15.3,15.3,15.3S235.1,169.3,235.1,160.9"/>
	<path class="st2" d="M219.8,173.6L219.8,173.6c-7,0-12.8-5.7-12.7-12.8c0-7,5.7-12.7,12.7-12.7h0c1.3,0,2.5,0.2,3.8,0.6l0.9,0.4
		c0.4,0.2,0.6,0.7,0.5,1.1c-0.2,0.4-0.7,0.6-1.1,0.5l-0.8-0.3c-1-0.3-2.1-0.5-3.2-0.5h0c-6.1,0-11,4.9-11,11c0,6.1,4.9,11,11,11.1h0
		c2.9,0,5.7-1.1,7.8-3.2c2.1-2.1,3.2-4.9,3.2-7.8c0-2.6-0.9-5.1-2.5-7c-0.3-0.4-0.2-0.9,0.1-1.2c0.4-0.3,0.9-0.2,1.2,0.1
		c1.9,2.3,2.9,5.2,2.9,8.1c0,3.4-1.3,6.6-3.7,9C226.4,172.3,223.2,173.6,219.8,173.6"/>
	<path class="st2" d="M221.9,166.8h-4.7c-1.5,0-2.7-1.2-2.7-2.7c0-0.5,0.4-0.8,0.8-0.8c0.5,0,0.8,0.4,0.8,0.8c0,0.6,0.5,1,1,1h4.7
		c0.7,0,1.3-0.6,1.3-1.3V163c0-0.7-0.6-1.3-1.3-1.3h-4.7c-1.6,0-3-1.3-3-3v-0.8c0-1.6,1.3-3,3-3h5c1.3,0,2.4,1.1,2.4,2.4
		c0,0.5-0.4,0.8-0.8,0.8c-0.5,0-0.8-0.4-0.8-0.8c0-0.4-0.3-0.7-0.7-0.7h-5c-0.7,0-1.3,0.6-1.3,1.3v0.8c0,0.7,0.6,1.3,1.3,1.3h4.7
		c1.6,0,3,1.3,3,3v0.8C224.9,165.5,223.5,166.8,221.9,166.8"/>
	<path class="st2" d="M219.9,169.4c-0.5,0-0.8-0.4-0.8-0.8v-15.3c0-0.5,0.4-0.8,0.8-0.8s0.8,0.4,0.8,0.8v15.3
		C220.8,169,220.4,169.4,219.9,169.4"/>
	<path class="st2" d="M226.6,152.4c-0.1,0-0.1,0-0.2,0c-0.1,0-0.1,0-0.2-0.1c-0.1,0-0.1,0-0.1-0.1c-0.1,0-0.1-0.1-0.1-0.1
		c-0.2-0.2-0.3-0.4-0.3-0.6c0-0.1,0-0.2,0.1-0.3c0-0.1,0.1-0.2,0.2-0.3c0,0,0.1-0.1,0.1-0.1c0,0,0.1-0.1,0.1-0.1
		c0.1,0,0.1,0,0.2-0.1c0.2,0,0.3,0,0.5,0.1c0.1,0,0.2,0.1,0.3,0.2c0.1,0.1,0.1,0.2,0.2,0.3c0,0.1,0.1,0.2,0.1,0.3
		c0,0.2-0.1,0.4-0.2,0.6c-0.1,0.1-0.2,0.1-0.3,0.2C226.8,152.4,226.7,152.4,226.6,152.4"/>
</g>
<path class="st4" d="M129.6,46.7c0-9.3-7.5-16.8-16.8-16.8s-16.8,7.5-16.8,16.8s7.5,16.8,16.8,16.8S129.6,56,129.6,46.7"/>
<path class="st2" d="M127.7,59.8L127.7,59.8c-3.7,0-7.2-1.4-9.8-4.1c-2.6-2.6-4-6.1-4-9.8c0-3.7,1.4-7.1,4.1-9.7
	c2.6-2.6,6.1-4,9.7-4h0c1.4,0,2.8,0.2,4.1,0.6l0.9,0.4c0.4,0.2,0.5,0.6,0.4,0.9c-0.1,0.4-0.6,0.5-0.9,0.4l-0.9-0.4
	c-1.1-0.3-2.3-0.5-3.6-0.5h0c-3.3,0-6.4,1.3-8.8,3.6c-2.3,2.3-3.6,5.4-3.6,8.8c0,3.3,1.3,6.4,3.6,8.8c2.3,2.3,5.4,3.6,8.8,3.6h0
	c3.3,0,6.4-1.3,8.7-3.6c2.3-2.3,3.6-5.4,3.6-8.8c0-2.9-1-5.7-2.8-7.9c-0.2-0.3-0.2-0.7,0.1-1s0.7-0.2,1,0.1c2,2.5,3.1,5.6,3.1,8.8
	c0,3.7-1.4,7.1-4.1,9.7C134.8,58.3,131.3,59.8,127.7,59.8"/>
<path class="st2" d="M130,52.3h-5.2c-1.5,0-2.7-1.2-2.7-2.8c0-0.4,0.3-0.7,0.7-0.7s0.7,0.3,0.7,0.7c0,0.8,0.6,1.4,1.3,1.4h5.2
	c0.9,0,1.6-0.7,1.6-1.7v-0.9c0-0.9-0.7-1.6-1.6-1.6h-5.1c-1.7,0-3-1.4-3-3v-0.9c0-1.7,1.4-3,3-3h5.5c1.3,0,2.4,1.1,2.4,2.4
	c0,0.4-0.3,0.7-0.7,0.7c-0.4,0-0.7-0.3-0.7-0.7c0-0.5-0.4-1-1-1h-5.5c-0.9,0-1.6,0.7-1.6,1.6v0.9c0,0.9,0.7,1.6,1.6,1.6h5.1
	c1.7,0,3,1.4,3,3v0.9C133,50.9,131.7,52.3,130,52.3"/>
<path class="st2" d="M127.7,55.1c-0.4,0-0.7-0.3-0.7-0.7V37.6c0-0.4,0.3-0.7,0.7-0.7c0.4,0,0.7,0.3,0.7,0.7v16.8
	C128.5,54.8,128.1,55.1,127.7,55.1"/>
<path class="st2" d="M135.1,36.4c-0.2,0-0.4-0.1-0.5-0.2c-0.1-0.1-0.2-0.3-0.2-0.5c0-0.1,0-0.2,0-0.3c0-0.1,0.1-0.2,0.2-0.2
	c0.3-0.3,0.7-0.3,1,0c0.1,0.1,0.1,0.1,0.2,0.2c0,0.1,0.1,0.2,0.1,0.3c0,0.2-0.1,0.4-0.2,0.5c-0.1,0.1-0.1,0.1-0.2,0.2
	C135.3,36.4,135.2,36.4,135.1,36.4"/>
</svg>
